<svg width="100" height="100" viewBox="0 0 100 100" fill="none" xmlns="http://www.w3.org/2000/svg">
<g clip-path="url(#clip0_1203:28401)">
<rect width="100" height="100" rx="24" fill="#EDF1FA"/>
<g filter="url(#filter0_d_1203:28401)">
<path d="M45.7088 26.5661C48.1492 29.008 48.1492 32.9638 45.7088 35.4026C43.2669 37.8445 39.3111 37.8445 36.8708 35.4026L32.4525 30.9843C30.0106 28.5424 30.0106 24.5866 32.4525 22.1478C34.8929 19.7059 38.8502 19.7059 41.289 22.1478L45.7088 26.5661ZM66.2893 30.9843C68.7281 28.5424 68.7281 24.5866 66.2893 22.1478C63.8474 19.7059 59.89 19.7059 57.4497 22.1478L53.0314 26.5661C50.5911 29.008 50.5911 32.9638 53.0314 35.4026C55.4733 37.8445 59.4307 37.8445 61.8679 35.4026L66.2893 30.9843Z" fill="#9BB8FD" fill-opacity="0.01"/>
<path d="M64.9925 65.1298C64.9925 70.5792 58.048 74.9974 49.3693 74.9974C40.6906 74.9974 33.7461 70.5792 33.7461 65.1298V60.1975C33.7461 50.3299 38.4112 43.751 44.1621 43.751H54.5781C60.3306 43.751 64.9925 50.3299 64.9925 60.196V65.1298Z" fill="#9BB8FD" fill-opacity="0.01"/>
<path d="M33.7466 60.1962C33.7466 54.8218 35.1371 50.4348 37.3275 47.543C29.6784 49.6693 25.257 53.0658 24.4711 57.3887C23.9196 60.4087 25.7038 63.3459 28.4551 63.9489C28.791 64.0239 29.1269 64.0598 29.4549 64.0598C31.2141 64.0598 32.8327 63.0475 33.7482 61.4429V60.1962H33.7466ZM74.2702 57.3887C73.4827 53.0642 69.0629 49.6709 61.4138 47.543C63.6026 50.4348 64.9931 54.8218 64.9931 60.1962V61.4461C65.9086 63.049 67.5256 64.0614 69.2863 64.0614C69.6129 64.0614 69.9488 64.0255 70.2847 63.9505C73.0359 63.3474 74.8185 60.4087 74.2702 57.3887Z" fill="#9BB8FD" fill-opacity="0.01"/>
<path d="M36.1557 60.9365C35.5839 60.9365 35.0121 61.0131 34.4419 61.1709C30.3423 62.3176 28.1082 67.3405 29.4487 72.3868C30.6064 76.7332 34.0388 79.6844 37.5884 79.6844C38.1602 79.6844 38.7336 79.6078 39.3022 79.45C43.4033 78.3049 45.6375 73.2804 44.2939 68.2341C43.1409 63.8878 39.7084 60.9365 36.1557 60.9365ZM62.5855 60.9365C59.0344 60.9365 55.6004 63.8878 54.4474 68.2341C53.1054 73.2789 55.3379 78.3033 59.439 79.45C60.0061 79.6094 60.5795 79.6844 61.1513 79.6844C64.7025 79.6844 68.1365 76.7332 69.2926 72.3868C70.6315 67.342 68.3989 62.3192 64.2978 61.1709C63.7292 61.0131 63.1558 60.9365 62.5855 60.9365Z" fill="#9BB8FD" fill-opacity="0.01"/>
<path d="M49.3693 23.4414C42.4264 23.4414 33.7461 28.7158 33.7461 39.2599C33.7461 47.998 40.7406 51.5632 49.3693 51.5632C57.998 51.5632 64.9925 47.998 64.9925 39.2599C64.9925 28.7158 56.3138 23.4414 49.3693 23.4414Z" fill="#9BB8FD" fill-opacity="0.01"/>
<path d="M36.1556 64.0614C35.8619 64.0614 35.5681 64.1005 35.2838 64.1802C32.8716 64.8566 31.5827 68.2485 32.4669 71.5856C33.2356 74.4665 35.3885 76.56 37.5882 76.56C37.8819 76.56 38.1757 76.5209 38.46 76.4413C40.8753 75.7663 42.1627 72.3761 41.2753 69.039C40.5098 66.1534 38.3569 64.0614 36.1556 64.0614ZM63.4556 64.1802C63.1712 64.1005 62.8775 64.0614 62.5854 64.0614C60.3856 64.0614 58.2312 66.1549 57.4656 69.0359C56.5782 72.3777 57.8656 75.7679 60.2794 76.4413C60.5653 76.5209 60.859 76.56 61.1512 76.56C63.3509 76.56 65.5054 74.4665 66.2709 71.5824C67.1567 68.2484 65.8694 64.8566 63.4556 64.1802ZM58.7436 46.2885C58.7436 50.1724 54.5472 51.5629 49.3697 51.5629C44.1922 51.5629 39.9958 50.1724 39.9958 46.2885C39.9958 42.4076 44.1922 37.502 49.3697 37.502C54.5472 37.502 58.7436 42.4076 58.7436 46.2885Z" fill="#9BB8FD" fill-opacity="0.01"/>
<path d="M52.4944 42.1893C52.4944 43.0532 51.0961 45.3139 49.3698 45.3139C47.645 45.3139 46.2451 43.0532 46.2451 42.1893C46.2451 41.3253 47.645 40.627 49.3698 40.627C51.0961 40.627 52.4944 41.3253 52.4944 42.1893Z" fill="#9BB8FD" fill-opacity="0.01"/>
<path d="M40.7771 26.0532C39.0601 27.1578 37.515 28.6139 36.3104 30.423L34.6622 28.7748C33.442 27.5546 33.442 25.5767 34.6622 24.3565C35.8824 23.1364 37.8603 23.1364 39.0804 24.3565L40.7771 26.0532Z" fill="#9BB8FD" fill-opacity="0.01"/>
<path d="M64.0776 28.7748L62.4294 30.423C61.2248 28.6139 59.6812 27.1578 57.9642 26.0517L59.6594 24.3565C60.8795 23.1364 62.8606 23.1364 64.0776 24.3565C65.2978 25.5767 65.2978 27.5546 64.0776 28.7748Z" fill="#9BB8FD" fill-opacity="0.01"/>
</g>
<path d="M45.7088 26.5661C48.1492 29.008 48.1492 32.9638 45.7088 35.4026C43.2669 37.8445 39.3111 37.8445 36.8708 35.4026L32.4525 30.9843C30.0106 28.5424 30.0106 24.5866 32.4525 22.1478C34.8929 19.7059 38.8502 19.7059 41.289 22.1478L45.7088 26.5661ZM66.2893 30.9843C68.7281 28.5424 68.7281 24.5866 66.2893 22.1478C63.8474 19.7059 59.89 19.7059 57.4497 22.1478L53.0314 26.5661C50.5911 29.008 50.5911 32.9638 53.0314 35.4026C55.4733 37.8445 59.4307 37.8445 61.8679 35.4026L66.2893 30.9843Z" fill="#4B7FFB"/>
<path d="M64.9925 65.1298C64.9925 70.5792 58.048 74.9974 49.3693 74.9974C40.6906 74.9974 33.7461 70.5792 33.7461 65.1298V60.1975C33.7461 50.3299 38.4112 43.751 44.1621 43.751H54.5781C60.3306 43.751 64.9925 50.3299 64.9925 60.196V65.1298Z" fill="#789FFC"/>
<path d="M33.7466 60.1962C33.7466 54.8218 35.1371 50.4348 37.3275 47.543C29.6784 49.6693 25.257 53.0658 24.4711 57.3887C23.9196 60.4087 25.7038 63.3459 28.4551 63.9489C28.791 64.0239 29.1269 64.0598 29.4549 64.0598C31.2141 64.0598 32.8327 63.0475 33.7482 61.4429V60.1962H33.7466ZM74.2702 57.3887C73.4827 53.0642 69.0629 49.6709 61.4138 47.543C63.6026 50.4348 64.9931 54.8218 64.9931 60.1962V61.4461C65.9086 63.049 67.5256 64.0614 69.2863 64.0614C69.6129 64.0614 69.9488 64.0255 70.2847 63.9505C73.0359 63.3474 74.8185 60.4087 74.2702 57.3887Z" fill="#4B7FFB"/>
<path d="M36.1557 60.9365C35.5839 60.9365 35.0121 61.0131 34.4419 61.1709C30.3423 62.3176 28.1082 67.3405 29.4487 72.3868C30.6064 76.7332 34.0388 79.6844 37.5884 79.6844C38.1602 79.6844 38.7336 79.6078 39.3022 79.45C43.4033 78.3049 45.6375 73.2804 44.2939 68.2341C43.1409 63.8878 39.7084 60.9365 36.1557 60.9365ZM62.5855 60.9365C59.0344 60.9365 55.6004 63.8878 54.4474 68.2341C53.1054 73.2789 55.3379 78.3033 59.439 79.45C60.0061 79.6094 60.5795 79.6844 61.1513 79.6844C64.7025 79.6844 68.1365 76.7332 69.2926 72.3868C70.6315 67.342 68.3989 62.3192 64.2978 61.1709C63.7292 61.0131 63.1558 60.9365 62.5855 60.9365Z" fill="#4B7FFB"/>
<path d="M49.3693 23.4414C42.4264 23.4414 33.7461 28.7158 33.7461 39.2599C33.7461 47.998 40.7406 51.5632 49.3693 51.5632C57.998 51.5632 64.9925 47.998 64.9925 39.2599C64.9925 28.7158 56.3138 23.4414 49.3693 23.4414Z" fill="#5A8AFB"/>
<path d="M36.1556 64.0614C35.8619 64.0614 35.5681 64.1005 35.2838 64.1802C32.8716 64.8566 31.5827 68.2485 32.4669 71.5856C33.2356 74.4665 35.3885 76.56 37.5882 76.56C37.8819 76.56 38.1757 76.5209 38.46 76.4413C40.8753 75.7663 42.1627 72.3761 41.2753 69.039C40.5098 66.1534 38.3569 64.0614 36.1556 64.0614ZM63.4556 64.1802C63.1712 64.1005 62.8775 64.0614 62.5854 64.0614C60.3856 64.0614 58.2312 66.1549 57.4656 69.0359C56.5782 72.3777 57.8656 75.7679 60.2794 76.4413C60.5653 76.5209 60.859 76.56 61.1512 76.56C63.3509 76.56 65.5054 74.4665 66.2709 71.5824C67.1567 68.2484 65.8694 64.8566 63.4556 64.1802ZM58.7436 46.2885C58.7436 50.1724 54.5472 51.5629 49.3697 51.5629C44.1922 51.5629 39.9958 50.1724 39.9958 46.2885C39.9958 42.4076 44.1922 37.502 49.3697 37.502C54.5472 37.502 58.7436 42.4076 58.7436 46.2885Z" fill="#9BB8FD"/>
<path d="M52.4944 42.1893C52.4944 43.0532 51.0961 45.3139 49.3698 45.3139C47.645 45.3139 46.2451 43.0532 46.2451 42.1893C46.2451 41.3253 47.645 40.627 49.3698 40.627C51.0961 40.627 52.4944 41.3253 52.4944 42.1893Z" fill="#4B7FFB"/>
<path d="M40.7771 26.0532C39.0601 27.1578 37.515 28.6139 36.3104 30.423L34.6622 28.7748C33.442 27.5546 33.442 25.5767 34.6622 24.3565C35.8824 23.1364 37.8603 23.1364 39.0804 24.3565L40.7771 26.0532Z" fill="#9BB8FD"/>
<path d="M64.0776 28.7748L62.4294 30.423C61.2248 28.6139 59.6812 27.1578 57.9642 26.0517L59.6594 24.3565C60.8795 23.1364 62.8606 23.1364 64.0776 24.3565C65.2978 25.5767 65.2978 27.5546 64.0776 28.7748Z" fill="#9BB8FD"/>
</g>
<defs>
<filter id="filter0_d_1203:28401" x="8.37109" y="10.3164" width="81.998" height="91.368" filterUnits="userSpaceOnUse" color-interpolation-filters="sRGB">
<feFlood flood-opacity="0" result="BackgroundImageFix"/>
<feColorMatrix in="SourceAlpha" type="matrix" values="0 0 0 0 0 0 0 0 0 0 0 0 0 0 0 0 0 0 127 0" result="hardAlpha"/>
<feOffset dy="6"/>
<feGaussianBlur stdDeviation="8"/>
<feColorMatrix type="matrix" values="0 0 0 0 0.294118 0 0 0 0 0.501961 0 0 0 0 0.984314 0 0 0 0.25 0"/>
<feBlend mode="normal" in2="BackgroundImageFix" result="effect1_dropShadow_1203:28401"/>
<feBlend mode="normal" in="SourceGraphic" in2="effect1_dropShadow_1203:28401" result="shape"/>
</filter>
<clipPath id="clip0_1203:28401">
<rect width="100" height="100" fill="white"/>
</clipPath>
</defs>
</svg>
