<svg width="35" height="31" viewBox="0 0 35 31" fill="none" xmlns="http://www.w3.org/2000/svg">
<path d="M17.5 0.125C26.8959 0.125 34.5834 6.24083 34.5834 13.7917C34.5834 21.3425 26.8959 27.4583 17.5 27.4583C15.3817 27.4583 13.3488 27.1508 11.4696 26.6042C6.48127 30.875 0.416687 30.875 0.416687 30.875C4.3971 26.8946 5.02919 24.2125 5.1146 23.1875C2.21044 20.7446 0.416687 17.4304 0.416687 13.7917C0.416687 6.24083 8.10419 0.125 17.5 0.125ZM26.0417 15.5V12.0833H22.625V15.5H26.0417ZM19.2084 15.5V12.0833H15.7917V15.5H19.2084ZM12.375 15.5V12.0833H8.95835V15.5H12.375Z" fill="#119DAD"/>
</svg>
