<svg width="61" height="61" viewBox="0 0 61 61" fill="none" xmlns="http://www.w3.org/2000/svg">
<g id="gis:arrow" clip-path="url(#clip0_1655_30941)">
<path id="gisArrow0" d="M49.6952 8.51938C49.6302 8.15809 49.4864 7.81554 49.2741 7.51609C49.0617 7.21664 48.7861 6.96764 48.4666 6.78678C48.1471 6.60593 47.7918 6.49766 47.4257 6.46967C47.0597 6.44169 46.692 6.49467 46.3488 6.62486L7.87653 19.9642C6.02195 20.6684 5.68594 23.1471 7.28656 24.3186L15.4677 30.5198L10.3066 35.4686C7.33871 38.3146 7.26698 41.6912 10.113 44.659C12.959 47.6269 16.3362 47.6974 19.3041 44.8514L24.4464 39.9201L30.2172 48.2316C31.3207 49.88 33.812 49.6486 34.5933 47.8262L49.5338 9.94605C49.7262 9.49638 49.7823 9.00063 49.6952 8.51938Z" fill="#4786D1"/>
</g>
<defs>
<clipPath id="clip0_1655_30941">
<rect width="50" height="50" fill="white" transform="translate(48.5586) rotate(76.2015)"/>
</clipPath>
</defs>
</svg>
