<svg width="115" height="96" viewBox="0 0 115 96" fill="none" xmlns="http://www.w3.org/2000/svg">
<g id="Illustration - Asset 38" clip-path="url(#clip0_1740_29950)">
<g id="Asset 38">
<g id="Clip path group">
<mask id="mask0_1740_29950" style="mask-type:luminance" maskUnits="userSpaceOnUse" x="0" y="0" width="115" height="96">
<g id="clip0_3_49762">
<path id="Vector" d="M114.693 0.12059H0.261719V95.9519H114.693V0.12059Z" fill="white"/>
</g>
</mask>
<g mask="url(#mask0_1740_29950)">
<g id="Asset 38_2">
<g id="Layer 2">
<g id="Layer 1">
<path id="Vector_2" opacity="0.4" d="M56.7192 80.5809H49.0625V85.8929H56.7192V80.5809Z" fill="#C9D2DF"/>
<path id="Vector_2_2" d="M56.7363 95.9511C56.4819 95.9511 56.2381 95.8494 56.0579 95.6687C55.8781 95.488 55.7769 95.2425 55.7769 94.9869V80.5794C55.726 80.4341 55.7106 80.2786 55.732 80.1261C55.7534 79.9733 55.8107 79.828 55.8991 79.7022C55.9878 79.5765 56.1051 79.4741 56.2414 79.4033C56.3774 79.3325 56.5288 79.2956 56.682 79.2956C56.8352 79.2956 56.9865 79.3325 57.1225 79.4033C57.2588 79.4741 57.3761 79.5765 57.4649 79.7022C57.5533 79.828 57.611 79.9733 57.6319 80.1261C57.6533 80.2786 57.6379 80.4341 57.587 80.5794V94.9869C57.5926 95.226 57.5083 95.4583 57.3502 95.6371C57.1925 95.8159 56.973 95.9281 56.7363 95.9511Z" fill="#3E3126"/>
<path id="Vector_3" d="M49.1362 95.9511C49.0111 95.9511 48.8871 95.9262 48.7717 95.8773C48.6564 95.8287 48.5518 95.7576 48.4642 95.6676C48.3765 95.578 48.3076 95.4714 48.2615 95.3544C48.2151 95.2376 48.1926 95.1127 48.1948 94.9869V80.5794C48.1443 80.4341 48.1285 80.2786 48.1499 80.1261C48.1713 79.9733 48.2286 79.828 48.3173 79.7022C48.4057 79.5765 48.523 79.4741 48.6593 79.4033C48.7957 79.3325 48.9467 79.2956 49.0999 79.2956C49.2534 79.2956 49.4044 79.3325 49.5408 79.4033C49.6767 79.4741 49.794 79.5765 49.8828 79.7022C49.9715 79.828 50.0289 79.9733 50.0502 80.1261C50.0712 80.2786 50.0558 80.4341 50.0049 80.5794V94.9869C50.006 95.2275 49.9176 95.4601 49.7569 95.6386C49.5958 95.8167 49.3744 95.9285 49.1362 95.9511Z" fill="#3E3126"/>
<path id="Vector_4" d="M6.27426 32.8661V9.76324H108.705V74.8879C108.705 76.5282 108.056 78.1015 106.902 79.2614C105.748 80.4213 104.183 81.073 102.551 81.073H15.8313C14.4501 81.0756 13.0823 80.8004 11.8085 80.2639C10.5347 79.7274 9.38053 78.9402 8.41404 77.9486C7.44756 76.957 6.6883 75.7809 6.18091 74.4896C5.67352 73.1987 5.42831 71.8185 5.45971 70.4309L6.27426 32.8661Z" fill="white"/>
<path id="Vector_5" opacity="0.4" d="M108.613 42.0883C103.591 49.597 97.0075 55.9213 89.3175 60.6249C89.216 60.3294 89.0137 60.0791 88.7467 59.9187C88.4796 59.7579 88.1645 59.6973 87.8574 59.7474C87.5498 59.7975 87.27 59.9548 87.067 60.192C86.864 60.4292 86.7508 60.7307 86.7475 61.0436C86.7587 61.3922 86.901 61.7235 87.1456 61.9712C85.6611 62.8262 84.1407 63.645 82.5842 64.3908C82.1351 63.6804 81.4717 63.1326 80.6914 62.8281C79.9108 62.5231 79.0537 62.4772 78.2449 62.6963C77.4366 62.9158 76.7188 63.3894 76.197 64.0474C75.6752 64.7055 75.3763 65.5142 75.3441 66.3552C75.3441 66.7001 75.3928 67.043 75.4887 67.3739C73.9139 67.956 72.3031 68.4653 70.692 68.9566C70.3388 68.5557 69.8994 68.2409 69.4068 68.0361C68.9146 67.8313 68.3823 67.7417 67.8504 67.7741C66.0403 67.7741 64.6828 68.6837 64.6828 69.8116C64.6873 70.0416 64.7495 70.2671 64.8637 70.4666C45.1437 74.5295 24.7196 73.4841 5.51239 67.4285V70.339C5.47129 71.7293 5.70744 73.1136 6.20681 74.4105C6.70621 75.7075 7.45881 76.8907 8.42024 77.891C9.38167 78.8913 10.5325 79.6879 11.805 80.2342C13.0775 80.7804 14.4459 81.0654 15.8296 81.0718H102.549C104.181 81.0718 105.746 80.4205 106.901 79.2606C108.055 78.1007 108.703 76.5274 108.703 74.8872L108.613 42.0883Z" fill="#C9D2DF"/>
<path id="Vector_6" opacity="0.6" d="M108.198 9.30884H7.26953V18.7683H108.198V9.30884Z" fill="#C9D2DF"/>
<path id="Vector_7" d="M102.547 81.9802H35.3582C35.1038 81.9802 34.8598 81.8786 34.6799 81.6979C34.5 81.5172 34.3989 81.2717 34.3989 81.0161C34.3989 80.7605 34.5 80.5154 34.6799 80.3343C34.8598 80.1536 35.1038 80.0519 35.3582 80.0519H102.547C103.925 80.0519 105.246 79.5019 106.221 78.5227C107.195 77.5439 107.742 76.2157 107.742 74.831V10.7253H7.212V32.864C7.26287 33.0094 7.2783 33.1649 7.25702 33.3175C7.23574 33.4701 7.17839 33.6154 7.08977 33.7411C7.00114 33.8669 6.88381 33.9694 6.74761 34.0402C6.61141 34.111 6.4603 34.1479 6.30698 34.1479C6.15366 34.1479 6.00255 34.111 5.86635 34.0402C5.73014 33.9694 5.61282 33.8669 5.52419 33.7411C5.43553 33.6154 5.37818 33.4701 5.35694 33.3175C5.33566 33.1649 5.35109 33.0094 5.40196 32.864V9.7612C5.40196 9.5055 5.50303 9.26027 5.68294 9.07945C5.86282 8.89863 6.10683 8.79706 6.36126 8.79706H108.701C108.956 8.79706 109.2 8.89863 109.38 9.07945C109.56 9.26027 109.66 9.5055 109.66 9.7612V74.8856C109.642 76.7706 108.884 78.5724 107.553 79.9002C106.221 81.2284 104.423 81.9757 102.547 81.9802Z" fill="#3E3126"/>
<path id="Vector_8" d="M25.7837 81.978H12.4075C10.5334 81.9735 8.73687 81.2254 7.40827 79.8972C6.0797 78.5687 5.32643 76.7669 5.31212 74.8834V43.7764C5.26125 43.6311 5.24582 43.4756 5.26709 43.3231C5.28833 43.1706 5.34572 43.0253 5.43435 42.8996C5.52298 42.7738 5.6403 42.6711 5.7765 42.6003C5.9127 42.5295 6.06381 42.4926 6.21714 42.4926C6.37046 42.4926 6.52157 42.5295 6.65777 42.6003C6.79397 42.6711 6.91129 42.7738 6.99992 42.8996C7.08855 43.0253 7.14594 43.1706 7.16718 43.3231C7.18845 43.4756 7.17302 43.6311 7.12215 43.7764V74.8834C7.11481 75.5814 7.24674 76.2737 7.51019 76.9193C7.77368 77.5654 8.1633 78.1515 8.65603 78.6432C9.14881 79.1353 9.73467 79.5226 10.379 79.7832C11.0234 80.0433 11.7131 80.1713 12.4075 80.1589H25.7837C26.0382 80.1589 26.2822 80.2605 26.4621 80.4412C26.642 80.6223 26.7431 80.8674 26.7431 81.123C26.7431 81.3786 26.642 81.6241 26.4621 81.8048C26.2822 81.9855 26.0382 82.0872 25.7837 82.0872V81.978Z" fill="#3E3126"/>
<path id="Vector_9" d="M33.0083 25.9721L34.4382 28.9009L37.6782 29.392L35.3433 31.6659L35.8863 34.9039L33.0083 33.3759L30.1123 34.9039L30.6553 31.6659L28.3203 29.392L31.5603 28.9009L33.0083 25.9721Z" fill="#FF9C01"/>
<path id="Vector_10" d="M45.0447 25.9721L46.4749 28.9009L49.7147 29.392L47.3799 31.6659L47.9227 34.9039L45.0447 33.3759L42.1487 34.9039L42.7098 31.6659L40.375 29.392L43.5969 28.9009L45.0447 25.9721Z" fill="#FF9C01"/>
<path id="Vector_11" d="M57.0787 25.9721L58.5085 28.9009L61.7483 29.392L59.4135 31.6659L59.9567 34.9039L57.0787 33.3759L54.1823 34.9039L54.7434 31.6659L52.3906 29.392L55.6305 28.9009L57.0787 25.9721Z" fill="#FF9C01"/>
<path id="Vector_12" d="M69.1189 25.9721L70.5671 28.9009L73.7889 29.392L71.4541 31.6659L71.9969 34.9039L69.1189 33.3759L66.2229 34.9039L66.7841 31.6659L64.4492 29.392L67.6711 28.9009L69.1189 25.9721Z" fill="#FF9C01"/>
<path id="Vector_13" d="M81.1544 25.9721L82.6026 28.9009L85.8245 29.392L83.4893 31.6659L84.0324 34.9039L81.1544 33.3759L78.2584 34.9039L78.8196 31.6659L76.4844 29.392L79.7062 28.9009L81.1544 25.9721Z" fill="#FF9C01"/>
<path id="Vector_14" d="M12.5012 28.2594H12.3382C12.2241 28.2145 12.132 28.1267 12.0812 28.0146C12.0306 27.9025 12.0253 27.7749 12.0667 27.659L14.5827 21.6741C14.6343 21.5614 14.7265 21.4725 14.8406 21.4252C14.9548 21.378 15.0825 21.3759 15.1981 21.4194C15.3101 21.4711 15.3974 21.5648 15.4414 21.6804C15.4854 21.7961 15.4826 21.9244 15.4334 22.038L12.9356 27.9683C12.9019 28.0559 12.8421 28.131 12.7643 28.1831C12.6865 28.2353 12.5946 28.2619 12.5012 28.2594Z" fill="#3E3126"/>
<path id="Vector_15" d="M15.8643 25.3689H15.6833C15.627 25.3469 15.5755 25.3138 15.5321 25.2715C15.4887 25.2292 15.4541 25.1785 15.4305 25.1226C15.4069 25.0666 15.3946 25.0065 15.3945 24.9457C15.3945 24.8849 15.4065 24.8247 15.4299 24.7686L16.7875 21.5488C16.809 21.492 16.842 21.4405 16.8845 21.3973C16.927 21.3541 16.978 21.3203 17.0342 21.298C17.0904 21.2758 17.1506 21.2655 17.211 21.268C17.2714 21.2705 17.3305 21.2855 17.3848 21.3123C17.4458 21.3337 17.5016 21.3681 17.5483 21.413C17.595 21.4579 17.6316 21.5124 17.6556 21.5727C17.6796 21.633 17.6905 21.6978 17.6875 21.7628C17.6845 21.8277 17.6677 21.8912 17.6382 21.949L16.2807 25.1688C16.2355 25.2367 16.173 25.291 16.0998 25.3262C16.0265 25.3614 15.9452 25.3762 15.8643 25.3689Z" fill="#3E3126"/>
<path id="Vector_16" d="M30.6357 82.3074C31.2156 82.3074 31.6856 81.8349 31.6856 81.2521C31.6856 80.6694 31.2156 80.1969 30.6357 80.1969C30.0559 80.1969 29.5859 80.6694 29.5859 81.2521C29.5859 81.8349 30.0559 82.3074 30.6357 82.3074Z" fill="#3E3126"/>
<path id="Vector_17" d="M6.27249 39.2309C6.85228 39.2309 7.32232 38.7584 7.32232 38.1756C7.32232 37.593 6.85228 37.1206 6.27249 37.1206C5.6927 37.1206 5.22266 37.593 5.22266 38.1756C5.22266 38.7584 5.6927 39.2309 6.27249 39.2309Z" fill="#3E3126"/>
<path id="Vector_18" d="M108.703 0.795593H6.2727C3.48363 0.795593 1.22266 3.0679 1.22266 5.87095C1.22266 8.67396 3.48363 10.9463 6.2727 10.9463H108.703C111.492 10.9463 113.753 8.67396 113.753 5.87095C113.753 3.0679 111.492 0.795593 108.703 0.795593Z" fill="#2D8DFF"/>
<path id="Vector_19" d="M112.902 6.1419C112.914 6.81793 112.788 7.48933 112.533 8.11494C112.278 8.74053 111.898 9.30719 111.417 9.78011C110.455 10.7392 109.153 11.2756 107.797 11.2718L3.52049 10.4896C2.16295 10.4896 2.36205 8.1975 1.45703 7.39709C44.4638 9.92565 98.6745 12.0722 110.675 1.93971C111.362 2.40148 111.925 3.02675 112.313 3.75989C112.702 4.49303 112.904 5.31129 112.902 6.1419Z" fill="#4786D1"/>
<path id="Vector_20" d="M95.4877 9.32488C96.3376 9.32488 97.0261 8.63259 97.0261 7.7786C97.0261 6.92465 96.3376 6.23236 95.4877 6.23236C94.6381 6.23236 93.9492 6.92465 93.9492 7.7786C93.9492 8.63259 94.6381 9.32488 95.4877 9.32488Z" fill="#4786D1"/>
<path id="Vector_21" d="M100.322 7.30806C100.612 7.30806 100.846 7.07186 100.846 6.78051C100.846 6.48916 100.612 6.25296 100.322 6.25296C100.032 6.25296 99.7969 6.48916 99.7969 6.78051C99.7969 7.07186 100.032 7.30806 100.322 7.30806Z" fill="#4786D1"/>
<path id="Vector_22" d="M90.8385 9.30896C91.2581 9.30896 91.5986 8.96689 91.5986 8.54491C91.5986 8.12296 91.2581 7.7809 90.8385 7.7809C90.4186 7.7809 90.0781 8.12296 90.0781 8.54491C90.0781 8.96689 90.4186 9.30896 90.8385 9.30896Z" fill="#4786D1"/>
<path id="Vector_23" opacity="0.45" d="M86.749 7.77608C87.0288 7.77608 87.2558 7.54802 87.2558 7.26672C87.2558 6.98542 87.0288 6.75735 86.749 6.75735C86.4688 6.75735 86.2422 6.98542 86.2422 7.26672C86.2422 7.54802 86.4688 7.77608 86.749 7.77608Z" fill="#4786D1"/>
<path id="Vector_24" opacity="0.45" d="M89.9519 6.61616C90.452 6.61616 90.8573 6.20894 90.8573 5.70661C90.8573 5.20429 90.452 4.79706 89.9519 4.79706C89.4522 4.79706 89.0469 5.20429 89.0469 5.70661C89.0469 6.20894 89.4522 6.61616 89.9519 6.61616Z" fill="#4786D1"/>
<path id="Vector_25" opacity="0.45" d="M93.1925 4.66884C93.6221 4.66884 93.9705 4.31865 93.9705 3.88665C93.9705 3.45463 93.6221 3.10442 93.1925 3.10442C92.7624 3.10442 92.4141 3.45463 92.4141 3.88665C92.4141 4.31865 92.7624 4.66884 93.1925 4.66884Z" fill="#4786D1"/>
<path id="Vector_26" opacity="0.4" d="M84.7569 60.4058C85.1465 60.4058 85.4626 60.0881 85.4626 59.6962C85.4626 59.3043 85.1465 58.9869 84.7569 58.9869C84.3669 58.9869 84.0508 59.3043 84.0508 59.6962C84.0508 60.0881 84.3669 60.4058 84.7569 60.4058Z" fill="#C9D2DF"/>
<path id="Vector_27" opacity="0.4" d="M69.8234 63.6969C70.4029 63.6969 70.873 63.2245 70.873 62.6417C70.873 62.0593 70.4029 61.5868 69.8234 61.5868C69.2436 61.5868 68.7734 62.0593 68.7734 62.6417C68.7734 63.2245 69.2436 63.6969 69.8234 63.6969Z" fill="#C9D2DF"/>
<path id="Vector_28" opacity="0.4" d="M77.3908 59.0016C77.6609 59.0016 77.8797 58.7814 77.8797 58.5103C77.8797 58.2389 77.6609 58.019 77.3908 58.019C77.1211 58.019 76.9023 58.2389 76.9023 58.5103C76.9023 58.7814 77.1211 59.0016 77.3908 59.0016Z" fill="#C9D2DF"/>
<path id="Vector_29" d="M32.4827 1.17206H4.24602C3.12638 1.17206 2.21875 2.08424 2.21875 3.20948V3.22767C2.21875 4.3529 3.12638 5.26509 4.24602 5.26509H32.4827C33.6023 5.26509 34.51 4.3529 34.51 3.22767V3.20948C34.51 2.08424 33.6023 1.17206 32.4827 1.17206Z" fill="#92BAEA"/>
<path id="Vector_30" d="M108.703 12.2758H6.27262C5.45695 12.3208 4.64067 12.1982 3.87369 11.9155C3.10674 11.6328 2.40518 11.1959 1.8119 10.6315C1.21861 10.0671 0.746056 9.38707 0.423109 8.63293C0.100157 7.87878 -0.0664062 7.06639 -0.0664062 6.24535C-0.0664062 5.42434 0.100157 4.61196 0.423109 3.85781C0.746056 3.10367 1.21861 2.42363 1.8119 1.85923C2.40518 1.29483 3.10674 0.857932 3.87369 0.575225C4.64067 0.292518 5.45695 0.169941 6.27262 0.214983H39.143C39.279 0.196103 39.4172 0.206691 39.5483 0.246035C39.6798 0.285378 39.8012 0.352563 39.9046 0.443061C40.008 0.533561 40.0907 0.645275 40.1477 0.770674C40.2046 0.896072 40.2338 1.03225 40.2338 1.17002C40.2338 1.3078 40.2046 1.44397 40.1477 1.56937C40.0907 1.69477 40.008 1.80648 39.9046 1.89698C39.8012 1.98748 39.6798 2.05466 39.5483 2.09401C39.4172 2.13335 39.279 2.14394 39.143 2.12506H6.27262C5.18773 2.12506 4.14722 2.5582 3.38007 3.32921C2.61291 4.10022 2.18193 5.14591 2.18193 6.23628C2.18193 7.32665 2.61291 8.37233 3.38007 9.14335C4.14722 9.91436 5.18773 10.3475 6.27262 10.3475H108.703C109.24 10.3475 109.772 10.2411 110.268 10.0345C110.765 9.82792 111.216 9.52509 111.596 9.14335C111.975 8.76157 112.277 8.30837 112.483 7.80955C112.688 7.31076 112.794 6.77617 112.794 6.23628C112.794 5.69638 112.688 5.16175 112.483 4.66297C112.277 4.16418 111.975 3.71097 111.596 3.32921C111.216 2.94745 110.765 2.64461 110.268 2.43801C109.772 2.2314 109.24 2.12506 108.703 2.12506H47.3245C47.081 2.11565 46.851 2.01185 46.6821 1.83546C46.5135 1.65907 46.4191 1.42382 46.4195 1.17912C46.4146 0.931287 46.5068 0.691415 46.6757 0.511108C46.845 0.330801 47.078 0.224467 47.3245 0.214983H108.703C110.238 0.299712 111.681 0.971987 112.738 2.09361C113.794 3.21522 114.383 4.70095 114.383 6.24535C114.383 7.78978 113.794 9.27552 112.738 10.3971C111.681 11.5188 110.238 12.191 108.703 12.2758Z" fill="#3E3126"/>
<path id="Vector_31" d="M43.2527 2.23077C43.8326 2.23077 44.3027 1.75839 44.3027 1.17568C44.3027 0.59297 43.8326 0.12059 43.2527 0.12059C42.6729 0.12059 42.2031 0.59297 42.2031 1.17568C42.2031 1.75839 42.6729 2.23077 43.2527 2.23077Z" fill="#3E3126"/>
<path id="Vector_32" d="M90.9088 37.4492C90.8361 37.4516 90.7635 37.4393 90.6957 37.413C90.6275 37.3866 90.5657 37.3468 90.5132 37.2959C90.4608 37.245 90.4192 37.184 90.3907 37.1165C90.3623 37.0491 90.3477 36.9766 90.3477 36.9034V12.1816C90.3477 12.032 90.4068 11.8886 90.5121 11.7828C90.6174 11.6771 90.7601 11.6177 90.9088 11.6177C91.0579 11.6177 91.2006 11.6771 91.3059 11.7828C91.4108 11.8886 91.4699 12.032 91.4699 12.1816V36.9034C91.4699 36.9766 91.4553 37.0491 91.4272 37.1165C91.3988 37.184 91.3572 37.245 91.3047 37.2959C91.2523 37.3468 91.1901 37.3866 91.1223 37.413C91.0541 37.4393 90.9818 37.4516 90.9088 37.4492Z" fill="#3E3126"/>
<path id="Vector_33" d="M90.9107 47.5603C89.8367 47.5603 88.7868 47.2403 87.8937 46.6406C87.0007 46.0409 86.3047 45.1885 85.8938 44.1913C85.4828 43.1944 85.3753 42.0969 85.5847 41.0383C85.7945 39.9797 86.3114 39.0073 87.0707 38.2441C87.8304 37.4808 88.798 36.961 89.8513 36.7505C90.9047 36.5399 91.9963 36.6479 92.9886 37.061C93.9809 37.4741 94.8289 38.1734 95.4257 39.0709C96.0224 39.9684 96.3408 41.0236 96.3408 42.103C96.3408 43.5505 95.7688 44.9385 94.7503 45.9618C93.7321 46.9854 92.3506 47.5603 90.9107 47.5603ZM90.9107 37.737C90.0506 37.737 89.21 37.9934 88.4953 38.4742C87.7806 38.9545 87.2236 39.6375 86.8954 40.4363C86.5673 41.2352 86.4823 42.1139 86.6512 42.9613C86.8205 43.8088 87.2359 44.5865 87.8454 45.1964C88.4545 45.8063 89.2303 46.2208 90.0742 46.3872C90.9182 46.5536 91.7921 46.4644 92.5855 46.1312C93.3789 45.798 94.0561 45.2356 94.5315 44.5154C95.0065 43.7948 95.2582 42.9489 95.2548 42.0849C95.2548 41.5123 95.1421 40.9453 94.9237 40.4168C94.7053 39.8882 94.385 39.4078 93.9812 39.0039C93.5778 38.5999 93.0987 38.2803 92.5716 38.0627C92.0446 37.8455 91.4801 37.7348 90.9107 37.737Z" fill="#3E3126"/>
<path id="Vector_34" d="M79.923 41.3075H45.0615C44.7817 41.3075 44.5547 41.5352 44.5547 41.8168V43.6175C44.5547 43.8991 44.7817 44.1269 45.0615 44.1269H79.923C80.2028 44.1269 80.4298 43.8991 80.4298 43.6175V41.8168C80.4298 41.5352 80.2028 41.3075 79.923 41.3075Z" fill="#C9D2DF"/>
<path id="Vector_35" d="M79.923 47.709H45.0615C44.7817 47.709 44.5547 47.9368 44.5547 48.2184V50.019C44.5547 50.3002 44.7817 50.5284 45.0615 50.5284H79.923C80.2028 50.5284 80.4298 50.3002 80.4298 50.019V48.2184C80.4298 47.9368 80.2028 47.709 79.923 47.709Z" fill="#C9D2DF"/>
<path id="Vector_36" d="M79.923 54.0969H45.0615C44.7817 54.0969 44.5547 54.3251 44.5547 54.6063V56.4073C44.5547 56.6886 44.7817 56.9167 45.0615 56.9167H79.923C80.2028 56.9167 80.4298 56.6886 80.4298 56.4073V54.6063C80.4298 54.3251 80.2028 54.0969 79.923 54.0969Z" fill="#C9D2DF"/>
<path id="Vector_37" d="M37.6426 50.4407C37.4759 50.0634 37.2359 49.7231 36.9368 49.44C36.6556 49.1682 36.3389 48.9355 35.9956 48.7488C35.6627 48.5681 35.318 48.41 34.9639 48.276L33.6426 47.7301C33.2737 47.5829 32.936 47.3668 32.647 47.0935C32.5227 46.9741 32.4246 46.8299 32.3592 46.6699C32.2937 46.5103 32.2623 46.3386 32.2669 46.1658C32.2611 45.9019 32.3169 45.6399 32.4298 45.4016C32.5639 45.1897 32.7599 45.0244 32.9909 44.9288C33.2963 44.809 33.6227 44.7533 33.9502 44.765C34.2935 44.7548 34.6325 44.8433 34.9277 45.0195C35.2097 45.1878 35.4558 45.4103 35.6517 45.6745C35.8637 45.9614 36.0513 46.2656 36.2128 46.5841L37.7693 45.62C37.564 45.1825 37.2957 44.7782 36.973 44.4194C36.613 44.0324 36.183 43.7173 35.706 43.4918C35.3907 43.3408 35.0554 43.2365 34.7105 43.1823V41.3632H33.1357V43.1823C32.728 43.2456 32.3316 43.3679 31.9592 43.5464C31.4334 43.7741 30.9818 44.1461 30.656 44.6193C30.3338 45.0489 30.1619 45.5733 30.1672 46.1113C30.1542 46.6022 30.2598 47.0889 30.475 47.5302C30.6612 47.91 30.9194 48.25 31.2352 48.5304C31.5377 48.7959 31.8721 49.0221 32.2307 49.2036C32.5412 49.3636 32.8616 49.5033 33.19 49.6222C33.6426 49.7856 34.0588 49.9678 34.4571 50.1497C34.8136 50.3311 35.1378 50.5709 35.4164 50.8589C35.6766 51.1465 35.8132 51.5257 35.7965 51.9142C35.8036 52.2172 35.7351 52.5177 35.5974 52.7872C35.4655 53.0255 35.263 53.216 35.0182 53.3331C34.7035 53.466 34.3637 53.5281 34.0227 53.5149C33.6001 53.5251 33.1823 53.4246 32.8099 53.2239C32.4374 53.0202 32.1108 52.7416 31.8506 52.4055C31.5314 51.9876 31.2583 51.5362 31.0361 51.0592L29.5156 52.0595C29.7634 52.6502 30.1126 53.1919 30.5474 53.6606C30.9745 54.1263 31.4839 54.5088 32.0497 54.7885C32.3939 54.9331 32.7517 55.0426 33.1176 55.1157V56.9348H34.6562V55.1157C35.1434 55.0728 35.6204 54.95 36.068 54.752C36.6233 54.4945 37.0896 54.0766 37.4074 53.5514C37.7322 53.0018 37.8951 52.3712 37.8779 51.7323C37.8884 51.29 37.8082 50.8506 37.6426 50.4407Z" fill="#42CAF8"/>
</g>
</g>
</g>
</g>
</g>
</g>
</g>
<defs>
<clipPath id="clip0_1740_29950">
<rect width="115" height="96" fill="white"/>
</clipPath>
</defs>
</svg>
