<svg width="170" height="91" viewBox="0 0 170 91" fill="none" xmlns="http://www.w3.org/2000/svg">
<g id="Illustration - Asset 6" clip-path="url(#clip0_1740_29879)">
<g id="Asset 6">
<g id="Clip path group">
<mask id="mask0_1740_29879" style="mask-type:luminance" maskUnits="userSpaceOnUse" x="0" y="0" width="170" height="91">
<g id="clip0_3_49730">
<path id="Vector" d="M170 0H0V91H170V0Z" fill="white"/>
</g>
</mask>
<g mask="url(#mask0_1740_29879)">
<g id="Asset 6_2">
<g id="Layer 2">
<g id="Layer 1">
<g id="Group" opacity="0.3">
<path id="Vector_2" opacity="0.3" d="M38.1648 31.4604V82.4807C38.1648 82.9893 38.0641 83.4928 37.8682 83.9623C37.6725 84.4319 37.3856 84.8582 37.0241 85.2164C36.6625 85.5747 36.2335 85.8581 35.7618 86.0501C35.2901 86.2422 34.785 86.3392 34.2756 86.3355H27.6094C28.908 86.3355 30.1534 85.8205 31.0717 84.9038C31.99 83.9871 32.5058 82.7437 32.5058 81.4472C32.5058 80.1507 31.99 78.9074 31.0717 77.9906C30.1534 77.0738 28.908 76.5588 27.6094 76.5588H4.89652C3.59788 76.5588 2.35243 76.0439 1.43415 75.1271C0.515882 74.2103 0 72.967 0 71.6706C0 70.374 0.515882 69.1307 1.43415 68.2139C2.35243 67.2972 3.59788 66.7822 4.89652 66.7822H17.3056C18.6043 66.7822 19.8498 66.2672 20.768 65.3504C21.6863 64.4336 22.2022 63.1903 22.2022 61.8939C22.2022 60.5973 21.6863 59.354 20.768 58.4373C19.8498 57.5205 18.6043 57.0055 17.3056 57.0055H4.89652C3.59788 57.0055 2.35243 56.4905 1.43415 55.5737C0.515882 54.6569 0 53.4136 0 52.1171C0 50.8207 0.515882 49.5773 1.43415 48.6606C2.35243 47.7438 3.59788 47.2288 4.89652 47.2288H20.8801C22.1788 47.2288 23.4243 46.7138 24.3425 45.797C25.2608 44.8803 25.7767 43.637 25.7767 42.3404C25.7767 41.044 25.2608 39.8007 24.3425 38.8839C23.4243 37.9671 22.1788 37.4521 20.8801 37.4521H11.6328C10.3341 37.4521 9.08864 36.9371 8.17036 36.0204C7.25209 35.1036 6.73621 33.8603 6.73621 32.5637C6.73621 31.2673 7.25209 30.024 8.17036 29.1072C9.08864 28.1904 10.3341 27.6754 11.6328 27.6754H34.2756C35.2926 27.6679 36.2713 28.0611 36.9996 28.7699C37.7277 29.4785 38.1465 30.4453 38.1648 31.4604Z" fill="#BDD6F4"/>
<path id="Vector_2_2" opacity="0.3" d="M131.836 10.4754V61.5166C131.836 62.0235 131.936 62.5253 132.131 62.9935C132.325 63.4616 132.61 63.8869 132.97 64.245C133.328 64.6029 133.754 64.8867 134.224 65.08C134.693 65.2734 135.197 65.3724 135.704 65.3714H142.391C141.092 65.3714 139.847 64.8564 138.929 63.9397C138.01 63.023 137.495 61.7796 137.495 60.4832C137.495 59.1866 138.01 57.9433 138.929 57.0265C139.847 56.1098 141.092 55.5948 142.391 55.5948H165.083C166.382 55.5948 167.627 55.0798 168.546 54.163C169.464 53.2463 169.979 52.0029 169.979 50.7065C169.979 49.4099 169.464 48.1666 168.546 47.2499C167.627 46.3331 166.382 45.8181 165.083 45.8181H152.695C151.396 45.8181 150.151 45.3031 149.233 44.3863C148.314 43.4696 147.799 42.2262 147.799 40.9298C147.799 39.6333 148.314 38.3899 149.233 37.4732C150.151 36.5564 151.396 36.0414 152.695 36.0414H165.083C166.382 36.0414 167.627 35.5264 168.546 34.6096C169.464 33.6929 169.979 32.4496 169.979 31.1531C169.979 29.8566 169.464 28.6133 168.546 27.6965C167.627 26.7797 166.382 26.2647 165.083 26.2647H149.114C147.815 26.2647 146.57 25.7497 145.651 24.833C144.733 23.9162 144.217 22.6729 144.217 21.3763C144.217 20.0799 144.733 18.8366 145.651 17.9198C146.57 17.003 147.815 16.488 149.114 16.488H158.368C159.667 16.488 160.912 15.9731 161.83 15.0563C162.749 14.1395 163.264 12.8962 163.264 11.5997C163.264 10.3032 162.749 9.05986 161.83 8.14312C160.912 7.22638 159.667 6.71136 158.368 6.71136H135.704C134.694 6.70925 133.724 7.10209 133 7.80568C132.278 8.50926 131.859 9.46762 131.836 10.4754Z" fill="#BDD6F4"/>
</g>
<path id="Vector_3" d="M134.031 83.5277C134.032 84.4796 133.846 85.4223 133.481 86.3022C133.117 87.182 132.583 87.9816 131.909 88.6554C131.236 89.3291 130.436 89.8638 129.556 90.2289C128.675 90.5941 127.731 90.7825 126.777 90.7834H31.4141C30.6631 90.7834 29.9193 90.6356 29.2255 90.3484C28.5317 90.0612 27.9014 89.6404 27.3706 89.1099C26.8398 88.5793 26.419 87.9495 26.1322 87.2565C25.8455 86.5636 25.6983 85.8208 25.6992 85.071V9.54612C25.6992 8.03296 26.3014 6.58176 27.3731 5.5118C28.4449 4.44183 29.8984 3.84073 31.4141 3.84073H103.127C101.241 3.89918 99.4524 4.68814 98.1392 6.04049C96.826 7.39286 96.0916 9.20243 96.0916 11.0859C96.0916 12.9695 96.826 14.779 98.1392 16.1315C99.4524 17.4838 101.241 18.2727 103.127 18.3312H116.816C118.703 18.3896 120.491 19.1786 121.805 20.531C123.118 21.8833 123.851 23.6929 123.851 25.5764C123.851 27.4599 123.118 29.2695 121.805 30.6218C120.491 31.9742 118.703 32.7632 116.816 32.8216H93.1662C92.2137 32.8216 91.2703 33.0089 90.3903 33.3729C89.5102 33.7368 88.7106 34.2702 88.0369 34.9426C87.3634 35.6151 86.8291 36.4134 86.4645 37.292C86.1 38.1707 85.9124 39.1123 85.9124 40.0634C85.9124 41.0143 86.1 41.956 86.4645 42.8347C86.8291 43.7132 87.3634 44.5116 88.0369 45.184C88.7106 45.8565 89.5102 46.3899 90.3903 46.7538C91.2703 47.1178 92.2137 47.3051 93.1662 47.3051H111.521C113.406 47.3635 115.195 48.1524 116.509 49.5049C117.822 50.8573 118.556 52.6668 118.556 54.5503C118.556 56.4339 117.822 58.2434 116.509 59.5958C115.195 60.9481 113.406 61.7371 111.521 61.7956H93.1662C92.1943 61.7654 91.226 61.9305 90.3192 62.281C89.4123 62.6316 88.5852 63.1605 87.887 63.8362C87.1887 64.5119 86.6336 65.3209 86.2545 66.2149C85.8754 67.1089 85.6801 68.0699 85.6801 69.0408C85.6801 70.0116 85.8754 70.9726 86.2545 71.8666C86.6336 72.7607 87.1887 73.5695 87.887 74.2453C88.5852 74.9211 89.4123 75.4499 90.3192 75.8005C91.226 76.151 92.1943 76.3161 93.1662 76.2859H126.777C128.701 76.2859 130.546 77.049 131.907 78.407C133.267 79.7651 134.031 81.6071 134.031 83.5277Z" fill="#E0F0F5"/>
<path id="Vector_4" d="M55.4697 29.5677C55.4659 33.2048 54.6466 36.795 53.0722 40.075C51.4977 43.3549 49.2078 46.2416 46.3704 48.523C43.5331 50.8046 40.2202 52.4231 36.6748 53.2601C33.1293 54.0971 29.4411 54.1311 25.8807 53.36L25.6709 53.3111V49.2049C20.7393 48.958 16.0015 47.2108 12.0935 44.1979L11.8907 44.0512C11.5619 43.8068 11.2331 43.5554 10.9184 43.29L10.8275 43.1643C8.3581 39.4988 6.93401 35.2317 6.70771 30.8201C6.48141 26.4085 7.4614 22.0185 9.54276 18.1203C11.6241 14.2221 14.7285 10.9627 18.5232 8.69085C22.318 6.41904 26.6603 5.22056 31.085 5.22375H31.3858C32.352 5.23694 33.3167 5.30689 34.2747 5.43325C38.8306 6.03047 43.1235 7.90461 46.6559 10.8383C46.8378 10.978 47.0126 11.1316 47.1805 11.2853C49.7587 13.5444 51.8301 16.3215 53.2593 19.4349C53.3992 19.7352 53.532 20.0424 53.6509 20.3497C54.8546 23.2742 55.4725 26.4059 55.4697 29.5677Z" fill="#BDD6F4"/>
<path id="Vector_5" d="M65.6415 71.7678L61.4096 64.4493L57.8351 70.6295L55.5408 66.663L48.3569 54.2466L41.18 66.663L33.9961 79.0794H48.3569H52.9456L52.9386 79.0864H61.4096H69.8735L65.6415 71.7678Z" fill="#4786D1"/>
<path id="Vector_6" d="M142.397 9.54657V85.0645C142.398 85.8149 142.252 86.5584 141.966 87.2522C141.679 87.946 141.258 88.5765 140.728 89.1078C140.197 89.6391 139.567 90.0606 138.872 90.3482C138.178 90.6358 137.433 90.7838 136.682 90.7838H126.777C128.663 90.7254 130.452 89.9365 131.765 88.5841C133.078 87.2318 133.812 85.4221 133.812 83.5386C133.812 81.6552 133.078 79.8455 131.765 78.4932C130.452 77.1408 128.663 76.3519 126.777 76.2934H93.1658C92.1939 76.3235 91.2257 76.1584 90.3188 75.8079C89.4119 75.4573 88.5849 74.9285 87.8866 74.2527C87.1884 73.577 86.6333 72.7681 86.2542 71.874C85.875 70.98 85.6797 70.019 85.6797 69.0482C85.6797 68.0773 85.875 67.1164 86.2542 66.2223C86.6333 65.3283 87.1884 64.5194 87.8866 63.8436C88.5849 63.1679 89.4119 62.639 90.3188 62.2884C91.2257 61.938 92.1939 61.7728 93.1658 61.803H111.521C113.406 61.7445 115.195 60.9555 116.509 59.6032C117.822 58.2508 118.556 56.4413 118.556 54.5578C118.556 52.6742 117.822 50.8647 116.509 49.5123C115.195 48.16 113.406 47.371 111.521 47.3125H93.1658C92.2133 47.3125 91.27 47.1252 90.3899 46.7613C89.5098 46.3973 88.7102 45.8639 88.0366 45.1915C87.363 44.519 86.8287 43.7206 86.4641 42.8421C86.0996 41.9635 85.912 41.0217 85.912 40.0708C85.912 39.1197 86.0996 38.1781 86.4641 37.2995C86.8287 36.4208 87.363 35.6226 88.0366 34.9501C88.7102 34.2777 89.5098 33.7442 90.3899 33.3803C91.27 33.0164 92.2133 32.8291 93.1658 32.8291H116.816C118.702 32.7706 120.49 31.9816 121.804 30.6293C123.117 29.2769 123.851 27.4674 123.851 25.5838C123.851 23.7003 123.117 21.8907 121.804 20.5384C120.49 19.186 118.702 18.397 116.816 18.3386H103.127C101.241 18.2801 99.4521 17.4912 98.1389 16.1389C96.8257 14.7864 96.0913 12.9769 96.0913 11.0934C96.0913 9.20986 96.8257 7.40029 98.1389 6.04793C99.4521 4.69557 101.241 3.90661 103.127 3.84816H136.702C138.214 3.85369 139.661 4.45628 140.728 5.52415C141.795 6.592 142.395 8.03823 142.397 9.54657Z" fill="#BDD6F4"/>
<path id="Vector_7" d="M53.8047 3.68738H67.3331C67.3331 4.09484 67.1709 4.48561 66.8824 4.77373C66.5938 5.06185 66.2024 5.22371 65.7942 5.22371H55.3436C54.9355 5.22371 54.5441 5.06185 54.2555 4.77373C53.9668 4.48561 53.8047 4.09484 53.8047 3.68738Z" fill="white"/>
<path id="Vector_8" d="M53.8047 13.2685H67.3331C67.3331 13.6759 67.1709 14.0667 66.8824 14.3548C66.5938 14.643 66.2024 14.8049 65.7942 14.8049H55.3436C54.9355 14.8049 54.5441 14.643 54.2555 14.3548C53.9668 14.0667 53.8047 13.6759 53.8047 13.2685Z" fill="white"/>
<path id="Vector_9" opacity="0.7" d="M68.8398 13.2685H82.3612C82.3612 13.6759 82.199 14.0667 81.9104 14.3548C81.6219 14.643 81.2304 14.8049 80.8222 14.8049H70.3788C69.9706 14.8049 69.5791 14.643 69.2906 14.3548C69.0019 14.0667 68.8398 13.6759 68.8398 13.2685Z" fill="white"/>
<path id="Vector_10" d="M38.1641 3.68738H51.6855C51.6855 4.09484 51.5233 4.48561 51.2348 4.77373C50.9461 5.06185 50.5547 5.22371 50.1466 5.22371H39.703C39.2948 5.22371 38.9035 5.06185 38.6148 4.77373C38.3262 4.48561 38.1641 4.09484 38.1641 3.68738Z" fill="white"/>
<path id="Vector_11" d="M17.5384 25.6082L14.3415 23.9391L10.7461 24.2604L12.411 21.0691L12.0892 17.4795L15.2929 19.1416L18.8884 18.8204L17.2166 22.0187L17.5384 25.6082Z" fill="#EEF0F1"/>
<path id="Vector_12" d="M15.2141 32.1446C15.8824 32.1446 16.4242 31.6037 16.4242 30.9365C16.4242 30.2693 15.8824 29.7283 15.2141 29.7283C14.5457 29.7283 14.0039 30.2693 14.0039 30.9365C14.0039 31.6037 14.5457 32.1446 15.2141 32.1446Z" fill="#EEF0F1"/>
<path id="Vector_13" d="M79.3323 4.07137H73.4495C73.2639 4.07137 73.0861 3.9978 72.9549 3.86683C72.8237 3.73587 72.75 3.55824 72.75 3.37304C72.75 3.18783 72.8237 3.0102 72.9549 2.87924C73.0861 2.74828 73.2639 2.6747 73.4495 2.6747H79.3113C79.4968 2.6747 79.6747 2.74828 79.8059 2.87924C79.9371 3.0102 80.0108 3.18783 80.0108 3.37304C80.0108 3.55824 79.9371 3.73587 79.8059 3.86683C79.6747 3.9978 79.4968 4.07137 79.3113 4.07137H79.3323Z" fill="#183154"/>
<path id="Vector_14" d="M74.4705 91.0001H31.5771C29.8801 90.9927 28.2549 90.315 27.057 89.115C25.8589 87.9151 25.1854 86.2906 25.1836 84.5964V9.07843C25.1855 7.38063 25.8619 5.75289 27.0644 4.55236C28.2669 3.35182 29.8974 2.67655 31.598 2.6747H67.9022C68.0878 2.6747 68.2656 2.74828 68.3968 2.87924C68.528 3.0102 68.6017 3.18783 68.6017 3.37304C68.6017 3.55824 68.528 3.73587 68.3968 3.86683C68.2656 3.9978 68.0878 4.07137 67.9022 4.07137H31.5771C30.2511 4.07874 28.9818 4.6093 28.0462 5.54731C27.1105 6.48532 26.5844 7.75466 26.5826 9.07843V84.5964C26.5844 85.9237 27.1135 87.1962 28.0537 88.1349C28.9938 89.0735 30.2684 89.6016 31.598 89.6034H74.4915C74.677 89.6034 74.855 89.677 74.9862 89.8079C75.1174 89.9389 75.1911 90.1166 75.1911 90.3017C75.1911 90.4869 75.1174 90.6646 74.9862 90.7956C74.855 90.9265 74.677 91.0001 74.4915 91.0001H74.4705Z" fill="#183154"/>
<path id="Vector_15" d="M86.1167 91H78.4222C78.2367 91 78.0587 90.9265 77.9275 90.7955C77.7964 90.6645 77.7227 90.4869 77.7227 90.3016C77.7227 90.1165 77.7964 89.9388 77.9275 89.8079C78.0587 89.6769 78.2367 89.6034 78.4222 89.6034H86.1167C86.3022 89.6034 86.4801 89.6769 86.6113 89.8079C86.7425 89.9388 86.8162 90.1165 86.8162 90.3016C86.8162 90.4869 86.7425 90.6645 86.6113 90.7955C86.4801 90.9265 86.3022 91 86.1167 91Z" fill="#183154"/>
<path id="Vector_16" d="M89.6402 91H89.0667C88.8811 91 88.7033 90.9265 88.5721 90.7955C88.4409 90.6645 88.3672 90.4869 88.3672 90.3016C88.3672 90.1165 88.4409 89.9388 88.5721 89.8079C88.7033 89.6769 88.8811 89.6034 89.0667 89.6034H89.6402C89.8258 89.6034 90.0037 89.6769 90.1348 89.8079C90.266 89.9388 90.3397 90.1165 90.3397 90.3016C90.3397 90.4869 90.266 90.6645 90.1348 90.7955C90.0037 90.9265 89.8258 91 89.6402 91Z" fill="#183154"/>
<path id="Vector_17" d="M136.844 91.0002H92.9651C92.7797 91.0002 92.6017 90.9267 92.4705 90.7957C92.3393 90.6647 92.2656 90.4871 92.2656 90.3018C92.2656 90.1167 92.3393 89.939 92.4705 89.8081C92.6017 89.6771 92.7797 89.6036 92.9651 89.6036H136.844C138.175 89.6036 139.451 89.076 140.392 88.137C141.331 87.198 141.861 85.9244 141.861 84.5965V44.533C141.861 44.3478 141.934 44.1701 142.065 44.0392C142.197 43.9082 142.374 43.8347 142.56 43.8347C142.745 43.8347 142.923 43.9082 143.055 44.0392C143.185 44.1701 143.259 44.3478 143.259 44.533V84.5965C143.257 86.2942 142.581 87.922 141.378 89.1226C140.176 90.3231 138.545 90.9983 136.844 91.0002Z" fill="#183154"/>
<path id="Vector_18" d="M142.558 41.4743C142.373 41.4743 142.196 41.4008 142.064 41.2698C141.933 41.1388 141.859 40.9612 141.859 40.7759V39.6726C141.859 39.4873 141.933 39.3098 142.064 39.1788C142.196 39.0478 142.373 38.9742 142.558 38.9742C142.744 38.9742 142.922 39.0478 143.054 39.1788C143.184 39.3098 143.258 39.4873 143.258 39.6726V40.7759C143.258 40.9612 143.184 41.1388 143.054 41.2698C142.922 41.4008 142.744 41.4743 142.558 41.4743Z" fill="#183154"/>
<path id="Vector_19" d="M142.558 36.7045C142.373 36.7045 142.196 36.6309 142.064 36.5C141.933 36.369 141.859 36.1913 141.859 36.0062V30.1262C141.859 29.941 141.933 29.7634 142.064 29.6324C142.196 29.5015 142.373 29.4278 142.558 29.4278C142.744 29.4278 142.922 29.5015 143.054 29.6324C143.184 29.7634 143.258 29.941 143.258 30.1262V36.0062C143.258 36.1913 143.184 36.369 143.054 36.5C142.922 36.6309 142.744 36.7045 142.558 36.7045Z" fill="#183154"/>
<path id="Vector_20" d="M142.557 25.3776C142.372 25.3776 142.194 25.304 142.063 25.173C141.931 25.042 141.858 24.8645 141.858 24.6792V9.07843C141.858 7.75048 141.329 6.47691 140.389 5.53791C139.449 4.5989 138.173 4.07137 136.842 4.07137H87.2269C87.0414 4.07137 86.8634 3.9978 86.7322 3.86683C86.6011 3.73587 86.5273 3.55824 86.5273 3.37304C86.5273 3.18783 86.6011 3.0102 86.7322 2.87924C86.8634 2.74828 87.0414 2.6747 87.2269 2.6747H136.842C138.543 2.67655 140.174 3.35182 141.376 4.55236C142.578 5.75289 143.255 7.38063 143.257 9.07843V24.6792C143.257 24.8645 143.183 25.042 143.052 25.173C142.921 25.304 142.743 25.3776 142.557 25.3776Z" fill="#183154"/>
<path id="Vector_21" d="M83.2412 4.07137H82.3948C82.2093 4.07137 82.0314 3.9978 81.9002 3.86683C81.769 3.73587 81.6953 3.55824 81.6953 3.37304C81.6953 3.18783 81.769 3.0102 81.9002 2.87924C82.0314 2.74828 82.2093 2.6747 82.3948 2.6747H83.2412C83.4267 2.6747 83.6047 2.74828 83.7358 2.87924C83.867 3.0102 83.9407 3.18783 83.9407 3.37304C83.9407 3.55824 83.867 3.73587 83.7358 3.86683C83.6047 3.9978 83.4267 4.07137 83.2412 4.07137Z" fill="#183154"/>
<path id="Vector_22" d="M50.358 9.8744C51.1769 9.8744 51.8409 9.21157 51.8409 8.39393C51.8409 7.57628 51.1769 6.91345 50.358 6.91345C49.539 6.91345 48.875 7.57628 48.875 8.39393C48.875 9.21157 49.539 9.8744 50.358 9.8744Z" fill="#3D7ECA"/>
<path id="Vector_23" d="M54.6235 9.8744C55.4426 9.8744 56.1065 9.21157 56.1065 8.39393C56.1065 7.57628 55.4426 6.91345 54.6235 6.91345C53.8045 6.91345 53.1406 7.57628 53.1406 8.39393C53.1406 9.21157 53.8045 9.8744 54.6235 9.8744Z" fill="#3D7ECA"/>
<path id="Vector_24" d="M59.0884 9.8744C59.9074 9.8744 60.5713 9.21157 60.5713 8.39393C60.5713 7.57628 59.9074 6.91345 59.0884 6.91345C58.2694 6.91345 57.6055 7.57628 57.6055 8.39393C57.6055 9.21157 58.2694 9.8744 59.0884 9.8744Z" fill="#3D7ECA"/>
<path id="Vector_25" d="M50.4538 10.2169C50.0916 10.2169 49.7376 10.1097 49.4364 9.90899C49.1351 9.70825 48.9002 9.42292 48.7613 9.089C48.6223 8.75508 48.5856 8.38756 48.6558 8.03284C48.7259 7.67812 48.8999 7.35209 49.1554 7.09594C49.411 6.83979 49.7369 6.66498 50.092 6.5936C50.447 6.52222 50.8153 6.55745 51.1503 6.69486C51.4853 6.83227 51.772 7.0657 51.9742 7.36566C52.1764 7.66562 52.2851 8.01867 52.2865 8.38024C52.2875 8.6211 52.2407 8.85976 52.149 9.08255C52.0573 9.30535 51.9224 9.50786 51.7522 9.67851C51.5819 9.84914 51.3796 9.98453 51.1567 10.0769C50.9339 10.1693 50.6951 10.2169 50.4538 10.2169ZM50.4538 7.2629C50.2291 7.26292 50.0095 7.32964 49.8228 7.45457C49.6362 7.57951 49.4909 7.75703 49.4056 7.96457C49.3202 8.1721 49.2986 8.40028 49.3435 8.62011C49.3883 8.83992 49.4977 9.04147 49.6576 9.19911C49.8174 9.35676 50.0207 9.46339 50.2414 9.50545C50.4621 9.54751 50.6904 9.5231 50.8972 9.43533C51.104 9.34757 51.2801 9.20039 51.4029 9.01252C51.5257 8.82464 51.5897 8.60456 51.587 8.38024C51.5815 8.08319 51.4599 7.80007 51.2482 7.5913C51.0365 7.38253 50.7514 7.26468 50.4538 7.2629Z" fill="#183154"/>
<path id="Vector_26" d="M54.7233 10.2169C54.3611 10.2169 54.007 10.1097 53.7058 9.90899C53.4045 9.70825 53.1696 9.42292 53.0308 9.089C52.8919 8.75508 52.8552 8.38756 52.9253 8.03284C52.9955 7.67812 53.1693 7.35209 53.4249 7.09594C53.6805 6.83979 54.0064 6.66498 54.3614 6.5936C54.7165 6.52222 55.0848 6.55745 55.4198 6.69486C55.7547 6.83227 56.0415 7.0657 56.2437 7.36566C56.446 7.66562 56.5546 8.01867 56.556 8.38024C56.5569 8.6211 56.5101 8.85976 56.4185 9.08255C56.3268 9.30535 56.192 9.50786 56.0217 9.67851C55.8514 9.84914 55.649 9.98453 55.4262 10.0769C55.2034 10.1693 54.9646 10.2169 54.7233 10.2169ZM54.7233 7.2629C54.4986 7.26292 54.2789 7.32964 54.0923 7.45457C53.9056 7.57951 53.7605 7.75703 53.6751 7.96457C53.5897 8.1721 53.5681 8.40028 53.613 8.62011C53.6579 8.83992 53.7672 9.04147 53.9271 9.19911C54.087 9.35676 54.2902 9.46339 54.5109 9.50545C54.7317 9.54751 54.9599 9.5231 55.1667 9.43533C55.3735 9.34757 55.5495 9.20039 55.6723 9.01252C55.7951 8.82464 55.8592 8.60456 55.8564 8.38024C55.851 8.08319 55.7294 7.80007 55.5177 7.5913C55.3059 7.38253 55.0209 7.26468 54.7233 7.2629Z" fill="#183154"/>
<path id="Vector_27" d="M59.1842 10.2169C58.8221 10.2169 58.468 10.1097 58.1668 9.90899C57.8656 9.70825 57.6307 9.42292 57.4918 9.089C57.3528 8.75508 57.3161 8.38756 57.3862 8.03284C57.4564 7.67812 57.6303 7.35209 57.8858 7.09594C58.1414 6.83979 58.4673 6.66498 58.8224 6.5936C59.1774 6.52222 59.5458 6.55745 59.8808 6.69486C60.2158 6.83227 60.5024 7.0657 60.7047 7.36566C60.9069 7.66562 61.0155 8.01867 61.0169 8.38024C61.0188 8.62135 60.9727 8.86044 60.8814 9.08365C60.7899 9.30686 60.6552 9.50975 60.4847 9.68057C60.3142 9.8514 60.1115 9.98676 59.8883 10.0788C59.6651 10.1709 59.4257 10.2178 59.1842 10.2169ZM59.1842 7.2629C58.9595 7.26292 58.7399 7.32964 58.5532 7.45457C58.3666 7.57951 58.2214 7.75703 58.136 7.96457C58.0506 8.1721 58.0291 8.40028 58.074 8.62011C58.1188 8.83992 58.2282 9.04147 58.388 9.19911C58.5479 9.35676 58.7511 9.46339 58.9718 9.50545C59.1926 9.54751 59.4208 9.5231 59.6276 9.43533C59.8344 9.34757 60.0105 9.20039 60.1333 9.01252C60.2561 8.82464 60.3202 8.60456 60.3174 8.38024C60.3138 8.08262 60.1928 7.79845 59.9806 7.5893C59.7685 7.38016 59.4823 7.26288 59.1842 7.2629Z" fill="#183154"/>
<path id="Vector_28" d="M126.609 28.9041H84.2114C83.8405 28.9041 83.4845 28.7571 83.2222 28.4951C82.9599 28.2332 82.8125 27.878 82.8125 27.5075C82.8125 27.1371 82.9599 26.7818 83.2222 26.5199C83.4845 26.258 83.8405 26.1109 84.2114 26.1109H126.609C126.98 26.1109 127.335 26.258 127.597 26.5199C127.86 26.7818 128.007 27.1371 128.007 27.5075C128.007 27.878 127.86 28.2332 127.597 28.4951C127.335 28.7571 126.98 28.9041 126.609 28.9041Z" fill="#3D7ECA"/>
<path id="Vector_29" d="M98.6282 35.5383H84.2114C83.8405 35.5383 83.4845 35.3911 83.2222 35.1292C82.9599 34.8672 82.8125 34.512 82.8125 34.1415C82.8125 33.7712 82.9599 33.4158 83.2222 33.1539C83.4845 32.8921 83.8405 32.7449 84.2114 32.7449H98.6282C98.9993 32.7449 99.3551 32.8921 99.6175 33.1539C99.8798 33.4158 100.027 33.7712 100.027 34.1415C100.027 34.512 99.8798 34.8672 99.6175 35.1292C99.3551 35.3911 98.9993 35.5383 98.6282 35.5383Z" fill="#3D7ECA"/>
<path id="Vector_30" d="M98.6282 50.6365H84.2114C83.8405 50.6365 83.4845 50.4894 83.2222 50.2275C82.9599 49.9656 82.8125 49.6102 82.8125 49.2399C82.8125 48.8694 82.9599 48.5142 83.2222 48.2523C83.4845 47.9903 83.8405 47.8433 84.2114 47.8433H98.6282C98.9993 47.8433 99.3551 47.9903 99.6175 48.2523C99.8798 48.5142 100.027 48.8694 100.027 49.2399C100.027 49.6102 99.8798 49.9656 99.6175 50.2275C99.3551 50.4894 98.9993 50.6365 98.6282 50.6365Z" fill="#174882"/>
<path id="Vector_31" d="M117.895 42.1727H109.767C109.396 42.1727 109.04 42.0255 108.778 41.7636C108.515 41.5017 108.367 41.1464 108.367 40.776C108.367 40.4056 108.515 40.0504 108.778 39.7884C109.04 39.5265 109.396 39.3793 109.767 39.3793H117.895C118.266 39.3793 118.622 39.5265 118.884 39.7884C119.146 40.0504 119.294 40.4056 119.294 40.776C119.294 41.1464 119.146 41.5017 118.884 41.7636C118.622 42.0255 118.266 42.1727 117.895 42.1727Z" fill="#3D7ECA"/>
<path id="Vector_32" opacity="0.8" d="M130.672 42.1727H122.543C122.173 42.1727 121.817 42.0255 121.555 41.7636C121.292 41.5017 121.145 41.1464 121.145 40.776C121.145 40.4056 121.292 40.0504 121.555 39.7884C121.817 39.5265 122.173 39.3793 122.543 39.3793H130.672C131.043 39.3793 131.399 39.5265 131.662 39.7884C131.924 40.0504 132.071 40.4056 132.071 40.776C132.071 41.1464 131.924 41.5017 131.662 41.7636C131.399 42.0255 131.043 42.1727 130.672 42.1727Z" fill="#3D7ECA"/>
<path id="Vector_33" d="M92.3327 42.1727H84.2114C83.8405 42.1727 83.4845 42.0255 83.2222 41.7636C82.9599 41.5017 82.8125 41.1464 82.8125 40.776C82.8125 40.4056 82.9599 40.0504 83.2222 39.7884C83.4845 39.5265 83.8405 39.3793 84.2114 39.3793H92.3327C92.7037 39.3793 93.0596 39.5265 93.322 39.7884C93.5843 40.0504 93.7317 40.4056 93.7317 40.776C93.7317 41.1464 93.5843 41.5017 93.322 41.7636C93.0596 42.0255 92.7037 42.1727 92.3327 42.1727Z" fill="#3D7ECA"/>
<path id="Vector_34" opacity="0.3" d="M105.114 42.1727H96.9927C96.6217 42.1727 96.2658 42.0255 96.0034 41.7636C95.7411 41.5017 95.5938 41.1464 95.5938 40.776C95.5938 40.4056 95.7411 40.0504 96.0034 39.7884C96.2658 39.5265 96.6217 39.3793 96.9927 39.3793H105.114C105.485 39.3793 105.841 39.5265 106.103 39.7884C106.366 40.0504 106.513 40.4056 106.513 40.776C106.513 41.1464 106.366 41.5017 106.103 41.7636C105.841 42.0255 105.485 42.1727 105.114 42.1727Z" fill="#3D7ECA"/>
<path id="Vector_35" d="M126.609 58.0316H84.2114C83.8405 58.0316 83.4845 57.8844 83.2222 57.6225C82.9599 57.3605 82.8125 57.0053 82.8125 56.6349C82.8125 56.2645 82.9599 55.9092 83.2222 55.6472C83.4845 55.3854 83.8405 55.2382 84.2114 55.2382H126.609C126.98 55.2382 127.335 55.3854 127.597 55.6472C127.86 55.9092 128.007 56.2645 128.007 56.6349C128.007 57.0053 127.86 57.3605 127.597 57.6225C127.335 57.8844 126.98 58.0316 126.609 58.0316Z" fill="#3D7ECA"/>
<path id="Vector_36" d="M98.6282 64.666H84.2114C83.8405 64.666 83.4845 64.5188 83.2222 64.2569C82.9599 63.995 82.8125 63.6397 82.8125 63.2693C82.8125 62.8989 82.9599 62.5437 83.2222 62.2817C83.4845 62.0198 83.8405 61.8726 84.2114 61.8726H98.6282C98.9993 61.8726 99.3551 62.0198 99.6175 62.2817C99.8798 62.5437 100.027 62.8989 100.027 63.2693C100.027 63.6397 99.8798 63.995 99.6175 64.2569C99.3551 64.5188 98.9993 64.666 98.6282 64.666Z" fill="#3D7ECA"/>
<path id="Vector_37" d="M98.6282 79.7639H84.2114C83.8405 79.7639 83.4845 79.6168 83.2222 79.3549C82.9599 79.0929 82.8125 78.7376 82.8125 78.3672C82.8125 77.9968 82.9599 77.6415 83.2222 77.3796C83.4845 77.1177 83.8405 76.9706 84.2114 76.9706H98.6282C98.9993 76.9706 99.3551 77.1177 99.6175 77.3796C99.8798 77.6415 100.027 77.9968 100.027 78.3672C100.027 78.7376 99.8798 79.0929 99.6175 79.3549C99.3551 79.6168 98.9993 79.7639 98.6282 79.7639Z" fill="#174882"/>
<path id="Vector_38" d="M117.895 71.3H109.767C109.396 71.3 109.04 71.1529 108.778 70.8909C108.515 70.629 108.367 70.2738 108.367 69.9034C108.367 69.5329 108.515 69.1777 108.778 68.9158C109.04 68.6538 109.396 68.5067 109.767 68.5067H117.895C118.266 68.5067 118.622 68.6538 118.884 68.9158C119.146 69.1777 119.294 69.5329 119.294 69.9034C119.294 70.2738 119.146 70.629 118.884 70.8909C118.622 71.1529 118.266 71.3 117.895 71.3Z" fill="#3D7ECA"/>
<path id="Vector_39" opacity="0.8" d="M130.672 71.3H122.543C122.173 71.3 121.817 71.1529 121.555 70.8909C121.292 70.629 121.145 70.2738 121.145 69.9034C121.145 69.5329 121.292 69.1777 121.555 68.9158C121.817 68.6538 122.173 68.5067 122.543 68.5067H130.672C131.043 68.5067 131.399 68.6538 131.662 68.9158C131.924 69.1777 132.071 69.5329 132.071 69.9034C132.071 70.2738 131.924 70.629 131.662 70.8909C131.399 71.1529 131.043 71.3 130.672 71.3Z" fill="#3D7ECA"/>
<path id="Vector_40" d="M92.3327 71.3H84.2114C83.8405 71.3 83.4845 71.1529 83.2222 70.8909C82.9599 70.629 82.8125 70.2738 82.8125 69.9034C82.8125 69.5329 82.9599 69.1777 83.2222 68.9158C83.4845 68.6538 83.8405 68.5067 84.2114 68.5067H92.3327C92.7037 68.5067 93.0596 68.6538 93.322 68.9158C93.5843 69.1777 93.7317 69.5329 93.7317 69.9034C93.7317 70.2738 93.5843 70.629 93.322 70.8909C93.0596 71.1529 92.7037 71.3 92.3327 71.3Z" fill="#3D7ECA"/>
<path id="Vector_41" opacity="0.3" d="M105.114 71.3H96.9927C96.6217 71.3 96.2658 71.1529 96.0034 70.8909C95.7411 70.629 95.5938 70.2738 95.5938 69.9034C95.5938 69.5329 95.7411 69.1777 96.0034 68.9158C96.2658 68.6538 96.6217 68.5067 96.9927 68.5067H105.114C105.485 68.5067 105.841 68.6538 106.103 68.9158C106.366 69.1777 106.513 69.5329 106.513 69.9034C106.513 70.2738 106.366 70.629 106.103 70.8909C105.841 71.1529 105.485 71.3 105.114 71.3Z" fill="#3D7ECA"/>
<path id="Vector_42" d="M51.8956 24.9025C51.8956 28.099 51.2648 31.2643 50.0393 34.2175C48.8138 37.1706 47.0175 39.8538 44.7531 42.1137C42.4887 44.3737 39.8005 46.1663 36.8421 47.3889C33.8836 48.6116 30.7129 49.2403 27.511 49.2395C27.1542 49.2395 26.8114 49.2395 26.4407 49.2395H26.2309C21.2993 48.9926 16.5615 47.2454 12.6535 44.2323L12.4576 44.0857C12.094 43.7995 11.7582 43.4992 11.3945 43.1989C6.80581 39.189 3.88864 33.6084 3.21819 27.5573C2.54775 21.5063 4.17271 15.4241 7.77261 10.51C11.3725 5.59606 16.6861 2.207 22.6654 1.01121C28.6448 -0.184582 34.856 0.899688 40.074 4.0502C40.7036 4.4273 41.3121 4.83233 41.8998 5.25832L41.9907 5.32117C44.2389 6.97978 46.1881 9.00831 47.7545 11.3199C49.4314 13.794 50.6339 16.5573 51.301 19.4694C51.371 19.7698 51.434 20.077 51.4899 20.3842C51.7656 21.8745 51.9015 23.3871 51.8956 24.9025Z" fill="#4786D1"/>
<path id="Vector_43" d="M52.14 25.2519C52.1363 31.7059 49.5656 37.8942 44.993 42.4566C40.4204 47.019 34.2202 49.5819 27.7554 49.5818C27.5526 49.5818 27.3427 49.5818 27.1398 49.5818C27.0699 49.5818 26.9999 49.5818 26.9299 49.5818C22.0336 49.4273 17.2993 47.7934 13.3526 44.896L13.1568 44.7494C12.828 44.5049 12.4992 44.2535 12.1845 43.9881C10.1837 42.3267 8.46013 40.3585 7.07812 38.157C7.20403 38.2408 7.33694 38.3177 7.46985 38.3945C8.21867 38.8522 8.99416 39.2649 9.79219 39.6305C12.9834 41.0996 16.4558 41.8597 19.9699 41.8582C22.3167 41.86 24.6514 41.5237 26.9021 40.8596L27.1118 40.7968C31.5281 39.4505 35.471 36.8807 38.4824 33.386C41.4937 29.8914 43.45 25.6153 44.1238 21.0549C44.1727 20.7476 44.2077 20.4473 44.2427 20.14C44.3354 19.2679 44.382 18.3914 44.3826 17.5143C44.3832 15.9912 44.2404 14.4714 43.9558 12.9751C43.6447 11.318 43.1594 9.69819 42.5079 8.14264C42.1932 7.38409 41.8383 6.6428 41.4446 5.92193C41.2209 5.50991 40.99 5.10488 40.7451 4.71381L40.6752 4.60208C41.3299 5.00841 41.9627 5.44897 42.5709 5.92193L42.6548 5.98478C44.6848 7.56011 46.453 9.44556 47.894 11.5715C49.6782 14.1699 50.9331 17.0932 51.5875 20.1749C51.6574 20.4752 51.7204 20.7825 51.7693 21.0898C52.0117 22.464 52.1357 23.8565 52.14 25.2519Z" fill="#174882"/>
<path id="Vector_44" d="M27.5189 33.4433C26.9829 33.4441 26.4644 33.2533 26.057 32.9057L20.363 28.0173C20.1231 27.8495 19.9211 27.6334 19.7698 27.3828C19.6186 27.1324 19.5217 26.853 19.4851 26.5629C19.4486 26.2727 19.4733 25.9781 19.5577 25.698C19.6422 25.418 19.7844 25.1586 19.9752 24.9367C20.1661 24.7149 20.4013 24.5353 20.6659 24.4097C20.9304 24.2841 21.2184 24.2151 21.5112 24.2074C21.8041 24.1995 22.0953 24.253 22.3662 24.3644C22.6372 24.4757 22.8816 24.6425 23.0841 24.8539L27.1203 28.3106L32.8771 19.8747C33.0319 19.6455 33.2304 19.4489 33.4613 19.2962C33.6921 19.1435 33.9509 19.0377 34.2227 18.9849C34.4946 18.932 34.7742 18.9332 35.0456 18.9882C35.317 19.0432 35.5749 19.1511 35.8046 19.3056C36.0342 19.4601 36.2311 19.6583 36.384 19.8888C36.537 20.1193 36.6429 20.3776 36.6958 20.649C36.7489 20.9204 36.7477 21.1995 36.6925 21.4705C36.6375 21.7414 36.5294 21.9988 36.3746 22.2281L29.3796 32.4657C29.2004 32.7268 28.9684 32.9475 28.6985 33.1135C28.4286 33.2794 28.1269 33.3872 27.8128 33.4294C27.7152 33.4409 27.6171 33.4456 27.5189 33.4433Z" fill="white"/>
<g id="Group_2" opacity="0.15">
<path id="Vector_45" opacity="0.15" d="M18.152 15.6288C20.609 15.6288 22.6008 13.6404 22.6008 11.1875C22.6008 8.73455 20.609 6.74606 18.152 6.74606C15.6949 6.74606 13.7031 8.73455 13.7031 11.1875C13.7031 13.6404 15.6949 15.6288 18.152 15.6288Z" fill="white"/>
<path id="Vector_46" opacity="0.15" d="M13.0252 19.9655C14.2537 19.9655 15.2496 18.9713 15.2496 17.7448C15.2496 16.5183 14.2537 15.5241 13.0252 15.5241C11.7967 15.5241 10.8008 16.5183 10.8008 17.7448C10.8008 18.9713 11.7967 19.9655 13.0252 19.9655Z" fill="white"/>
</g>
<path id="Vector_47" d="M3.37011 29.1977C3.20037 29.1994 3.03582 29.1394 2.90713 29.0288C2.77842 28.9183 2.69437 28.7649 2.67061 28.5971C2.50854 27.4192 2.42675 26.2316 2.42578 25.0426C2.42578 24.8574 2.49948 24.6797 2.63066 24.5487C2.76185 24.4178 2.93976 24.3442 3.12528 24.3442C3.3108 24.3442 3.48872 24.4178 3.61991 24.5487C3.75109 24.6797 3.82479 24.8574 3.82479 25.0426C3.82459 26.1662 3.90172 27.2885 4.05562 28.4015C4.08233 28.5797 4.03902 28.7614 3.93473 28.9085C3.83045 29.0555 3.67325 29.1566 3.49602 29.1907L3.37011 29.1977Z" fill="#183154"/>
<path id="Vector_48" d="M4.6797 34.309C4.53797 34.3081 4.39988 34.2641 4.2837 34.1831C4.16754 34.102 4.07877 33.9877 4.02917 33.8551C3.71457 33.0178 3.44373 32.1646 3.21774 31.2991C3.19461 31.2103 3.18931 31.1176 3.20212 31.0266C3.21493 30.9356 3.24561 30.8479 3.2924 30.7688C3.33919 30.6896 3.40117 30.6206 3.47478 30.5653C3.5484 30.5102 3.6322 30.47 3.72139 30.4472C3.81049 30.4242 3.90329 30.4189 3.99445 30.4316C4.08562 30.4444 4.17336 30.4751 4.25264 30.5217C4.33193 30.5685 4.40119 30.6303 4.45647 30.7038C4.51175 30.7774 4.55195 30.861 4.57478 30.9501C4.78758 31.7679 5.04207 32.5743 5.33724 33.3662C5.40095 33.5386 5.3941 33.729 5.31817 33.8963C5.24223 34.0636 5.10331 34.1943 4.93153 34.2601C4.85173 34.2931 4.76608 34.3098 4.6797 34.309Z" fill="#183154"/>
<path id="Vector_49" d="M11.1079 23.5199C11.3861 23.5199 11.6531 23.4095 11.8498 23.213C12.0465 23.0167 12.1571 22.7502 12.1571 22.4723C12.1571 22.1946 12.0465 21.9281 11.8498 21.7317C11.6531 21.5353 11.3861 21.4249 11.1079 21.4249C10.8296 21.4249 10.5627 21.5353 10.3659 21.7317C10.1691 21.9281 10.0586 22.1946 10.0586 22.4723C10.0586 22.7502 10.1691 23.0167 10.3659 23.213C10.5627 23.4095 10.8296 23.5199 11.1079 23.5199Z" fill="#FDFEFF"/>
<path id="Vector_50" d="M13.1299 31.0483C12.5144 29.5465 12.1505 27.954 12.0527 26.3345C11.9828 25.3289 10.4089 25.3219 10.4788 26.3345C10.6025 28.2298 11.0398 30.0916 11.7729 31.8443C12.1647 32.7731 13.5217 31.97 13.1299 31.0483Z" fill="#FDFEFF"/>
<path id="Vector_51" d="M142.559 13.3243H49.0081C48.8225 13.3243 48.6447 13.2508 48.5135 13.1198C48.3823 12.9888 48.3086 12.8112 48.3086 12.6259C48.3086 12.4408 48.3823 12.2631 48.5135 12.1322C48.6447 12.0012 48.8225 11.9277 49.0081 11.9277H142.559C142.745 11.9277 142.923 12.0012 143.054 12.1322C143.185 12.2631 143.259 12.4408 143.259 12.6259C143.259 12.8112 143.185 12.9888 143.054 13.1198C142.923 13.2508 142.745 13.3243 142.559 13.3243Z" fill="#183154"/>
<path id="Vector_52" d="M71.0399 80.1199H51.6987H32.7422L48.3131 53.1852L57.7844 69.5681L61.3658 63.3809L71.0399 80.1199ZM54.091 78.7233H68.6196L61.3658 66.1532L57.7844 72.3405L48.3131 55.9784L35.1625 78.7093H54.098L54.091 78.7233Z" fill="#183154"/>
<path id="Vector_53" d="M27.5103 50.0777C27.1396 50.0777 26.7618 50.0777 26.3981 50.0777H26.1603C21.0969 49.823 16.2335 48.0243 12.2261 44.924L12.0512 44.7982C11.6456 44.4841 11.2888 44.1768 10.9321 43.8695C9.07708 42.2379 7.47418 40.3412 6.17547 38.241C5.73287 37.5227 5.32892 36.7814 4.96533 36.0202C4.91668 35.9374 4.88567 35.8454 4.87423 35.7501C4.86278 35.6548 4.87116 35.558 4.89882 35.4661C4.92649 35.3741 4.97285 35.2889 5.03503 35.2156C5.0972 35.1424 5.17383 35.0827 5.26015 35.0403C5.34646 34.998 5.4406 34.9738 5.53667 34.9694C5.63276 34.965 5.72871 34.9804 5.81856 35.0147C5.90839 35.049 5.99018 35.1015 6.05882 35.1686C6.12745 35.2359 6.18144 35.3167 6.21744 35.4057C6.5672 36.104 6.91694 36.8023 7.36463 37.4658C8.5994 39.4525 10.1249 41.2439 11.8904 42.7801C12.2261 43.0664 12.5899 43.3597 12.9186 43.646L13.1145 43.7857C16.9055 46.7231 21.5076 48.4291 26.3002 48.674H26.475C26.8528 48.674 27.1746 48.674 27.5453 48.674C33.8168 48.6593 39.8269 46.1641 44.2595 41.7349C48.6922 37.3057 51.1862 31.3035 51.1955 25.0424C51.1961 23.5613 51.0556 22.0835 50.7757 20.629C50.7197 20.3287 50.6638 20.0284 50.5938 19.742C49.9549 16.9311 48.7999 14.2627 47.1873 11.8718L47.1453 11.8089C45.6366 9.57642 43.7585 7.6164 41.5913 6.01278L41.4864 5.94295C40.8708 5.47739 40.2692 5.07934 39.6816 4.7488C36.3705 2.76899 32.6248 1.627 28.7706 1.42222C24.9165 1.21744 21.0706 1.95607 17.5677 3.57383C14.0647 5.19159 11.0108 7.63946 8.67177 10.7045C6.33273 13.7694 4.77937 17.3586 4.14692 21.1596C4.08913 21.308 3.98236 21.4321 3.84427 21.5116C3.70618 21.5909 3.54506 21.621 3.38757 21.5965C3.23008 21.5721 3.08567 21.4947 2.97825 21.3772C2.87084 21.2596 2.80684 21.1089 2.79688 20.9501C3.46956 16.9292 5.11485 13.1328 7.58998 9.89034C10.0651 6.64789 13.2953 4.05735 17.0004 2.34344C20.7055 0.629535 24.7736 -0.155958 28.8515 0.0551081C32.9295 0.266175 36.8945 1.46742 40.4021 3.55465C41.0246 3.93175 41.6613 4.35075 42.2768 4.79767L42.3747 4.86751C44.6698 6.55459 46.6614 8.61838 48.2645 10.971L48.3135 11.0407C50.0435 13.5823 51.282 16.4246 51.9649 19.4208C52.0349 19.7281 52.1047 20.0423 52.1607 20.3636C52.4514 21.904 52.5989 23.468 52.6014 25.0354C52.5941 31.6759 49.9479 38.0423 45.2438 42.7373C40.5397 47.4322 34.162 50.0721 27.5103 50.0777Z" fill="#183154"/>
<g id="Group_3" opacity="0.4">
<path id="Vector_54" opacity="0.4" d="M24.4176 17.0673C26.8746 17.0673 28.8664 15.0788 28.8664 12.6258C28.8664 10.173 26.8746 8.18448 24.4176 8.18448C21.9606 8.18448 19.9688 10.173 19.9688 12.6258C19.9688 15.0788 21.9606 17.0673 24.4176 17.0673Z" fill="white"/>
<path id="Vector_55" opacity="0.4" d="M19.2908 21.4039C20.5194 21.4039 21.5153 20.4096 21.5153 19.1832C21.5153 17.9568 20.5194 16.9625 19.2908 16.9625C18.0623 16.9625 17.0664 17.9568 17.0664 19.1832C17.0664 20.4096 18.0623 21.4039 19.2908 21.4039Z" fill="white"/>
</g>
<path id="Vector_56" d="M56.7584 56.6348C59.1923 56.6348 61.1653 54.6651 61.1653 52.2353C61.1653 49.8055 59.1923 47.8357 56.7584 47.8357C54.3245 47.8357 52.3516 49.8055 52.3516 52.2353C52.3516 54.6651 54.3245 56.6348 56.7584 56.6348Z" fill="#4786D1"/>
<path id="Vector_57" d="M57.0009 57.3333C55.9909 57.3333 55.0037 57.0344 54.164 56.4742C53.3242 55.914 52.6697 55.1179 52.2833 54.1864C51.8967 53.2548 51.7956 52.2299 51.9927 51.2409C52.1897 50.2521 52.6761 49.3437 53.3901 48.6307C54.1043 47.9179 55.0142 47.4323 56.0047 47.2356C56.9952 47.0389 58.022 47.1398 58.955 47.5257C59.8881 47.9115 60.6856 48.5649 61.2467 49.4033C61.8078 50.2416 62.1073 51.2272 62.1073 52.2355C62.1054 53.5869 61.5669 54.8825 60.6096 55.8381C59.6524 56.7938 58.3547 57.3315 57.0009 57.3333ZM57.0009 48.5413C56.2674 48.5413 55.5503 48.7585 54.9405 49.1655C54.3307 49.5726 53.8555 50.1511 53.5751 50.8277C53.2947 51.5044 53.2217 52.2489 53.3653 52.9671C53.5089 53.6852 53.8627 54.3448 54.3819 54.8621C54.9011 55.3794 55.5624 55.7314 56.2819 55.8734C57.0016 56.0154 57.7472 55.9411 58.4245 55.6599C59.1018 55.3787 59.6803 54.9033 60.0869 54.2937C60.4934 53.6841 60.7097 52.9678 60.7083 52.2355C60.7064 51.2551 60.315 50.3155 59.62 49.6228C58.9249 48.9303 57.983 48.5413 57.0009 48.5413Z" fill="#183154"/>
</g>
</g>
</g>
</g>
</g>
</g>
</g>
<defs>
<clipPath id="clip0_1740_29879">
<rect width="170" height="91" fill="white"/>
</clipPath>
</defs>
</svg>
