<svg width="84" height="96" viewBox="0 0 84 96" fill="none" xmlns="http://www.w3.org/2000/svg">
<g id="Illustration - Asset 39" clip-path="url(#clip0_1740_29728)">
<g id="Asset 39">
<g id="Clip path group">
<mask id="mask0_1740_29728" style="mask-type:luminance" maskUnits="userSpaceOnUse" x="0" y="0" width="84" height="96">
<g id="clip0_3_49766">
<path id="Vector" d="M83.7186 0.192017H0.015625V95.9433H83.7186V0.192017Z" fill="white"/>
</g>
</mask>
<g mask="url(#mask0_1740_29728)">
<g id="Asset 39_2">
<g id="Layer 2">
<g id="Layer 1">
<path id="Vector_2" d="M79.4218 18.3016H68.7792C66.8149 18.3016 65.2227 19.8968 65.2227 21.8645V80.4917C65.2227 82.4594 66.8149 84.0546 68.7792 84.0546H79.4218C81.3862 84.0546 82.9787 82.4594 82.9787 80.4917V21.8645C82.9787 19.8968 81.3862 18.3016 79.4218 18.3016Z" fill="white"/>
<path id="Vector_2_2" opacity="0.45" d="M73.5496 43.994V17.5866H21.9414V83.675H73.5496V43.994Z" fill="#C9D2DF"/>
<path id="Vector_3" d="M49.25 64.3544H78.5692V62.0628H49.25V64.3544Z" fill="#C9D2DF"/>
<path id="Vector_4" d="M49.25 69.5612H78.5692V67.27H49.25V69.5612Z" fill="#C9D2DF"/>
<path id="Vector_5" d="M49.25 74.7742H78.5692V72.4826H49.25V74.7742Z" fill="#C9D2DF"/>
<path id="Vector_6" d="M49.25 45.0283H78.5692V42.7368H49.25V45.0283Z" fill="#C9D2DF"/>
<path id="Vector_7" d="M49.25 50.2239H78.5692V47.9326H49.25V50.2239Z" fill="#C9D2DF"/>
<path id="Vector_8" d="M49.25 55.4524H78.5692V53.1612H49.25V55.4524Z" fill="#C9D2DF"/>
<path id="Vector_9" d="M49.25 25.0911H78.5692V22.7997H49.25V25.0911Z" fill="#C9D2DF"/>
<path id="Vector_10" d="M49.25 35.5267H78.5692V22.6444H49.25V35.5267Z" fill="#C9D2DF"/>
<path id="Vector_11" d="M81.6366 84.1654C81.5072 84.1654 81.3831 84.1139 81.2916 84.0223C81.1998 83.9303 81.1484 83.806 81.1484 83.6764C81.1484 83.5466 81.1998 83.4223 81.2916 83.3306C81.3831 83.2389 81.5072 83.1872 81.6366 83.1872C81.7497 83.1872 81.8614 83.1649 81.9656 83.1213C82.0695 83.0773 82.1642 83.0134 82.2433 82.9327C82.3224 82.852 82.3848 82.7566 82.4269 82.6514C82.4688 82.5464 82.4893 82.4342 82.4875 82.3212V50.3529C82.4875 50.223 82.5389 50.0987 82.6304 50.007C82.7219 49.9151 82.8463 49.8636 82.9757 49.8636C83.1053 49.8636 83.2294 49.9151 83.3209 50.007C83.4124 50.0987 83.4638 50.223 83.4638 50.3529V82.3212C83.4638 82.8078 83.2718 83.2748 82.9295 83.6203C82.5874 83.9656 82.1227 84.1616 81.6366 84.1654Z" fill="#4786D1"/>
<path id="Vector_12" d="M78.3206 84.1625H72.1834C72.0541 84.1625 71.9297 84.111 71.8382 84.0194C71.7467 83.9277 71.6953 83.8031 71.6953 83.6735C71.6953 83.5437 71.7467 83.4194 71.8382 83.3277C71.9297 83.236 72.0541 83.1846 72.1834 83.1846H78.3206C78.4502 83.1846 78.5744 83.236 78.6659 83.3277C78.7574 83.4194 78.8088 83.5437 78.8088 83.6735C78.8088 83.8031 78.7574 83.9277 78.6659 84.0194C78.5744 84.111 78.4502 84.1625 78.3206 84.1625Z" fill="#4786D1"/>
<path id="Vector_13" d="M65.568 84.1671H32.7061C32.2203 84.1637 31.7556 83.9676 31.4132 83.6221C31.0712 83.2768 30.8789 82.8095 30.8789 82.3229V20.4123C30.8827 19.5352 31.2322 18.6951 31.8514 18.0749C32.4703 17.4546 33.3091 17.1046 34.1846 17.1009H80.2138C81.0893 17.1046 81.9278 17.4546 82.547 18.0749C83.1662 18.6951 83.5157 19.5352 83.5192 20.4123V43.9972C83.5192 44.127 83.4678 44.2514 83.3763 44.343C83.2848 44.4347 83.1607 44.4865 83.0311 44.4865C82.9018 44.4865 82.7776 44.4347 82.6858 44.343C82.5943 44.2514 82.543 44.127 82.543 43.9972V20.4123C82.543 19.7935 82.2976 19.2 81.8608 18.7624C81.4238 18.3248 80.8315 18.079 80.2138 18.079H34.1846C33.5669 18.079 32.9746 18.3248 32.5375 18.7624C32.1008 19.2 31.8554 19.7935 31.8554 20.4123V82.3229C31.8534 82.436 31.8742 82.5484 31.9161 82.6534C31.9579 82.7584 32.0203 82.8541 32.0996 82.9347C32.1787 83.0154 32.2731 83.0793 32.3773 83.123C32.4815 83.1666 32.5933 83.1892 32.7061 83.1892H65.568C65.6976 83.1892 65.8218 83.2407 65.9133 83.3323C66.0048 83.4243 66.0561 83.5486 66.0561 83.6782C66.0561 83.808 66.0048 83.9323 65.9133 84.024C65.8218 84.1157 65.6976 84.1671 65.568 84.1671Z" fill="#4786D1"/>
<path id="Vector_14" d="M69.281 10.0166H0.460938V87.8553H69.281V10.0166Z" fill="white"/>
<path id="Vector_15" opacity="0.2" d="M69.2791 32.6611V86.2583C69.2791 86.5275 69.2257 86.7938 69.1226 87.0422C69.0193 87.2906 68.868 87.5161 68.6775 87.7058C68.487 87.8952 68.261 88.0453 68.0122 88.1471C67.7636 88.2486 67.4972 88.3 67.2284 88.2983H6.48438C42.9169 77.7074 61.4541 48.8967 69.2791 32.6611Z" fill="#C9D2DF"/>
<path id="Vector_16" opacity="0.5" d="M69.2684 34.2437H0.796875V34.5372H69.2684V34.2437Z" fill="#C9D2DF"/>
<path id="Vector_17" opacity="0.5" d="M69.2684 55.0167H0.796875V55.3099H69.2684V55.0167Z" fill="#C9D2DF"/>
<path id="Vector_18" opacity="0.5" d="M69.2684 77.2467H0.796875V77.5399H69.2684V77.2467Z" fill="#C9D2DF"/>
<path id="Vector_19" d="M1.84308 2.84423H68.2362C68.5101 2.84423 68.7725 2.95316 68.9662 3.14707C69.1596 3.34095 69.2684 3.60394 69.2684 3.87817V9.57881H0.796971V3.89214C0.795094 3.75401 0.820869 3.61689 0.872778 3.48891C0.924685 3.36093 1.00167 3.24466 1.09919 3.14695C1.1967 3.04928 1.31277 2.97216 1.44054 2.92017C1.56831 2.86817 1.70518 2.84235 1.84308 2.84423Z" fill="#C3C6E3"/>
<path id="Vector_20" d="M6.96013 6.67417C7.64573 6.67417 8.20151 6.11743 8.20151 5.43065C8.20151 4.74388 7.64573 4.18713 6.96013 4.18713C6.27454 4.18713 5.71875 4.74388 5.71875 5.43065C5.71875 6.11743 6.27454 6.67417 6.96013 6.67417Z" fill="#57A8B2"/>
<path id="Vector_21" d="M10.7258 6.67417C11.4114 6.67417 11.9671 6.11743 11.9671 5.43065C11.9671 4.74388 11.4114 4.18713 10.7258 4.18713C10.0402 4.18713 9.48438 4.74388 9.48438 5.43065C9.48438 6.11743 10.0402 6.67417 10.7258 6.67417Z" fill="#57A8B2"/>
<path id="Vector_22" d="M14.507 6.67417C15.1926 6.67417 15.7484 6.11743 15.7484 5.43065C15.7484 4.74388 15.1926 4.18713 14.507 4.18713C13.8214 4.18713 13.2656 4.74388 13.2656 5.43065C13.2656 6.11743 13.8214 6.67417 14.507 6.67417Z" fill="#57A8B2"/>
<path id="Vector_23" opacity="0.2" d="M69.2825 11.3703H0.796994C0.66943 11.3496 0.553371 11.2841 0.469608 11.1856C0.385845 11.087 0.339844 10.9618 0.339844 10.8324C0.339844 10.7029 0.385845 10.5777 0.469608 10.4791C0.553371 10.3806 0.66943 10.3151 0.796994 10.2944H69.2825C69.4101 10.3151 69.5261 10.3806 69.6098 10.4791C69.6936 10.5777 69.7394 10.7029 69.7394 10.8324C69.7394 10.9618 69.6936 11.087 69.6098 11.1856C69.5261 11.2841 69.4101 11.3496 69.2825 11.3703Z" fill="#C9D2DF"/>
<path id="Vector_24" d="M6.96013 6.67417C7.64573 6.67417 8.20151 6.11743 8.20151 5.43065C8.20151 4.74388 7.64573 4.18713 6.96013 4.18713C6.27454 4.18713 5.71875 4.74388 5.71875 5.43065C5.71875 6.11743 6.27454 6.67417 6.96013 6.67417Z" fill="#8F98D8"/>
<path id="Vector_25" d="M10.7258 6.67417C11.4114 6.67417 11.9671 6.11743 11.9671 5.43065C11.9671 4.74388 11.4114 4.18713 10.7258 4.18713C10.0402 4.18713 9.48438 4.74388 9.48438 5.43065C9.48438 6.11743 10.0402 6.67417 10.7258 6.67417Z" fill="#8F98D8"/>
<path id="Vector_26" d="M14.507 6.67417C15.1926 6.67417 15.7484 6.11743 15.7484 5.43065C15.7484 4.74388 15.1926 4.18713 14.507 4.18713C13.8214 4.18713 13.2656 4.74388 13.2656 5.43065C13.2656 6.11743 13.8214 6.67417 14.507 6.67417Z" fill="#8F98D8"/>
<path id="Vector_27" d="M6.98796 6.91192C6.69255 6.92869 6.39892 6.85629 6.14502 6.70407C5.89114 6.55189 5.68867 6.32687 5.56383 6.05813C5.43898 5.78941 5.3975 5.48936 5.44476 5.19676C5.49198 4.90416 5.62578 4.6325 5.82882 4.4169C6.03186 4.20131 6.29483 4.0517 6.58366 3.98745C6.8725 3.92317 7.17397 3.94717 7.44904 4.05638C7.7241 4.1656 7.96014 4.35496 8.12661 4.6C8.29308 4.84503 8.3823 5.13447 8.38279 5.43086C8.3834 5.80957 8.23916 6.17411 7.97974 6.44956C7.72032 6.72504 7.36541 6.89049 6.98796 6.91192ZM6.98796 4.38296C6.78879 4.38018 6.59325 4.43683 6.42629 4.54566C6.2593 4.6545 6.12842 4.81062 6.05025 4.9942C5.97211 5.17776 5.95023 5.38046 5.98738 5.57651C6.02453 5.77256 6.11907 5.9531 6.25895 6.0952C6.39884 6.23729 6.57772 6.3345 6.77291 6.37446C6.9681 6.41443 7.17071 6.39534 7.35505 6.31964C7.53936 6.24391 7.69705 6.115 7.80801 5.94929C7.919 5.78354 7.97827 5.58851 7.97829 5.38896C7.98014 5.25751 7.95589 5.12701 7.90694 5.00502C7.85801 4.88305 7.78535 4.77204 7.69321 4.67844C7.60107 4.58482 7.49127 4.5105 7.3702 4.45978C7.24914 4.40907 7.11919 4.38293 6.98796 4.38296Z" fill="#4786D1"/>
<path id="Vector_28" d="M10.7263 6.91423C10.4345 6.91146 10.15 6.82225 9.90868 6.65787C9.66739 6.49345 9.48008 6.2612 9.3703 5.99032C9.26052 5.71947 9.23324 5.42213 9.29184 5.13577C9.35047 4.84939 9.49237 4.58681 9.69969 4.38108C9.90701 4.17534 10.1705 4.03568 10.4569 3.97964C10.7433 3.92363 11.0399 3.95376 11.3092 4.06624C11.5785 4.17875 11.8086 4.36858 11.9705 4.61182C12.1323 4.85506 12.2187 5.14083 12.2187 5.43317C12.215 5.82726 12.0562 6.20395 11.7767 6.48128C11.4972 6.75864 11.1197 6.91423 10.7263 6.91423ZM10.7263 4.38527C10.5277 4.38527 10.3335 4.44426 10.1683 4.5548C10.0032 4.66535 9.87447 4.82244 9.79844 5.00629C9.72244 5.19011 9.70255 5.39237 9.74131 5.58752C9.78005 5.78265 9.87569 5.96192 10.0161 6.1026C10.1566 6.2433 10.3355 6.3391 10.5303 6.37793C10.7252 6.41674 10.9271 6.39682 11.1106 6.32068C11.2941 6.24455 11.4509 6.11558 11.5613 5.95016C11.6716 5.78473 11.7305 5.59021 11.7305 5.39124C11.7324 5.25864 11.7077 5.12696 11.6579 5.00406C11.6081 4.88117 11.5342 4.7695 11.4406 4.67573C11.347 4.58192 11.2355 4.5079 11.1128 4.45799C10.9901 4.40811 10.8587 4.38339 10.7263 4.38527Z" fill="#4786D1"/>
<path id="Vector_29" d="M14.5058 6.91429C14.1137 6.91429 13.7376 6.75826 13.4604 6.48049C13.1831 6.20273 13.0273 5.82604 13.0273 5.43323C13.0273 5.04044 13.1831 4.66372 13.4604 4.38599C13.7376 4.10822 14.1137 3.95219 14.5058 3.95219C14.8979 3.95219 15.274 4.10822 15.5513 4.38599C15.8286 4.66372 15.9843 5.04044 15.9843 5.43323C15.9843 5.82604 15.8286 6.20273 15.5513 6.48049C15.274 6.75826 14.8979 6.91429 14.5058 6.91429ZM14.5058 4.42725C14.2617 4.45622 14.0366 4.57394 13.8733 4.75805C13.7099 4.94218 13.6197 5.17992 13.6197 5.42626C13.6197 5.67256 13.7099 5.9103 13.8733 6.09444C14.0366 6.27857 14.2617 6.39629 14.5058 6.42526C14.75 6.39629 14.9751 6.27857 15.1384 6.09444C15.3018 5.9103 15.392 5.67256 15.392 5.42626C15.392 5.17992 15.3018 4.94218 15.1384 4.75805C14.9751 4.57394 14.75 4.45622 14.5058 4.42725Z" fill="#4786D1"/>
<path id="Vector_30" d="M45.6526 24.4902H39.3203V25.6359H45.6526V24.4902Z" fill="#C9D2DF"/>
<path id="Vector_31" d="M45.8597 45.0283H39.5273V46.174H45.8597V45.0283Z" fill="#C9D2DF"/>
<path id="Vector_32" d="M45.8597 65.6646H39.5273V66.8102H45.8597V65.6646Z" fill="#C9D2DF"/>
<path id="Vector_33" d="M35.7074 38.6701H7.19744C6.97404 38.6701 6.79297 38.8517 6.79297 39.0755V40.5565C6.79297 40.7803 6.97404 40.9616 7.19744 40.9616H35.7074C35.9308 40.9616 36.1121 40.7803 36.1121 40.5565V39.0755C36.1121 38.8517 35.9308 38.6701 35.7074 38.6701Z" fill="#C9D2DF"/>
<path id="Vector_34" d="M35.7074 43.8818H7.19744C6.97404 43.8818 6.79297 44.0631 6.79297 44.2869V45.768C6.79297 45.9918 6.97404 46.1731 7.19744 46.1731H35.7074C35.9308 46.1731 36.1121 45.9918 36.1121 45.768V44.2869C36.1121 44.0631 35.9308 43.8818 35.7074 43.8818Z" fill="#C9D2DF"/>
<path id="Vector_35" d="M35.7074 49.0945H7.19744C6.97404 49.0945 6.79297 49.2761 6.79297 49.4996V50.9806C6.79297 51.2044 6.97404 51.386 7.19744 51.386H35.7074C35.9308 51.386 36.1121 51.2044 36.1121 50.9806V49.4996C36.1121 49.2761 35.9308 49.0945 35.7074 49.0945Z" fill="#C9D2DF"/>
<path id="Vector_36" d="M35.7074 16.2436H7.19744C6.97404 16.2436 6.79297 16.425 6.79297 16.6488V18.1298C6.79297 18.3536 6.97404 18.535 7.19744 18.535H35.7074C35.9308 18.535 36.1121 18.3536 36.1121 18.1298V16.6488C36.1121 16.425 35.9308 16.2436 35.7074 16.2436Z" fill="#C9D2DF"/>
<path id="Vector_37" d="M35.7074 21.4563H7.19744C6.97404 21.4563 6.79297 21.6377 6.79297 21.8615V23.3426C6.79297 23.5663 6.97404 23.7478 7.19744 23.7478H35.7074C35.9308 23.7478 36.1121 23.5663 36.1121 23.3426V21.8615C36.1121 21.6377 35.9308 21.4563 35.7074 21.4563Z" fill="#C9D2DF"/>
<path id="Vector_38" d="M35.7074 26.6679H7.19744C6.97404 26.6679 6.79297 26.8493 6.79297 27.0731V28.5542C6.79297 28.7779 6.97404 28.9593 7.19744 28.9593H35.7074C35.9308 28.9593 36.1121 28.7779 36.1121 28.5542V27.0731C36.1121 26.8493 35.9308 26.6679 35.7074 26.6679Z" fill="#C9D2DF"/>
<path id="Vector_39" d="M35.7074 59.2239H7.19744C6.97404 59.2239 6.79297 59.4055 6.79297 59.6293V61.1104C6.79297 61.3342 6.97404 61.5155 7.19744 61.5155H35.7074C35.9308 61.5155 36.1121 61.3342 36.1121 61.1104V59.6293C36.1121 59.4055 35.9308 59.2239 35.7074 59.2239Z" fill="#C9D2DF"/>
<path id="Vector_40" d="M35.7074 64.4368H7.19744C6.97404 64.4368 6.79297 64.6181 6.79297 64.8419V66.323C6.79297 66.5468 6.97404 66.7281 7.19744 66.7281H35.7074C35.9308 66.7281 36.1121 66.5468 36.1121 66.323V64.8419C36.1121 64.6181 35.9308 64.4368 35.7074 64.4368Z" fill="#C9D2DF"/>
<path id="Vector_41" d="M35.7074 69.6494H7.19744C6.97404 69.6494 6.79297 69.8307 6.79297 70.0546V71.5356C6.79297 71.7594 6.97404 71.941 7.19744 71.941H35.7074C35.9308 71.941 36.1121 71.7594 36.1121 71.5356V70.0546C36.1121 69.8307 35.9308 69.6494 35.7074 69.6494Z" fill="#C9D2DF"/>
<path id="Vector_42" d="M41.0059 17.8644L41.466 18.7866L42.4844 18.9403L41.7451 19.6669L41.9264 20.6868L41.0059 20.1978L40.0853 20.6868L40.2666 19.6669L39.5273 18.9403L40.5454 18.7866L41.0059 17.8644Z" fill="#FF9C01"/>
<path id="Vector_43" d="M44.8301 17.8644L45.2902 18.7866L46.3086 18.9403L45.5693 19.6669L45.7506 20.6868L44.8301 20.1978L43.9095 20.6868L44.0908 19.6669L43.3516 18.9403L44.3697 18.7866L44.8301 17.8644Z" fill="#FF9C01"/>
<path id="Vector_44" d="M48.6525 17.8644L49.1129 18.7866L50.131 18.9403L49.3918 19.6669L49.5592 20.6868L48.6525 20.1978L47.732 20.6868L47.9133 19.6669L47.1602 18.9403L48.1924 18.7866L48.6525 17.8644Z" fill="#FF9C01"/>
<path id="Vector_45" d="M52.4728 17.8644L52.9333 18.7866L53.9514 18.9403L53.2121 19.6669L53.3795 20.6868L52.4728 20.1978L51.5523 20.6868L51.7336 19.6669L50.9805 18.9403L52.0124 18.7866L52.4728 17.8644Z" fill="#FF9C01"/>
<path id="Vector_46" d="M56.2932 17.8644L56.7394 18.7866L57.7717 18.9403L57.0324 19.6669L57.1998 20.6868L56.2932 20.1978L55.3726 20.6868L55.54 19.6669L54.8008 18.9403L55.8327 18.7866L56.2932 17.8644Z" fill="#FF9C01"/>
<path id="Vector_47" d="M41.0059 38.4081L41.466 39.3444L42.4844 39.484L41.7451 40.2104L41.9264 41.2306L41.0059 40.7555L40.0853 41.2306L40.2666 40.2104L39.5273 39.484L40.5454 39.3444L41.0059 38.4081Z" fill="#FF9C01"/>
<path id="Vector_48" d="M44.8301 38.4081L45.2902 39.3444L46.3086 39.484L45.5693 40.2104L45.7506 41.2306L44.8301 40.7555L43.9095 41.2306L44.0908 40.2104L43.3516 39.484L44.3697 39.3444L44.8301 38.4081Z" fill="#FF9C01"/>
<path id="Vector_49" d="M48.6525 38.4081L49.1129 39.3444L50.131 39.484L49.3918 40.2104L49.5592 41.2306L48.6525 40.7555L47.732 41.2306L47.9133 40.2104L47.1602 39.484L48.1924 39.3444L48.6525 38.4081Z" fill="#FF9C01"/>
<path id="Vector_50" d="M52.4728 38.4081L52.9333 39.3444L53.9514 39.484L53.2121 40.2104L53.3795 41.2306L52.4728 40.7555L51.5523 41.2306L51.7336 40.2104L50.9805 39.484L52.0124 39.3444L52.4728 38.4081Z" fill="#FF9C01"/>
<path id="Vector_51" d="M56.2932 38.4081L56.7394 39.3444L57.7717 39.484L57.0324 40.2104L57.1998 41.2306L56.2932 40.7555L55.3726 41.2306L55.54 40.2104L54.8008 39.484L55.8327 39.3444L56.2932 38.4081Z" fill="#FF9C01"/>
<path id="Vector_52" d="M41.0059 58.9576L41.466 59.8797L42.4844 60.0333L41.7451 60.7599L41.9264 61.7798L41.0059 61.2908L40.0853 61.7798L40.2666 60.7599L39.5273 60.0333L40.5454 59.8797L41.0059 58.9576Z" fill="#FF9C01"/>
<path id="Vector_53" d="M44.8301 58.9576L45.2902 59.8797L46.3086 60.0333L45.5693 60.7599L45.7506 61.7798L44.8301 61.2908L43.9095 61.7798L44.0908 60.7599L43.3516 60.0333L44.3697 59.8797L44.8301 58.9576Z" fill="#FF9C01"/>
<path id="Vector_54" d="M48.6525 58.9576L49.1129 59.8797L50.131 60.0333L49.3918 60.7599L49.5592 61.7798L48.6525 61.2908L47.732 61.7798L47.9133 60.7599L47.1602 60.0333L48.1924 59.8797L48.6525 58.9576Z" fill="#FF9C01"/>
<path id="Vector_55" d="M52.4728 58.9576L52.9333 59.8797L53.9514 60.0333L53.2121 60.7599L53.3795 61.7798L52.4728 61.2908L51.5523 61.7798L51.7336 60.7599L50.9805 60.0333L52.0124 59.8797L52.4728 58.9576Z" fill="#FF9C01"/>
<path id="Vector_56" d="M56.2932 58.9576L56.7394 59.8797L57.7717 60.0333L57.0324 60.7599L57.1998 61.7798L56.2932 61.2908L55.3726 61.7798L55.54 60.7599L54.8008 60.0333L55.8327 59.8797L56.2932 58.9576Z" fill="#FF9C01"/>
<path id="Vector_57" opacity="0.45" d="M32.3031 1.73155H25.7057C25.0894 1.73155 24.5898 2.232 24.5898 2.84932V2.8633C24.5898 3.48064 25.0894 3.98108 25.7057 3.98108H32.3031C32.9194 3.98108 33.4191 3.48064 33.4191 2.8633V2.84932C33.4191 2.232 32.9194 1.73155 32.3031 1.73155Z" fill="white"/>
<path id="Vector_58" opacity="0.45" d="M32.0105 6.47956C32.7884 6.47956 33.4192 6.06046 33.4192 5.54344C33.4192 5.02643 32.7884 4.6073 32.0105 4.6073C31.2323 4.6073 30.6016 5.02643 30.6016 5.54344C30.6016 6.06046 31.2323 6.47956 32.0105 6.47956Z" fill="white"/>
<path id="Vector_59" d="M82.9775 47.9777C83.386 47.9777 83.7168 47.6461 83.7168 47.2372C83.7168 46.828 83.386 46.4967 82.9775 46.4967C82.5694 46.4967 82.2383 46.828 82.2383 47.2372C82.2383 47.6461 82.5694 47.9777 82.9775 47.9777Z" fill="#4786D1"/>
<path id="Vector_60" d="M69.2671 8.50415H0.460938V9.57999H69.2671V8.50415Z" fill="#8F98D8"/>
<path id="Vector_61" d="M69.2823 10.2796H0.796778C0.667303 10.2796 0.54313 10.2281 0.451579 10.1364C0.360027 10.0447 0.308594 9.9203 0.308594 9.79061C0.308594 9.6609 0.360027 9.53653 0.451579 9.44481C0.54313 9.35312 0.667303 9.30159 0.796778 9.30159H69.2823C69.4116 9.30159 69.5357 9.35312 69.6275 9.44481C69.719 9.53653 69.7704 9.6609 69.7704 9.79061C69.7704 9.9203 69.719 10.0447 69.6275 10.1364C69.5357 10.2281 69.4116 10.2796 69.2823 10.2796Z" fill="#4786D1"/>
<path id="Vector_62" d="M0.795023 64.4614C0.689605 64.4675 0.584062 64.4513 0.485502 64.4131C0.386939 64.3752 0.297645 64.3165 0.223635 64.2411C0.149624 64.1656 0.0926128 64.0751 0.0564391 63.9756C0.0202657 63.8764 0.00576989 63.7703 0.0139278 63.6648V41.3095C0.0139278 41.1132 0.0918132 40.9246 0.23045 40.7858C0.369086 40.647 0.557119 40.569 0.753179 40.569C0.949243 40.569 1.13727 40.647 1.27591 40.7858C1.41455 40.9246 1.49243 41.1132 1.49243 41.3095V63.6648C1.50001 63.7634 1.48787 63.8623 1.45674 63.9559C1.42559 64.0496 1.37608 64.1361 1.31111 64.2101C1.24614 64.2844 1.16701 64.3449 1.07838 64.388C0.989753 64.431 0.893413 64.4559 0.795023 64.4614Z" fill="#4786D1"/>
<path id="Vector_63" d="M25.9034 89.3916H2.58209C2.24505 89.3916 1.91132 89.3251 1.59994 89.1959C1.28857 89.0669 1.00564 88.8775 0.767324 88.6386C0.529007 88.3998 0.339961 88.1164 0.210985 87.8047C0.0820084 87.4927 0.015625 87.1585 0.015625 86.8207V68.9503C0.0155929 68.7415 0.097439 68.5411 0.243535 68.3922C0.389633 68.2433 0.588289 68.1577 0.796721 68.1539C1.00515 68.1577 1.20381 68.2433 1.34991 68.3922C1.49601 68.5411 1.57785 68.7415 1.57782 68.9503V86.8207C1.57782 87.0876 1.68363 87.3435 1.87196 87.532C2.0603 87.7209 2.31574 87.8267 2.58209 87.8267H25.9034C26.1106 87.8267 26.3092 87.9091 26.4557 88.056C26.6022 88.2026 26.6845 88.4018 26.6845 88.6092C26.6845 88.8168 26.6022 89.0157 26.4557 89.1626C26.3092 89.3092 26.1106 89.3916 25.9034 89.3916Z" fill="#4786D1"/>
<path id="Vector_64" d="M67.4937 89.2511H47.157C46.987 89.2511 46.8239 89.1834 46.7035 89.0628C46.5832 88.9423 46.5156 88.7789 46.5156 88.6086C46.5156 88.438 46.5832 88.2746 46.7035 88.154C46.8239 88.0334 46.987 87.9658 47.157 87.9658H67.4937C67.6637 87.9658 67.8268 88.0334 67.9472 88.154C68.0675 88.2746 68.1351 88.438 68.1351 88.6086C68.1351 88.7789 68.0675 88.9423 67.9472 89.0628C67.8268 89.1834 67.6637 89.2511 67.4937 89.2511Z" fill="#4786D1"/>
<path id="Vector_65" d="M69.2825 80.8534C69.0865 80.8534 68.8986 80.7753 68.7597 80.6365C68.6212 80.4974 68.5432 80.3092 68.5432 80.1129V4.66311C68.536 3.87476 68.2211 3.12052 67.666 2.56173C67.1109 2.00294 66.3592 1.68398 65.5723 1.67306H51.708C51.5117 1.67306 51.3238 1.59505 51.1852 1.45617C51.0464 1.3173 50.9688 1.12894 50.9688 0.93254C50.9688 0.736142 51.0464 0.547786 51.1852 0.408912C51.3238 0.270036 51.5117 0.192017 51.708 0.192017L65.5723 0.192017C66.7599 0.192017 67.8986 0.66455 68.7384 1.50566C69.5781 2.34677 70.0497 3.48757 70.0497 4.67708V80.1267C70.0497 80.2259 70.0298 80.324 69.9909 80.4147C69.9516 80.5058 69.8944 80.5879 69.8226 80.6559C69.751 80.7238 69.6658 80.7765 69.5729 80.8106C69.4802 80.8444 69.3812 80.8589 69.2825 80.8534Z" fill="#4786D1"/>
<path id="Vector_66" d="M0.796721 35.1227C0.696181 35.1282 0.595534 35.1134 0.500958 35.0787C0.406378 35.044 0.319867 34.9906 0.246726 34.9212C0.173586 34.8518 0.11536 34.7682 0.0756198 34.6754C0.03588 34.5828 0.0154645 34.4831 0.015626 34.3822V4.67728C0.0174393 4.08408 0.136339 3.49712 0.365481 2.95012C0.594625 2.40315 0.92949 1.90696 1.3508 1.49012C1.77212 1.07327 2.27156 0.744001 2.8204 0.521255C3.36925 0.298509 3.95664 0.186683 4.54877 0.192212H45.1519C45.3479 0.192212 45.5359 0.270231 45.6747 0.409106C45.8133 0.547982 45.8912 0.736336 45.8912 0.932737C45.8912 1.12913 45.8133 1.31749 45.6747 1.45637C45.5359 1.59524 45.3479 1.67326 45.1519 1.67326H4.54877C3.75215 1.67325 2.98793 1.9893 2.42332 2.55226C1.85871 3.11523 1.53966 3.87927 1.53597 4.67728V34.3822C1.53597 34.5785 1.45809 34.7668 1.31945 34.9058C1.18081 35.0446 0.992785 35.1227 0.796721 35.1227Z" fill="#4786D1"/>
<path id="Vector_67" opacity="0.2" d="M20.4611 84.7784C21.555 84.7784 22.4417 83.8901 22.4417 82.7942C22.4417 81.6986 21.555 80.8103 20.4611 80.8103C19.3672 80.8103 18.4805 81.6986 18.4805 82.7942C18.4805 83.8901 19.3672 84.7784 20.4611 84.7784Z" fill="#C9D2DF"/>
<path id="Vector_68" opacity="0.2" d="M23.2365 80.0559C23.6755 80.0559 24.0315 79.6994 24.0315 79.2596C24.0315 78.8197 23.6755 78.4632 23.2365 78.4632C22.7974 78.4632 22.4414 78.8197 22.4414 79.2596C22.4414 79.6994 22.7974 80.0559 23.2365 80.0559Z" fill="#C9D2DF"/>
<path id="Vector_69" opacity="0.2" d="M14.9513 83.5926C15.3904 83.5926 15.7463 83.2358 15.7463 82.7959C15.7463 82.3561 15.3904 81.9996 14.9513 81.9996C14.5122 81.9996 14.1562 82.3561 14.1562 82.7959C14.1562 83.2358 14.5122 83.5926 14.9513 83.5926Z" fill="#C9D2DF"/>
<path id="Vector_70" d="M38.3295 95.411C40.0984 95.4113 41.8148 94.8101 43.1983 93.7061C44.5819 92.6021 45.5503 91.06 45.9452 89.3329H55.9877V93.6503H59.6421V89.3329H62.0273V93.6503H65.6818V89.3329H69.7547C69.986 89.3367 70.2154 89.2927 70.4288 89.2037C70.6424 89.1146 70.8355 88.9827 70.996 88.8159C71.1602 88.6563 71.2904 88.4652 71.379 88.2538C71.4676 88.0427 71.513 87.8157 71.5121 87.5864C71.5121 87.1194 71.3268 86.6718 70.9974 86.3416C70.6678 86.0114 70.2206 85.826 69.7547 85.826H45.9452C45.6144 84.3918 44.887 83.0805 43.8458 82.0418C42.8046 81.0035 41.4921 80.2803 40.0592 79.9553C38.6262 79.6303 37.1307 79.7167 35.7446 80.2045C34.3584 80.6926 33.138 81.5624 32.2229 82.7138C31.3079 83.8653 30.7357 85.252 30.5721 86.7146C30.4084 88.1774 30.6598 89.6565 31.2975 90.9826C31.9351 92.3083 32.9333 93.4274 34.1771 94.2107C35.421 94.994 36.8602 95.4098 38.3295 95.411ZM38.3295 84.0515C39.0275 84.0515 39.7096 84.2588 40.2901 84.6471C40.8703 85.0358 41.3226 85.5878 41.5896 86.2337C41.8566 86.8797 41.9268 87.5905 41.7905 88.276C41.6543 88.9619 41.3183 89.5917 40.8247 90.0862C40.3311 90.5803 39.7024 90.9172 39.018 91.0534C38.3333 91.1899 37.6237 91.1199 36.9789 90.8524C36.3343 90.5847 35.7829 90.1316 35.3953 89.5504C35.0076 88.9692 34.8006 88.2856 34.8006 87.5864C34.7969 87.12 34.8855 86.6574 35.061 86.2251C35.2368 85.7931 35.496 85.4001 35.8242 85.0687C36.1521 84.7376 36.5424 84.4748 36.9725 84.2952C37.4023 84.116 37.8636 84.0234 38.3295 84.0234V84.0515Z" fill="#FFB320"/>
<path id="Vector_71" d="M41.8438 88.1453H71.3996V87.2652H41.8438V88.1453Z" fill="#FFE56B"/>
<path id="Vector_72" d="M30.4609 88.1453H34.8128V87.2652H30.4609V88.1453Z" fill="#FFE56B"/>
<path id="Vector_73" d="M41.8438 87.7151H71.3996V86.8346H41.8438V87.7151Z" fill="#FFE56B"/>
<path id="Vector_74" d="M30.4609 87.7151H34.8128V86.8346H30.4609V87.7151Z" fill="#FFE56B"/>
<path id="Vector_75" d="M41.8594 90.5795H45.5557L45.1232 91.4597H41.8594V90.5795Z" fill="#FFE56B"/>
<path id="Vector_76" d="M31.1055 90.5795H34.8156V91.4597H31.3566L31.1055 90.5795Z" fill="#FFE56B"/>
<path id="Vector_77" d="M30.8555 85.4212C31.2506 83.7826 32.1637 82.3159 33.4583 81.2391C34.753 80.1623 36.3599 79.5331 38.0405 79.4452C39.7208 79.3573 41.3846 79.8153 42.7843 80.751C44.1838 81.6867 45.2443 83.0504 45.8078 84.6387C43.7998 83.0426 41.2992 82.1977 38.7362 82.2494C37.2753 82.2043 35.8207 82.4631 34.4643 83.0091C33.1082 83.5547 31.8793 84.3762 30.8555 85.4212Z" fill="#F27C00"/>
<path id="Vector_78" d="M65.1666 92.4069C65.078 92.4069 64.9928 92.3714 64.9299 92.3086C64.8672 92.2459 64.832 92.1606 64.832 92.0715V88.8578C64.832 88.8139 64.8407 88.7702 64.8574 88.7297C64.8742 88.689 64.899 88.6519 64.9299 88.6207C64.9611 88.5898 64.998 88.5649 65.0387 88.5481C65.0791 88.5314 65.1227 88.5227 65.1666 88.5227H68.7653C68.8542 88.5227 68.9394 88.558 69.002 88.6207C69.0649 88.6838 69.1002 88.7691 69.1002 88.8578C69.1002 88.9469 69.0649 89.0322 69.002 89.0949C68.9394 89.158 68.8542 89.1932 68.7653 89.1932H65.5713V92.1273C65.5543 92.2181 65.5023 92.2982 65.4264 92.3505C65.3508 92.4029 65.2572 92.4231 65.1666 92.4069Z" fill="white"/>
<path id="Vector_79" d="M64.1755 93.5245H62.5434C62.4548 93.5245 62.3697 93.4892 62.3067 93.4265C62.2441 93.3635 62.2089 93.2782 62.2089 93.1894V89.1932H59.9911C59.9022 89.1932 59.817 89.158 59.7544 89.0949C59.6915 89.0322 59.6562 88.9469 59.6562 88.8578C59.6562 88.7691 59.6915 88.6838 59.7544 88.6207C59.817 88.558 59.9022 88.5227 59.9911 88.5227H62.5157C62.5596 88.5227 62.6032 88.5314 62.6439 88.5481C62.6843 88.5649 62.7212 88.5898 62.7524 88.6207C62.7833 88.6519 62.8081 88.689 62.8249 88.7297C62.8416 88.7702 62.8503 88.8139 62.8503 88.8578V92.854H64.2451C64.2904 92.8519 64.3354 92.8595 64.3776 92.8754C64.4197 92.8913 64.4584 92.9158 64.491 92.9471C64.5236 92.9783 64.5496 93.0159 64.5672 93.0575C64.5848 93.0992 64.5941 93.144 64.5938 93.1894C64.5929 93.2406 64.5808 93.2909 64.558 93.3369C64.5355 93.3828 64.5031 93.423 64.463 93.4551C64.4232 93.4872 64.3767 93.5101 64.3271 93.5219C64.2774 93.5341 64.2254 93.5349 64.1755 93.5245Z" fill="white"/>
<path id="Vector_80" d="M58.2213 93.5245H56.5196C56.4307 93.5245 56.3456 93.4892 56.2829 93.4265C56.22 93.3635 56.1848 93.2782 56.1848 93.1894V89.1932H53.995C53.9061 89.1932 53.8209 89.158 53.7583 89.0949C53.6954 89.0322 53.6602 88.9469 53.6602 88.8578C53.6602 88.7691 53.6954 88.6838 53.7583 88.6207C53.8209 88.558 53.9061 88.5227 53.995 88.5227H56.5196C56.6082 88.5227 56.6934 88.558 56.7563 88.6207C56.819 88.6838 56.8542 88.7691 56.8542 88.8578V92.854H58.249C58.3379 92.854 58.423 92.8892 58.4857 92.9523C58.5486 93.015 58.5838 93.1003 58.5838 93.1894C58.5841 93.2357 58.5746 93.2819 58.5558 93.3244C58.5374 93.3669 58.5102 93.4054 58.4762 93.4369C58.4421 93.4684 58.4017 93.4924 58.3578 93.5075C58.3139 93.5228 58.2675 93.5286 58.2213 93.5245Z" fill="white"/>
<path id="Vector_81" d="M38.331 95.9459C37.207 95.9465 36.0942 95.7204 35.0594 95.2809C34.0242 94.8413 33.0884 94.1974 32.3073 93.3875C31.5262 92.5778 30.9159 91.6187 30.513 90.5673C30.1103 89.5162 29.9227 88.3943 29.9622 87.2692C30.073 85.3035 30.8709 83.4396 32.2161 82.0045C33.5612 80.5692 35.3676 79.6537 37.319 79.4186C39.27 79.1838 41.2416 79.6441 42.8881 80.7192C44.5343 81.7946 45.7504 83.4159 46.3232 85.2989H69.7563C70.0706 85.2743 70.3867 85.3151 70.6849 85.4186C70.9828 85.5224 71.2561 85.6866 71.4879 85.9012C71.7194 86.1158 71.9042 86.376 72.0306 86.6654C72.1571 86.9549 72.2223 87.2675 72.2223 87.5835C72.2223 87.8996 72.1571 88.2121 72.0306 88.5016C71.9042 88.791 71.7194 89.0513 71.4879 89.2658C71.2561 89.4804 70.9828 89.6446 70.6849 89.7481C70.3867 89.8517 70.0706 89.8924 69.7563 89.8679H66.2133V93.0954C66.2133 93.382 66.1007 93.6572 65.8998 93.8611C65.6986 94.0652 65.4255 94.1815 65.1394 94.1852H62.5868C62.2982 94.1852 62.0216 94.0705 61.8175 93.866C61.6135 93.6616 61.4989 93.3846 61.4989 93.0954V89.8679H60.1739V93.0257C60.1739 93.3331 60.0518 93.628 59.8347 93.8458C59.6177 94.0632 59.3232 94.1852 59.0161 94.1852H56.6171C56.3099 94.1852 56.0155 94.0632 55.7984 93.8458C55.5813 93.628 55.4592 93.3331 55.4592 93.0257V89.8679H51.0098C50.8857 89.8476 50.7731 89.7837 50.6917 89.6877C50.6103 89.5917 50.5656 89.47 50.5656 89.3439C50.5656 89.2181 50.6103 89.0961 50.6917 89.0001C50.7731 88.9041 50.8857 88.8405 51.0098 88.8199H55.9895C56.1275 88.8237 56.2588 88.8812 56.3552 88.9804C56.4516 89.0796 56.5056 89.2126 56.5053 89.3508V93.0257C56.5085 93.0544 56.5212 93.081 56.5414 93.1012C56.5619 93.1217 56.5885 93.1345 56.6171 93.1373H59.0161C59.0447 93.1345 59.0712 93.1217 59.0917 93.1012C59.1119 93.081 59.1246 93.0544 59.1278 93.0257V89.3508C59.1275 89.2126 59.1815 89.0796 59.2779 88.9804C59.3743 88.8812 59.5057 88.8237 59.6436 88.8199H62.0288C62.0978 88.8199 62.1662 88.8338 62.2298 88.8607C62.2933 88.8876 62.3507 88.9269 62.3989 88.9764C62.4471 89.0258 62.4846 89.0845 62.5098 89.1487C62.5349 89.2132 62.547 89.2817 62.545 89.3508V93.0954H65.1394V89.3089C65.1394 89.1707 65.1931 89.0377 65.2895 88.9385C65.386 88.8393 65.5173 88.7818 65.6556 88.778H69.7563C69.9173 88.7795 70.0773 88.7482 70.2259 88.6858C70.3746 88.6233 70.5091 88.5311 70.6211 88.4148C70.7357 88.3018 70.8269 88.167 70.8893 88.0181C70.9516 87.8695 70.9836 87.7099 70.9836 87.5485C70.9854 87.386 70.9551 87.2244 70.8942 87.0737C70.8333 86.9228 70.7432 86.7857 70.6292 86.6701C70.5149 86.5544 70.3789 86.4624 70.2291 86.4C70.0793 86.3372 69.9185 86.3049 69.7563 86.3049H45.9467C45.8295 86.3046 45.7158 86.2644 45.6246 86.1906C45.5334 86.1169 45.4699 86.0146 45.4445 85.8998C45.053 84.2767 44.1184 82.837 42.7963 81.82C41.474 80.8031 39.8439 80.2707 38.1775 80.3109C36.3323 80.3711 34.577 81.122 33.2573 82.4154C31.9378 83.7085 31.1503 85.4504 31.0502 87.297C30.9991 88.5562 31.2747 89.8074 31.85 90.9282C32.4256 92.049 33.2812 93.0012 34.3334 93.6922C35.3855 94.383 36.5985 94.7893 37.8542 94.8708C39.1095 94.9521 40.3646 94.7066 41.4973 94.1575C41.5594 94.1268 41.6269 94.1092 41.6959 94.1054C41.7649 94.1017 41.8339 94.1118 41.8992 94.1352C41.9641 94.1586 42.0239 94.1951 42.0747 94.2419C42.1255 94.2891 42.1662 94.3457 42.1947 94.4088C42.2533 94.5334 42.2611 94.6759 42.217 94.8061C42.1728 94.9365 42.0799 95.0446 41.9575 95.1074C40.8268 95.6559 39.5873 95.9424 38.331 95.9459ZM44.7889 92.5226C44.6853 92.5232 44.5837 92.494 44.4962 92.4387C44.4388 92.4009 44.3894 92.3517 44.351 92.2945C44.3129 92.2369 44.2867 92.1727 44.2737 92.1051C44.2607 92.0371 44.2613 91.9677 44.2754 91.9C44.2898 91.8327 44.3173 91.7688 44.3565 91.7121C44.8703 90.958 45.2392 90.1148 45.4445 89.2251C45.4699 89.1106 45.5334 89.0079 45.6246 88.9345C45.7158 88.8607 45.8295 88.8205 45.9467 88.8199H49.0152C49.0911 88.8075 49.1688 88.8119 49.2429 88.8324C49.3168 88.8529 49.3855 88.8893 49.4441 88.9394C49.5027 88.9891 49.5498 89.0513 49.5821 89.121C49.6142 89.1909 49.6309 89.267 49.6309 89.3439C49.6309 89.4208 49.6142 89.4969 49.5821 89.5668C49.5498 89.6368 49.5027 89.6987 49.4441 89.7487C49.3855 89.7985 49.3168 89.8349 49.2429 89.8554C49.1688 89.8762 49.0911 89.8803 49.0152 89.8679H46.365C46.1168 90.7347 45.7308 91.5557 45.2213 92.2991C45.174 92.3699 45.1096 92.4278 45.034 92.4668C44.9584 92.5058 44.8741 92.5252 44.7889 92.5226ZM38.331 91.6424C37.5309 91.6424 36.7489 91.4047 36.0838 90.9594C35.4185 90.5144 34.9 89.8814 34.594 89.1409C34.2878 88.4007 34.2078 87.5858 34.3637 86.7999C34.5199 86.014 34.9052 85.2919 35.4707 84.7252C36.0365 84.1587 36.7573 83.7727 37.5418 83.6163C38.3264 83.4601 39.1399 83.5402 39.8788 83.847C40.6181 84.1535 41.2497 84.6729 41.6942 85.3394C42.1387 86.0056 42.376 86.7889 42.376 87.5905C42.376 88.665 41.9497 89.6958 41.1914 90.4557C40.4328 91.2153 39.4037 91.6424 38.331 91.6424ZM38.331 84.5864C37.7378 84.5864 37.1582 84.7625 36.6649 85.0927C36.1719 85.4226 35.7874 85.892 35.5605 86.4408C35.3336 86.9899 35.2741 87.5936 35.3899 88.1766C35.5056 88.7592 35.7911 89.2945 36.2105 89.7146C36.63 90.1347 37.1643 90.4207 37.7459 90.5367C38.3276 90.6526 38.9306 90.5931 39.4787 90.3658C40.0266 90.1385 40.4948 89.7533 40.8245 89.2595C41.1538 88.7653 41.3299 88.1847 41.3299 87.5905C41.3299 86.7938 41.0138 86.0296 40.4515 85.4663C39.8892 84.903 39.1263 84.5864 38.331 84.5864Z" fill="#4786D1"/>
<path id="Vector_82" d="M43.461 94.1714C43.7846 94.1714 44.0467 93.9085 44.0467 93.5847C44.0467 93.2605 43.7846 92.9977 43.461 92.9977C43.1374 92.9977 42.875 93.2605 42.875 93.5847C42.875 93.9085 43.1374 94.1714 43.461 94.1714Z" fill="#4786D1"/>
<path id="Vector_83" d="M0.796741 38.5055C1.1742 38.5055 1.4802 38.199 1.4802 37.8208C1.4802 37.4429 1.1742 37.1364 0.796741 37.1364C0.419278 37.1364 0.113281 37.4429 0.113281 37.8208C0.113281 38.199 0.419278 38.5055 0.796741 38.5055Z" fill="#4786D1"/>
<path id="Vector_84" d="M48.4296 1.6155C48.8072 1.6155 49.1132 1.30898 49.1132 0.930867C49.1132 0.552754 48.8072 0.246231 48.4296 0.246231C48.0521 0.246231 47.7461 0.552754 47.7461 0.930867C47.7461 1.30898 48.0521 1.6155 48.4296 1.6155Z" fill="#4786D1"/>
<path id="Vector_85" d="M60.9251 24.4471C60.8699 24.4608 60.8125 24.4608 60.7576 24.4471C60.708 24.4272 60.663 24.3976 60.6246 24.36C60.5865 24.3225 60.5562 24.2777 60.5354 24.2283C60.5146 24.179 60.5039 24.1259 60.5039 24.0724C60.5036 24.0188 60.514 23.9657 60.5345 23.9162L62.7803 18.6208C62.8207 18.5207 62.8995 18.4409 62.9988 18.399C63.0984 18.3571 63.2104 18.3564 63.3103 18.3972C63.4101 18.4379 63.4898 18.5168 63.5317 18.6164C63.5735 18.7159 63.5741 18.8281 63.5334 18.9281L61.3018 24.1956C61.2746 24.2728 61.2233 24.339 61.1551 24.3844C61.0873 24.4297 61.0065 24.4518 60.9251 24.4471Z" fill="#4786D1"/>
<path id="Vector_86" d="M63.8682 21.9077C63.8177 21.9202 63.7652 21.9202 63.715 21.9077C63.6653 21.8878 63.62 21.8582 63.5819 21.8206C63.5438 21.783 63.5135 21.7383 63.4927 21.6889C63.4719 21.6395 63.4612 21.5865 63.4609 21.5329C63.4607 21.4794 63.4713 21.4263 63.4915 21.3768L64.6774 18.5824C64.6973 18.5328 64.727 18.4877 64.7645 18.4497C64.8021 18.4116 64.8468 18.3814 64.8962 18.3606C64.9452 18.3398 64.9981 18.329 65.0515 18.3287C65.1049 18.3284 65.1577 18.3386 65.2073 18.3588C65.2567 18.379 65.3017 18.4087 65.3398 18.4463C65.3776 18.4839 65.408 18.5287 65.4287 18.578C65.4492 18.6273 65.4602 18.6802 65.4605 18.7337C65.4608 18.7872 65.4507 18.8402 65.4305 18.8897L64.2308 21.6842C64.1985 21.7526 64.1471 21.8101 64.0827 21.8498C64.0183 21.8895 63.9439 21.9096 63.8682 21.9077Z" fill="#4786D1"/>
</g>
</g>
</g>
</g>
</g>
</g>
</g>
<defs>
<clipPath id="clip0_1740_29728">
<rect width="84" height="96" fill="white"/>
</clipPath>
</defs>
</svg>
