<svg width="100" height="100" viewBox="0 0 100 100" fill="none" xmlns="http://www.w3.org/2000/svg">
<g clip-path="url(#clip0_1203:28399)">
<rect width="100" height="100" rx="24" fill="#EDF1FA"/>
<g filter="url(#filter0_d_1203:28399)">
<path d="M51.9725 30.8501C51.7478 29.6956 51.6585 25.8781 51.636 22.2178C51.6293 21.1132 50.7346 20.2178 49.63 20.2178H47.0117C45.9072 20.2178 45.0102 21.1201 45.0224 22.2246C45.1577 34.4603 46.5721 37.8432 49.0257 40.7825C51.63 43.3852 54.9392 43.3852 54.9392 43.3852C55.4753 41.7455 58.1474 36.3284 54.8862 36.249C52.0784 36.1778 51.9858 30.9146 51.9725 30.8501Z" fill="#4B7FFB" fill-opacity="0.01"/>
<path d="M51.6303 45.0396C51.6303 46.5221 53.1327 63.9977 43.2995 63.9977C35.9946 63.9977 35.5793 61.5854 30.1208 61.5854C27.7763 61.5854 25.7478 62.7552 23.5571 66.5375C22.4824 68.3918 21.0724 72.1632 20.4776 73.8089C20.293 74.3196 20.329 74.8871 20.6896 75.2931C21.4308 76.1274 23.0686 77.385 26.0417 77.0467C26.4244 77.0031 26.7273 76.7193 26.8197 76.3454C27.2324 74.6753 28.2817 70.7782 30.3856 70.7782C32.3727 70.7782 33.5971 70.8262 36.486 73.4917C40.0152 76.7463 43.5543 79.7824 51.1637 79.7824C63.5284 79.7824 75.5704 71.8967 78.863 56.2808C82.9051 37.1009 73.1398 28.4938 64.8669 28.4938C57.4759 28.4938 51.6303 31.5217 51.6303 45.0396Z" fill="#4B80FB" fill-opacity="0.01"/>
</g>
<path d="M51.9725 30.8501C51.7478 29.6956 51.6585 25.8781 51.636 22.2178C51.6293 21.1132 50.7346 20.2178 49.63 20.2178H47.0117C45.9072 20.2178 45.0102 21.1201 45.0224 22.2246C45.1577 34.4603 46.5721 37.8432 49.0257 40.7825C51.63 43.3852 54.9392 43.3852 54.9392 43.3852C55.4753 41.7455 58.1474 36.3284 54.8862 36.249C52.0784 36.1778 51.9858 30.9146 51.9725 30.8501Z" fill="#4B7FFB"/>
<path d="M51.6303 45.0396C51.6303 46.5221 53.1327 63.9977 43.2995 63.9977C35.9946 63.9977 35.5793 61.5854 30.1208 61.5854C27.7763 61.5854 25.7478 62.7552 23.5571 66.5375C22.4824 68.3918 21.0724 72.1632 20.4776 73.8089C20.293 74.3196 20.329 74.8871 20.6896 75.2931C21.4308 76.1274 23.0686 77.385 26.0417 77.0467C26.4244 77.0031 26.7273 76.7193 26.8197 76.3454C27.2324 74.6753 28.2817 70.7782 30.3856 70.7782C32.3727 70.7782 33.5971 70.8262 36.486 73.4917C40.0152 76.7463 43.5543 79.7824 51.1637 79.7824C63.5284 79.7824 75.5704 71.8967 78.863 56.2808C82.9051 37.1009 73.1398 28.4938 64.8669 28.4938C57.4759 28.4938 51.6303 31.5217 51.6303 45.0396Z" fill="#4B80FB"/>
</g>
<defs>
<filter id="filter0_d_1203:28399" x="4.36816" y="10.2178" width="91.4375" height="91.5646" filterUnits="userSpaceOnUse" color-interpolation-filters="sRGB">
<feFlood flood-opacity="0" result="BackgroundImageFix"/>
<feColorMatrix in="SourceAlpha" type="matrix" values="0 0 0 0 0 0 0 0 0 0 0 0 0 0 0 0 0 0 127 0" result="hardAlpha"/>
<feOffset dy="6"/>
<feGaussianBlur stdDeviation="8"/>
<feColorMatrix type="matrix" values="0 0 0 0 0.294118 0 0 0 0 0.501961 0 0 0 0 0.984314 0 0 0 0.25 0"/>
<feBlend mode="normal" in2="BackgroundImageFix" result="effect1_dropShadow_1203:28399"/>
<feBlend mode="normal" in="SourceGraphic" in2="effect1_dropShadow_1203:28399" result="shape"/>
</filter>
<clipPath id="clip0_1203:28399">
<rect width="100" height="100" fill="white"/>
</clipPath>
</defs>
</svg>
