<svg width="142" height="81" viewBox="0 0 142 81" fill="none" xmlns="http://www.w3.org/2000/svg">
<g id="Asset 20">
<g id="Clip path group">
<mask id="mask0_1740_29659" style="mask-type:luminance" maskUnits="userSpaceOnUse" x="0" y="0" width="142" height="81">
<g id="clip0_3_49754">
<path id="Vector" d="M142 0H0V81H142V0Z" fill="white"/>
</g>
</mask>
<g mask="url(#mask0_1740_29659)">
<g id="Asset 20_2">
<g id="Layer 2">
<g id="Layer 1">
<path id="Vector_2" d="M134.505 48.9896C129.487 61.8163 120.052 73.0539 106.946 77.9926C105.242 78.6339 103.501 79.178 101.733 79.6221C92.3834 81.9753 82.1544 81.1568 73.5353 76.8688C69.8772 75.0475 66.5415 72.6408 62.8702 70.8456C59.1988 69.0505 55.0063 67.8755 51.0104 68.7616C47.5698 69.5246 44.6669 71.7111 41.7442 73.6589C34.8542 78.2509 26.5697 81.8849 18.411 80.3077C14.6569 79.5828 10.9601 77.5751 9.21663 74.2191C5.3631 66.7997 12.6307 57.9786 11.1589 49.7733C10.217 44.5218 5.91518 40.5892 3.2409 35.9546C-1.33587 28.0273 -0.79483 17.4971 4.57141 10.069C9.93765 2.64084 19.8442 -1.2994 28.9271 0.385693C40.0029 2.44138 48.3769 11.6941 59.147 14.9684C65.8824 17.0142 73.1952 16.4039 79.6281 13.7094C90.0216 9.35505 104.301 2.67681 115.997 3.7646C122.217 4.34337 128.317 7.0683 132.423 11.7213C137.612 17.5952 139.168 25.9345 138.302 33.6799C137.708 38.9229 136.432 44.0686 134.505 48.9896Z" fill="url(#paint0_linear_1740_29659)"/>
<path id="Vector_2_2" d="M137.849 59.1352C137.618 59.1349 137.389 59.1075 137.164 59.0535C136.456 58.8815 135.84 58.4491 135.444 57.8444C135.048 57.2397 134.9 56.5083 135.031 55.7997C135.161 55.0911 135.562 54.4586 136.15 54.0313C136.737 53.6042 137.468 53.4144 138.192 53.501C138.917 53.5875 139.58 53.9437 140.047 54.4969C140.516 55.05 140.751 55.7585 140.708 56.4775C140.663 57.1966 140.343 57.8721 139.812 58.3659C139.281 58.8599 138.579 59.135 137.849 59.1352ZM137.849 54.7557C137.469 54.7571 137.104 54.8956 136.82 55.1448C136.536 55.3941 136.355 55.7371 136.31 56.1093C136.266 56.4813 136.359 56.8567 136.576 57.165C136.791 57.4732 137.114 57.6929 137.482 57.7826C137.695 57.8333 137.917 57.8387 138.134 57.7986C138.349 57.7586 138.553 57.6739 138.733 57.5501C138.913 57.4264 139.066 57.2664 139.178 57.0806C139.291 56.8949 139.364 56.6877 139.389 56.4726C139.416 56.2575 139.395 56.0394 139.33 55.8326C139.264 55.6258 139.155 55.4351 139.009 55.2729C138.864 55.1107 138.686 54.9808 138.485 54.8916C138.285 54.8025 138.069 54.7562 137.849 54.7557Z" fill="#4786D1"/>
<path id="Vector_3" d="M135.237 62.1335C135.4 61.4707 134.988 60.803 134.315 60.6423C133.644 60.4815 132.968 60.8887 132.805 61.5515C132.643 62.2143 133.054 62.8819 133.726 63.0426C134.398 63.2033 135.074 62.7963 135.237 62.1335Z" fill="#4786D1"/>
<path id="Vector_4" d="M6.09126 58.8658C5.33287 58.8494 4.61161 58.5385 4.08409 58.0003C3.55655 57.4622 3.26532 56.7404 3.27361 55.9917C3.28189 55.2429 3.58904 54.5276 4.12836 54.001C4.66766 53.4744 5.39563 53.1791 6.1542 53.1791C6.91278 53.1791 7.64074 53.4744 8.18005 54.001C8.71937 54.5276 9.02651 55.2429 9.0348 55.9917C9.04308 56.7404 8.75185 57.4622 8.22432 58.0003C7.69678 58.5385 6.97553 58.8494 6.21714 58.8658H6.09126ZM6.09126 54.4874H6.02612C5.61651 54.4962 5.22694 54.6641 4.94198 54.9546C4.65703 55.2452 4.49969 55.635 4.50412 56.0395C4.50855 56.4439 4.67441 56.8302 4.96568 57.1146C5.25693 57.399 5.65009 57.5586 6.05979 57.5586C6.46949 57.5586 6.86265 57.399 7.15392 57.1146C7.44519 56.8302 7.61103 56.4439 7.61547 56.0395C7.61991 55.635 7.46257 55.2452 7.17761 54.9546C6.89264 54.6641 6.50307 54.4962 6.09347 54.4874H6.09126Z" fill="#4786D1"/>
<path id="Vector_5" d="M4.03933 63.6379C4.72961 63.6085 5.26506 63.0323 5.23528 62.3508C5.2055 61.6695 4.62178 61.1409 3.9315 61.1703C3.24123 61.1997 2.70579 61.7759 2.73556 62.4573C2.76534 63.1387 3.34905 63.6673 4.03933 63.6379Z" fill="#4786D1"/>
<path id="Vector_6" d="M78.2902 12.8897C77.6027 12.8902 76.9378 12.6479 76.4158 12.2065C75.8936 11.765 75.5489 11.1537 75.4439 10.483C75.339 9.8124 75.4806 9.12682 75.8434 8.55038C76.2061 7.97395 76.7659 7.54476 77.4214 7.34047C78.0769 7.13619 78.7849 7.17033 79.4171 7.4367C80.0493 7.70308 80.5641 8.18409 80.8682 8.79266C81.1723 9.40125 81.2456 10.0972 81.0749 10.7545C80.9042 11.4119 80.5007 11.9872 79.9376 12.3763C79.4546 12.7098 78.8796 12.889 78.2902 12.8897ZM78.2814 8.51231C77.8791 8.5119 77.4923 8.66473 77.2014 8.93897C76.9105 9.2132 76.7381 9.58765 76.7201 9.98429C76.702 10.3809 76.8397 10.7692 77.1044 11.0681C77.3692 11.367 77.7405 11.5535 78.1412 11.5887C78.5418 11.6239 78.9408 11.5052 79.2549 11.2571C79.569 11.0091 79.7741 10.6511 79.8273 10.2575C79.8805 9.86395 79.7778 9.46529 79.5407 9.14464C79.3035 8.82399 78.95 8.60606 78.5541 8.53629C78.4641 8.52044 78.3728 8.51242 78.2814 8.51231Z" fill="#4786D1"/>
<path id="Vector_7" d="M72.4225 12.7345C72.9882 12.3428 73.1252 11.5728 72.7285 11.0143C72.3318 10.4559 71.5517 10.3207 70.986 10.7122C70.4202 11.1039 70.2833 11.8739 70.6799 12.4324C71.0767 12.9908 71.8569 13.1261 72.4225 12.7345Z" fill="#4786D1"/>
<path id="Vector_8" d="M141.992 27.5388C141.992 26.3404 141.51 25.1909 140.652 24.3435C139.793 23.4959 138.629 23.0198 137.414 23.0198C137.313 23.0198 137.212 23.0198 137.113 23.0296C137.119 22.9315 137.123 22.8324 137.123 22.7321C137.123 22.0899 136.984 21.455 136.715 20.8699C136.447 20.2847 136.056 19.7627 135.567 19.3387C135.078 18.9147 134.504 18.5984 133.881 18.4109C133.259 18.2233 132.603 18.1689 131.959 18.2512C131.313 18.3336 130.693 18.5507 130.139 18.8882C129.586 19.2258 129.111 19.6759 128.748 20.2086C128.384 20.7414 128.14 21.3444 128.031 21.9776C127.923 22.6109 127.952 23.2597 128.117 23.8809C127.564 23.4849 126.928 23.2161 126.256 23.0944C125.583 22.9726 124.892 23.0011 124.233 23.1775C123.572 23.3539 122.962 23.6739 122.443 24.1141C121.925 24.5542 121.514 25.1032 121.238 25.7208C120.963 26.3385 120.832 27.009 120.854 27.6834C120.876 28.3577 121.05 29.0186 121.365 29.6177C121.679 30.2168 122.125 30.7388 122.67 31.1453C123.216 31.552 123.846 31.8329 124.516 31.9674C124.79 32.6833 125.243 33.319 125.834 33.8148C126.423 34.3105 127.132 34.6502 127.891 34.8021C128.65 34.9539 129.438 34.9129 130.176 34.6829C130.915 34.4529 131.583 34.0413 132.118 33.4868C132.664 33.894 133.296 34.175 133.967 34.3091C134.638 34.4433 135.331 34.4271 135.994 34.2619C136.659 34.0967 137.276 33.7864 137.803 33.3544C138.33 32.9222 138.75 32.379 139.036 31.7647C139.905 31.4395 140.653 30.8612 141.182 30.1064C141.709 29.3516 141.992 28.4562 141.992 27.5388Z" fill="white"/>
<path id="Vector_9" d="M21.1393 16.6763C21.1398 16.0826 21.0219 15.4946 20.7922 14.9459C20.5624 14.3972 20.2255 13.8985 19.8004 13.4785C19.3754 13.0584 18.8706 12.7251 18.315 12.4977C17.7595 12.2702 17.1639 12.153 16.5625 12.1529C16.4609 12.1529 16.3604 12.1529 16.2611 12.1627C16.2677 12.0647 16.271 11.9655 16.271 11.8652C16.2709 11.223 16.1321 10.5881 15.8638 10.0029C15.5956 9.41776 15.204 8.89578 14.7153 8.47178C14.2266 8.04777 13.6519 7.73146 13.0296 7.54395C12.4073 7.35643 11.7517 7.30203 11.1064 7.38435C10.4611 7.46666 9.84105 7.68381 9.28749 8.02132C8.73391 8.35884 8.2596 8.80897 7.89614 9.34168C7.53267 9.8744 7.28843 10.4775 7.17967 11.1107C7.07091 11.744 7.10015 12.3928 7.26543 13.014C6.71216 12.6179 6.07606 12.3491 5.40382 12.2275C4.73158 12.1057 4.04027 12.1342 3.38059 12.3106C2.72093 12.487 2.10966 12.807 1.59164 13.2472C1.07362 13.6873 0.661994 14.2363 0.386977 14.8539C0.111962 15.4716 -0.0194698 16.1421 0.00232943 16.8165C0.0241287 17.4907 0.198605 18.1517 0.512955 18.7507C0.827304 19.3499 1.27355 19.8719 1.81894 20.2784C2.36433 20.685 2.99503 20.966 3.66475 21.1005C3.93845 21.8157 4.39151 22.4508 4.98152 22.946C5.57153 23.4414 6.27921 23.7808 7.03832 23.9327C7.79742 24.0845 8.58313 24.0436 9.32192 23.8141C10.0607 23.5845 10.7284 23.1736 11.2625 22.6199C11.809 23.0271 12.441 23.3081 13.112 23.4422C13.783 23.5764 14.476 23.5602 15.1398 23.3949C15.8036 23.2296 16.4215 22.9196 16.9479 22.4874C17.4742 22.0552 17.8957 21.5121 18.1812 20.8978C19.0497 20.5733 19.7978 19.9957 20.3262 19.2418C20.8545 18.4878 21.138 17.5931 21.1393 16.6763Z" fill="white"/>
<path id="Vector_10" d="M105.36 80.9771H39.4961V79.5601H105.36C105.55 79.5601 105.732 79.6348 105.867 79.7676C106.002 79.9004 106.077 80.0807 106.077 80.2686C106.077 80.4565 106.002 80.6367 105.867 80.7696C105.732 80.9024 105.55 80.9771 105.36 80.9771Z" fill="#4786D1"/>
<path id="Vector_11" d="M36.5454 80.9771H32.5185C32.3281 80.9771 32.1456 80.9024 32.011 80.7696C31.8764 80.6367 31.8008 80.4565 31.8008 80.2686C31.8008 80.0807 31.8764 79.9004 32.011 79.7676C32.1456 79.6348 32.3281 79.5601 32.5185 79.5601H36.5454C36.7357 79.5601 36.9183 79.6348 37.0529 79.7676C37.1874 79.9004 37.2631 80.0807 37.2631 80.2686C37.2631 80.4565 37.1874 80.6367 37.0529 80.7696C36.9183 80.9024 36.7357 80.9771 36.5454 80.9771Z" fill="#4786D1"/>
<path id="Vector_12" d="M29.907 80.9771H28.624C28.4336 80.9771 28.2511 80.9024 28.1165 80.7696C27.9819 80.6367 27.9062 80.4565 27.9062 80.2686C27.9062 80.0807 27.9819 79.9004 28.1165 79.7676C28.2511 79.6348 28.4336 79.5601 28.624 79.5601H29.907C30.0974 79.5601 30.2799 79.6348 30.4145 79.7676C30.5491 79.9004 30.6247 80.0807 30.6247 80.2686C30.6247 80.4565 30.5491 80.6367 30.4145 80.7696C30.2799 80.9024 30.0974 80.9771 29.907 80.9771Z" fill="#4786D1"/>
<path id="Vector_13" d="M128.451 80.9771H108.207V79.5601H128.451C128.641 79.5601 128.824 79.6348 128.959 79.7676C129.093 79.9004 129.168 80.0807 129.168 80.2686C129.168 80.4565 129.093 80.6367 128.959 80.7696C128.824 80.9024 128.641 80.9771 128.451 80.9771Z" fill="#4786D1"/>
<path id="Vector_14" d="M24.9558 80.9771H4.71094V79.5601H24.9558C25.1462 79.5601 25.3287 79.6348 25.4633 79.7676C25.5979 79.9004 25.6735 80.0807 25.6735 80.2686C25.6735 80.4565 25.5979 80.6367 25.4633 80.7696C25.3287 80.9024 25.1462 80.9771 24.9558 80.9771Z" fill="#4786D1"/>
<path id="Vector_15" d="M78.6168 19.0547V80.3458H11.3555V19.0547C11.3567 18.7229 11.4907 18.405 11.7283 18.1704C11.9661 17.9358 12.288 17.8035 12.6242 17.8023H77.347C77.4233 17.8023 77.4995 17.8093 77.5744 17.823C77.8664 17.8761 78.1304 18.0283 78.3207 18.2532C78.511 18.4781 78.6158 18.7616 78.6168 19.0547Z" fill="white"/>
<path id="Vector_16" d="M12.4122 23.8571H78.8266V19.4536L77.5568 17.8023H19.3927H12.6242L11.5664 19.4536V23.8571H12.4122Z" fill="#4786D1"/>
<path id="Vector_17" d="M79.4914 80.9998H10.9062V19.0546C10.9068 18.5492 11.1105 18.0647 11.4726 17.7073C11.8345 17.3499 12.3254 17.1488 12.8374 17.1483H77.5592C78.0712 17.1488 78.5621 17.3499 78.924 17.7073C79.2861 18.0647 79.4898 18.5492 79.4903 19.0546L79.4914 80.9998ZM12.2312 79.6918H78.1664V19.0546C78.1661 18.896 78.1022 18.744 77.9886 18.6318C77.8749 18.5197 77.7209 18.4565 77.5603 18.4562H12.8374C12.6768 18.4565 12.5227 18.5197 12.4091 18.6318C12.2955 18.744 12.2316 18.896 12.2312 19.0546V79.6918Z" fill="#4786D1"/>
<path id="Vector_18" d="M15.4317 21.8994C15.8989 21.8994 16.2775 21.5256 16.2775 21.0645C16.2775 20.6034 15.8989 20.2296 15.4317 20.2296C14.9647 20.2296 14.5859 20.6034 14.5859 21.0645C14.5859 21.5256 14.9647 21.8994 15.4317 21.8994Z" fill="#CADCE8"/>
<path id="Vector_19" d="M17.963 21.8994C18.4301 21.8994 18.8088 21.5256 18.8088 21.0645C18.8088 20.6034 18.4301 20.2296 17.963 20.2296C17.4959 20.2296 17.1172 20.6034 17.1172 21.0645C17.1172 21.5256 17.4959 21.8994 17.963 21.8994Z" fill="#CADCE8"/>
<path id="Vector_20" d="M20.5059 21.8994C20.9731 21.8994 21.3517 21.5256 21.3517 21.0645C21.3517 20.6034 20.9731 20.2296 20.5059 20.2296C20.0389 20.2296 19.6602 20.6034 19.6602 21.0645C19.6602 21.5256 20.0389 21.8994 20.5059 21.8994Z" fill="#CADCE8"/>
<path id="Vector_21" d="M75.5229 20.2288H24.081C23.6846 20.2288 23.3633 20.5459 23.3633 20.9372V21.1901C23.3633 21.5814 23.6846 21.8986 24.081 21.8986H75.5229C75.9193 21.8986 76.2406 21.5814 76.2406 21.1901V20.9372C76.2406 20.5459 75.9193 20.2288 75.5229 20.2288Z" fill="#CADCE8"/>
<path id="Vector_22" d="M123.348 7.15313V80.3457H56.0898V7.15313C56.0911 6.82133 56.225 6.50346 56.4627 6.26884C56.7003 6.03422 57.0224 5.90191 57.3585 5.90076H122.08C122.156 5.90078 122.233 5.90771 122.308 5.92147C122.599 5.97504 122.863 6.12741 123.053 6.35228C123.243 6.57714 123.347 6.86039 123.348 7.15313Z" fill="white"/>
<path id="Vector_23" d="M57.1505 11.9556H123.565V7.55206L122.295 5.90076H64.131H58.4203L56.3047 7.55206V11.9556H57.1505Z" fill="#4786D1"/>
<path id="Vector_24" d="M124.22 80.9997H55.6406V7.15315C55.6412 6.64773 55.8449 6.16318 56.2068 5.8058C56.5689 5.44841 57.0598 5.24737 57.5718 5.2468H122.294C122.805 5.24853 123.295 5.45006 123.656 5.80733C124.017 6.16459 124.219 6.64849 124.22 7.15315V80.9997ZM56.9601 79.6917H122.895V7.15315C122.895 6.99454 122.831 6.8425 122.718 6.73034C122.604 6.61818 122.45 6.55505 122.289 6.55476H57.5718C57.4112 6.55505 57.2571 6.61818 57.1435 6.73034C57.0299 6.8425 56.966 6.99454 56.9656 7.15315L56.9601 79.6917Z" fill="#4786D1"/>
<path id="Vector_25" d="M60.1622 9.99832C60.6293 9.99832 61.008 9.62452 61.008 9.16341C61.008 8.7023 60.6293 8.32849 60.1622 8.32849C59.695 8.32849 59.3164 8.7023 59.3164 9.16341C59.3164 9.62452 59.695 9.99832 60.1622 9.99832Z" fill="#CADCE8"/>
<path id="Vector_26" d="M62.7052 9.99832C63.1723 9.99832 63.551 9.62452 63.551 9.16341C63.551 8.7023 63.1723 8.32849 62.7052 8.32849C62.2381 8.32849 61.8594 8.7023 61.8594 9.16341C61.8594 9.62452 62.2381 9.99832 62.7052 9.99832Z" fill="#CADCE8"/>
<path id="Vector_27" d="M65.2403 9.99832C65.7074 9.99832 66.0861 9.62452 66.0861 9.16341C66.0861 8.7023 65.7074 8.32849 65.2403 8.32849C64.7731 8.32849 64.3945 8.7023 64.3945 9.16341C64.3945 9.62452 64.7731 9.99832 65.2403 9.99832Z" fill="#CADCE8"/>
<path id="Vector_28" d="M120.257 8.32849H68.8154C68.419 8.32849 68.0977 8.64568 68.0977 9.03697V9.28984C68.0977 9.68112 68.419 9.99832 68.8154 9.99832H120.257C120.654 9.99832 120.975 9.68112 120.975 9.28984V9.03697C120.975 8.64568 120.654 8.32849 120.257 8.32849Z" fill="#CADCE8"/>
<path id="Vector_29" d="M78.2398 19.797H64.4102V35.352H78.2398V19.797Z" fill="#E8837E"/>
<path id="Vector_30" d="M112.327 19.797H79.5352V35.352H112.327V19.797Z" fill="#E8837E"/>
<path id="Vector_31" d="M112.33 37.0739H96.8477V52.6288H112.33V37.0739Z" fill="#88AAD3"/>
<path id="Vector_32" d="M95.5383 37.0739H64.5742V52.6288H95.5383V37.0739Z" fill="#88AAD3"/>
<path id="Vector_33" d="M112.413 54.3511H64.5742V69.9061H112.413V54.3511Z" fill="#88AAD3"/>
<path id="Vector_34" d="M28.8526 57.7735H18.0859V58.8635H28.8526V57.7735Z" fill="#88AAD3"/>
<path id="Vector_35" d="M28.8526 60.6968H18.0859V61.7867H28.8526V60.6968Z" fill="#88AAD3"/>
<path id="Vector_36" d="M28.8526 63.6194H18.0859V64.7093H28.8526V63.6194Z" fill="#88AAD3"/>
<path id="Vector_37" d="M28.8526 66.5426H18.0859V67.6326H28.8526V66.5426Z" fill="#88AAD3"/>
<path id="Vector_38" d="M28.8526 69.4655H18.0859V70.5555H28.8526V69.4655Z" fill="#88AAD3"/>
<path id="Vector_39" d="M28.8526 72.3889H18.0859V73.4789H28.8526V72.3889Z" fill="#88AAD3"/>
<path id="Vector_40" d="M23.6618 49.9475L25.7907 46.3442L29.0888 49.0755V51.5706H19.9375L22.1723 48.5241L23.6618 49.9475Z" fill="#88AAD3"/>
<path id="Vector_41" d="M33.3054 48.2462H30.1133V44.4117L30.7515 43.8078L33.3054 46.3813V48.2462Z" fill="#88AAD3"/>
<path id="Vector_42" d="M21.4477 47.9325C21.7926 47.9323 22.1298 47.831 22.4164 47.6417C22.703 47.4523 22.9263 47.1832 23.058 46.8685C23.1896 46.5538 23.2239 46.2076 23.1562 45.8738C23.0885 45.5399 22.9221 45.2333 22.6779 44.9928C22.4336 44.7524 22.1227 44.5889 21.7843 44.523C21.4459 44.457 21.0953 44.4916 20.7768 44.6224C20.4584 44.7532 20.1864 44.9743 19.9953 45.2577C19.8042 45.5411 19.7025 45.8742 19.7031 46.2147C19.7054 46.6703 19.8902 47.1065 20.2169 47.4283C20.5437 47.7501 20.9862 47.9313 21.4477 47.9325Z" fill="#88AAD3"/>
<path id="Vector_43" opacity="0.2" d="M98.8189 34.4495V79.511H31.5587V34.4495C31.5546 34.1125 31.6857 33.7876 31.9234 33.5459C32.1611 33.304 32.4861 33.1649 32.8274 33.1589H97.5491C97.8906 33.1646 98.2159 33.3037 98.4538 33.5454C98.6918 33.7873 98.8231 34.1123 98.8189 34.4495Z" fill="#4786D1"/>
<path id="Vector_44" d="M96.3852 36.5933V80.3458H29.125V36.5933C29.1262 36.2615 29.2602 35.9437 29.4979 35.709C29.7355 35.4745 30.0576 35.3421 30.3937 35.3409H95.1154C95.1917 35.3409 95.2679 35.3479 95.3429 35.3617C95.6348 35.4148 95.8988 35.567 96.0892 35.7919C96.2794 36.0168 96.3842 36.3003 96.3852 36.5933Z" fill="white"/>
<path id="Vector_45" d="M30.1778 41.3945H96.5911V36.9911L95.3224 35.3398H37.1572H29.8609L29.332 36.9911V41.3945H30.1778Z" fill="#4786D1"/>
<path id="Vector_46" d="M33.1974 39.2291C33.6644 39.2291 34.0431 38.8552 34.0431 38.3942C34.0431 37.933 33.6644 37.5593 33.1974 37.5593C32.7302 37.5593 32.3516 37.933 32.3516 38.3942C32.3516 38.8552 32.7302 39.2291 33.1974 39.2291Z" fill="#CADCE8"/>
<path id="Vector_47" d="M35.7364 39.2291C36.2035 39.2291 36.5822 38.8552 36.5822 38.3942C36.5822 37.933 36.2035 37.5593 35.7364 37.5593C35.2692 37.5593 34.8906 37.933 34.8906 38.3942C34.8906 38.8552 35.2692 39.2291 35.7364 39.2291Z" fill="#CADCE8"/>
<path id="Vector_48" d="M38.2677 39.2291C38.7347 39.2291 39.1135 38.8552 39.1135 38.3942C39.1135 37.933 38.7347 37.5593 38.2677 37.5593C37.8005 37.5593 37.4219 37.933 37.4219 38.3942C37.4219 38.8552 37.8005 39.2291 38.2677 39.2291Z" fill="#CADCE8"/>
<path id="Vector_49" d="M93.2885 37.5593H41.8466C41.4502 37.5593 41.1289 37.8764 41.1289 38.2677V38.5206C41.1289 38.9119 41.4502 39.2291 41.8466 39.2291H93.2885C93.6849 39.2291 94.0063 38.9119 94.0063 38.5206V38.2677C94.0063 37.8764 93.6849 37.5593 93.2885 37.5593Z" fill="#CADCE8"/>
<path id="Vector_50" d="M48.3822 69.2803C50.0129 69.2803 51.3348 67.9754 51.3348 66.3657C51.3348 64.7561 50.0129 63.4512 48.3822 63.4512C46.7516 63.4512 45.4297 64.7561 45.4297 66.3657C45.4297 67.9754 46.7516 69.2803 48.3822 69.2803Z" fill="#88AAD3"/>
<path id="Vector_51" d="M62.8861 69.2803C64.5168 69.2803 65.8387 67.9754 65.8387 66.3657C65.8387 64.7561 64.5168 63.4512 62.8861 63.4512C61.2555 63.4512 59.9336 64.7561 59.9336 66.3657C59.9336 67.9754 61.2555 69.2803 62.8861 69.2803Z" fill="#88AAD3"/>
<path id="Vector_52" d="M77.39 69.2803C79.0207 69.2803 80.3426 67.9754 80.3426 66.3657C80.3426 64.7561 79.0207 63.4512 77.39 63.4512C75.7594 63.4512 74.4375 64.7561 74.4375 66.3657C74.4375 67.9754 75.7594 69.2803 77.39 69.2803Z" fill="#88AAD3"/>
<path id="Vector_53" d="M86.572 46.9393H39.2C38.4683 46.9393 37.875 47.525 37.875 48.2473V58.9944C37.875 59.7168 38.4683 60.3024 39.2 60.3024H86.572C87.3037 60.3024 87.897 59.7168 87.897 58.9944V48.2473C87.897 47.525 87.3037 46.9393 86.572 46.9393Z" fill="#A8EF9E"/>
<path id="Vector_54" d="M62.182 72.8023H38.2812V74.1103H62.182V72.8023Z" fill="#E8EDF7"/>
<path id="Vector_55" d="M76.6781 75.4114H38.1836V76.7193H76.6781V75.4114Z" fill="#E8EDF7"/>
<path id="Vector_56" d="M88.4133 72.8023H65.5703V74.1103H88.4133V72.8023Z" fill="#E8EDF7"/>
<path id="Vector_57" opacity="0.3" d="M30.8492 80.2412H29.8555V41.8557H96.3428V42.8367H30.8492V80.2412Z" fill="#C1CEDE"/>
<path id="Vector_58" d="M96.3943 40.7406H29.4102V42.0485H96.3943V40.7406Z" fill="#4786D1"/>
<path id="Vector_59" d="M97.256 80.9998H28.6719V36.5933C28.6724 36.0879 28.8761 35.6034 29.2381 35.246C29.6001 34.8886 30.0911 34.6876 30.6031 34.687H95.3248C95.8368 34.6876 96.3277 34.8886 96.6896 35.246C97.0517 35.6034 97.2554 36.0879 97.256 36.5933V80.9998ZM29.9958 79.6918H95.931V36.5933C95.9306 36.4347 95.8667 36.2827 95.7531 36.1705C95.6395 36.0583 95.4854 35.9952 95.3248 35.9949H30.6031C30.4424 35.9952 30.2884 36.0583 30.1748 36.1705C30.0611 36.2827 29.9972 36.4347 29.9969 36.5933L29.9958 79.6918Z" fill="#4786D1"/>
<path id="Vector_60" d="M114.213 72.3936H101.945V73.2656H114.213V72.3936Z" fill="#88AAD3"/>
</g>
</g>
</g>
</g>
</g>
</g>
<defs>
<linearGradient id="paint0_linear_1740_29659" x1="0.14371" y1="40.4584" x2="138.526" y2="40.4584" gradientUnits="userSpaceOnUse">
<stop stop-color="#9BC6F9"/>
<stop offset="1" stop-color="#C4F4EA"/>
</linearGradient>
</defs>
</svg>
