<svg width="154" height="89" viewBox="0 0 154 89" fill="none" xmlns="http://www.w3.org/2000/svg">
<g id="Asset 19">
<g id="Clip path group">
<mask id="mask0_1740_29344" style="mask-type:luminance" maskUnits="userSpaceOnUse" x="0" y="0" width="154" height="89">
<g id="clip0_3_49753">
<path id="Vector" d="M153.261 0H0V89H153.261V0Z" fill="white"/>
</g>
</mask>
<g mask="url(#mask0_1740_29344)">
<g id="Asset 19_2">
<g id="Layer 2">
<g id="Layer 1">
<path id="Vector_2" d="M145.176 53.6482C139.76 67.6948 129.576 80.001 115.432 85.4093C113.592 86.1116 111.714 86.7075 109.806 87.1938C99.714 89.7708 88.6738 88.8744 79.3712 84.1787C75.423 82.1842 71.8228 79.5486 67.8603 77.5827C63.8978 75.6169 59.3728 74.3301 55.0599 75.3005C51.3465 76.1361 48.2134 78.5305 45.0589 80.6635C37.6225 85.6922 28.6809 89.6717 19.8753 87.9446C15.8234 87.1508 11.8335 84.9522 9.95172 81.277C5.79258 73.152 13.6365 63.492 12.048 54.5065C11.0314 48.7556 6.38845 44.449 3.50208 39.3737C-1.43764 30.6925 -0.853701 19.1609 4.93811 11.0265C10.7299 2.89192 21.4221 -1.42302 31.2253 0.422317C43.1795 2.67349 52.2176 12.8061 63.8417 16.3917C71.1113 18.6322 79.0041 17.9637 85.9471 15.0131C97.1649 10.2446 112.576 2.93131 125.2 4.12254C131.913 4.75636 138.498 7.74041 142.928 12.8359C148.53 19.2684 150.209 28.4008 149.274 36.8826C148.633 42.6243 147.256 48.2593 145.176 53.6482Z" fill="url(#paint0_linear_1740_29344)" fill-opacity="0.4"/>
<path id="Vector_2_2" d="M148.775 64.7587C148.526 64.7584 148.278 64.7284 148.036 64.6692C147.271 64.4808 146.608 64.0073 146.18 63.3451C145.752 62.6829 145.592 61.882 145.734 61.106C145.875 60.33 146.307 59.6374 146.941 59.1695C147.575 58.7017 148.364 58.4939 149.146 58.5887C149.928 58.6834 150.644 59.0735 151.148 59.6793C151.653 60.285 151.907 61.0609 151.861 61.8483C151.813 62.6357 151.467 63.3754 150.894 63.9163C150.321 64.4572 149.563 64.7585 148.775 64.7587ZM148.775 59.9627C148.365 59.9643 147.971 60.1159 147.665 60.3889C147.358 60.6619 147.163 61.0375 147.114 61.445C147.066 61.8524 147.168 62.2636 147.401 62.6011C147.634 62.9387 147.982 63.1792 148.38 63.2774C148.61 63.3329 148.849 63.3389 149.083 63.295C149.315 63.2512 149.536 63.1584 149.73 63.0228C149.924 62.8874 150.089 62.7121 150.21 62.5087C150.332 62.3054 150.41 62.0784 150.438 61.8429C150.466 61.6073 150.444 61.3685 150.373 61.142C150.303 60.9156 150.185 60.7067 150.028 60.5291C149.871 60.3515 149.679 60.2092 149.462 60.1116C149.246 60.014 149.013 59.9632 148.775 59.9627Z" fill="#E7F6FF" fill-opacity="0.4"/>
<path id="Vector_3" d="M145.953 68.0421C146.128 67.3163 145.683 66.5851 144.958 66.4091C144.233 66.2331 143.504 66.6789 143.327 67.4047C143.152 68.1306 143.597 68.8617 144.321 69.0377C145.047 69.2137 145.776 68.768 145.953 68.0421Z" fill="#E7F6FF" fill-opacity="0.4"/>
<path id="Vector_4" d="M6.58035 64.4637C5.76181 64.4458 4.98336 64.1052 4.414 63.5159C3.84463 62.9266 3.5303 62.1362 3.53925 61.3163C3.54819 60.4963 3.87969 59.7129 4.46178 59.1363C5.04386 58.5595 5.82955 58.2362 6.64828 58.2362C7.46702 58.2362 8.25271 58.5595 8.8348 59.1363C9.41688 59.7129 9.74838 60.4963 9.75733 61.3163C9.76626 62.1362 9.45193 62.9266 8.88257 63.5159C8.3132 64.1052 7.53475 64.4458 6.71621 64.4637H6.58035ZM6.58035 59.6689H6.51004C6.06796 59.6786 5.64749 59.8624 5.33993 60.1806C5.03238 60.4988 4.86256 60.9256 4.86735 61.3686C4.87213 61.8114 5.05114 62.2345 5.3655 62.546C5.67986 62.8574 6.1042 63.0321 6.54639 63.0321C6.98858 63.0321 7.41292 62.8574 7.72729 62.546C8.04165 62.2345 8.22065 61.8114 8.22544 61.3686C8.23023 60.9256 8.06041 60.4988 7.75285 60.1806C7.44529 59.8624 7.02482 59.6786 6.58274 59.6689H6.58035Z" fill="#E7F6FF" fill-opacity="0.4"/>
<path id="Vector_5" d="M4.35767 69.6896C5.10269 69.6574 5.68059 69.0264 5.64845 68.2802C5.61631 67.534 4.9863 66.9551 4.24128 66.9874C3.49627 67.0196 2.91837 67.6505 2.9505 68.3968C2.98264 69.1429 3.61265 69.7218 4.35767 69.6896Z" fill="#E7F6FF" fill-opacity="0.4"/>
<path id="Vector_6" d="M84.503 14.1154C83.761 14.116 83.0433 13.8506 82.4799 13.3672C81.9163 12.8838 81.5443 12.2143 81.4309 11.4799C81.3177 10.7455 81.4706 9.99471 81.8621 9.36346C82.2536 8.73221 82.8578 8.2622 83.5653 8.03849C84.2727 7.81478 85.0369 7.85217 85.7192 8.14386C86.4016 8.43557 86.9572 8.96233 87.2854 9.62878C87.6136 10.2952 87.6927 11.0574 87.5085 11.7772C87.3243 12.4971 86.8888 13.1271 86.281 13.5532C85.7598 13.9184 85.1391 14.1147 84.503 14.1154ZM84.4934 9.32177C84.0593 9.32131 83.6418 9.48868 83.3278 9.789C83.0139 10.0893 82.8277 10.4994 82.8083 10.9337C82.7888 11.3681 82.9374 11.7932 83.2232 12.1206C83.5089 12.4479 83.9097 12.6521 84.3422 12.6907C84.7746 12.7292 85.2051 12.5992 85.5442 12.3276C85.8832 12.056 86.1045 11.6639 86.162 11.2329C86.2194 10.8019 86.1086 10.3654 85.8526 10.0142C85.5966 9.66308 85.2151 9.42443 84.7878 9.34803C84.6907 9.33067 84.5921 9.32189 84.4934 9.32177Z" fill="#E7F6FF" fill-opacity="0.4"/>
<path id="Vector_7" d="M78.1607 13.9454C78.7713 13.5166 78.9192 12.6733 78.491 12.0617C78.0628 11.4502 77.2208 11.3021 76.6103 11.7309C75.9997 12.1598 75.8519 13.0031 76.28 13.6147C76.7082 14.2262 77.5502 14.3743 78.1607 13.9454Z" fill="#E7F6FF" fill-opacity="0.4"/>
<path id="Vector_8" d="M153.258 30.1577C153.258 28.8453 152.738 27.5865 151.812 26.6584C150.885 25.7303 149.628 25.2089 148.318 25.2089C148.208 25.2089 148.099 25.2089 147.992 25.2196C147.999 25.1122 148.003 25.0036 148.003 24.8938C148.003 24.1905 147.853 23.4952 147.563 22.8545C147.274 22.2136 146.852 21.642 146.324 21.1777C145.796 20.7134 145.176 20.367 144.504 20.1617C143.833 19.9563 143.125 19.8967 142.429 19.9868C141.732 20.0771 141.063 20.3148 140.465 20.6844C139.868 21.054 139.356 21.547 138.964 22.1303C138.572 22.7138 138.308 23.3742 138.19 24.0676C138.073 24.7611 138.104 25.4716 138.283 26.1519C137.686 25.7182 137 25.4239 136.274 25.2905C135.548 25.1572 134.802 25.1884 134.091 25.3816C133.378 25.5748 132.719 25.9252 132.159 26.4072C131.6 26.8892 131.157 27.4904 130.859 28.1667C130.562 28.8431 130.42 29.5774 130.444 30.3159C130.468 31.0544 130.656 31.7781 130.996 32.4343C131.334 33.0903 131.816 33.6619 132.404 34.1071C132.993 34.5525 133.674 34.8601 134.397 35.0073C134.692 35.7913 135.181 36.4874 135.819 37.0304C136.455 37.5733 137.22 37.9453 138.039 38.1116C138.859 38.2779 139.708 38.233 140.506 37.9811C141.303 37.7292 142.024 37.2784 142.601 36.6713C143.191 37.1172 143.872 37.4249 144.597 37.5717C145.322 37.7187 146.069 37.701 146.785 37.52C147.502 37.3391 148.169 36.9994 148.737 36.5262C149.305 36.053 149.76 35.4581 150.068 34.7853C151.006 34.4293 151.813 33.7959 152.384 32.9694C152.953 32.1428 153.258 31.1622 153.258 30.1577Z" fill="white" fill-opacity="0.4"/>
<path id="Vector_9" d="M22.8157 18.2622C22.8163 17.612 22.689 16.968 22.4411 16.3672C22.1931 15.7663 21.8294 15.2202 21.3706 14.7602C20.9119 14.3002 20.3672 13.9352 19.7675 13.6862C19.1679 13.4371 18.5251 13.3087 17.876 13.3086C17.7663 13.3086 17.6579 13.3086 17.5506 13.3194C17.5578 13.2119 17.5614 13.1033 17.5614 12.9935C17.5612 12.2902 17.4114 11.5949 17.1218 10.9541C16.8324 10.3133 16.4098 9.74173 15.8823 9.2774C15.3549 8.81307 14.7346 8.46668 14.0629 8.26134C13.3913 8.05599 12.6836 7.99642 11.9872 8.08656C11.2908 8.1767 10.6215 8.41451 10.024 8.78411C9.42655 9.15373 8.91462 9.64666 8.52234 10.23C8.13005 10.8134 7.86644 11.4739 7.74905 12.1673C7.63166 12.8608 7.66322 13.5713 7.84161 14.2516C7.24446 13.8178 6.55792 13.5235 5.83237 13.3903C5.10682 13.2569 4.36068 13.2881 3.64869 13.4812C2.93671 13.6745 2.27696 14.0249 1.71786 14.5069C1.15876 14.9889 0.714493 15.5901 0.417666 16.2664C0.120841 16.9428 -0.0210139 17.6772 0.00251416 18.4157C0.0260422 19.154 0.214356 19.8778 0.553634 20.5339C0.892912 21.19 1.37455 21.7616 1.96319 22.2068C2.55183 22.6521 3.23255 22.9598 3.95538 23.1071C4.25079 23.8903 4.73978 24.5857 5.37658 25.1281C6.01338 25.6706 6.77718 26.0423 7.59648 26.2086C8.41579 26.3748 9.26381 26.3301 10.0612 26.0787C10.8586 25.8273 11.5792 25.3773 12.1557 24.771C12.7455 25.2169 13.4276 25.5246 14.1518 25.6714C14.876 25.8184 15.624 25.8007 16.3404 25.6196C17.0569 25.4387 17.7238 25.0991 18.2919 24.6258C18.86 24.1526 19.3149 23.5578 19.6231 22.8851C20.5605 22.5297 21.3679 21.8972 21.9381 21.0716C22.5083 20.246 22.8144 19.2661 22.8157 18.2622Z" fill="white" fill-opacity="0.4"/>
<path id="Vector_10" d="M113.716 88.6777H42.6289V87.126H113.716C113.921 87.126 114.118 87.2077 114.263 87.3531C114.409 87.4986 114.49 87.6961 114.49 87.9018C114.49 88.1076 114.409 88.3049 114.263 88.4504C114.118 88.5959 113.921 88.6777 113.716 88.6777Z" fill="#4786D1" fill-opacity="0.4"/>
<path id="Vector_11" d="M39.4529 88.6777H35.1067C34.9012 88.6777 34.7042 88.5959 34.5589 88.4504C34.4137 88.3049 34.332 88.1076 34.332 87.9018C34.332 87.6961 34.4137 87.4986 34.5589 87.3531C34.7042 87.2077 34.9012 87.126 35.1067 87.126H39.4529C39.6583 87.126 39.8553 87.2077 40.0006 87.3531C40.1459 87.4986 40.2275 87.6961 40.2275 87.9018C40.2275 88.1076 40.1459 88.3049 40.0006 88.4504C39.8553 88.5959 39.6583 88.6777 39.4529 88.6777Z" fill="#4786D1" fill-opacity="0.4"/>
<path id="Vector_12" d="M32.2805 88.6777H30.8957C30.6903 88.6777 30.4933 88.5959 30.348 88.4504C30.2027 88.3049 30.1211 88.1076 30.1211 87.9018C30.1211 87.6961 30.2027 87.4986 30.348 87.3531C30.4933 87.2077 30.6903 87.126 30.8957 87.126H32.2805C32.486 87.126 32.683 87.2077 32.8282 87.3531C32.9735 87.4986 33.0551 87.6961 33.0551 87.9018C33.0551 88.1076 32.9735 88.3049 32.8282 88.4504C32.683 88.5959 32.486 88.6777 32.2805 88.6777Z" fill="#4786D1" fill-opacity="0.4"/>
<path id="Vector_13" d="M138.634 88.6777H116.785V87.126H138.634C138.839 87.126 139.037 87.2077 139.183 87.3531C139.328 87.4986 139.409 87.6961 139.409 87.9018C139.409 88.1076 139.328 88.3049 139.183 88.4504C139.037 88.5959 138.839 88.6777 138.634 88.6777Z" fill="#4786D1" fill-opacity="0.4"/>
<path id="Vector_14" d="M26.9285 88.6777H5.07812V87.126H26.9285C27.134 87.126 27.3309 87.2077 27.4762 87.3531C27.6215 87.4986 27.7031 87.6961 27.7031 87.9018C27.7031 88.1076 27.6215 88.3049 27.4762 88.4504C27.3309 88.5959 27.134 88.6777 26.9285 88.6777Z" fill="#4786D1" fill-opacity="0.4"/>
<path id="Vector_15" d="M33.8551 28.1168H113.441C114.878 28.1168 116.255 28.6881 117.271 29.7052C118.287 30.7224 118.858 32.1018 118.859 33.5406V85.1361H28.4375V33.5406C28.4381 32.1018 29.0092 30.7224 30.0251 29.7052C31.0411 28.6881 32.4187 28.1168 33.8551 28.1168Z" fill="#EBF0F9" fill-opacity="0.4"/>
<path id="Vector_16" d="M115.719 32.0735H31.9414V80.0093H115.719V32.0735Z" fill="#4786D1" fill-opacity="0.4"/>
<path id="Vector_17" d="M31.3176 79.92H116.079C116.079 80.3005 115.929 80.6655 115.661 80.9353C115.393 81.205 115.029 81.3576 114.649 81.3595H32.7536C32.3724 81.3595 32.0069 81.2078 31.7373 80.9378C31.4679 80.6679 31.3164 80.3017 31.3164 79.92H31.3176Z" fill="white" fill-opacity="0.4"/>
<g id="Group" opacity="0.5">
<path id="Vector_18" opacity="0.5" d="M56.9747 31.8944L44.4485 80.279H38.1406L50.6669 31.8944H56.9747Z" fill="#A7BCD5" fill-opacity="0.4"/>
<path id="Vector_19" opacity="0.5" d="M73.0502 31.8944L60.5251 80.279H47.2969L59.8231 31.8944H73.0502Z" fill="#A7BCD5" fill-opacity="0.4"/>
</g>
<path id="Vector_20" d="M119.578 85.8523H27.7266V31.2274C27.7279 30.2128 28.1308 29.2403 28.847 28.5228C29.5633 27.8054 30.5344 27.4019 31.5472 27.4007H115.757C116.77 27.4019 117.741 27.8054 118.457 28.5228C119.174 29.2403 119.577 30.2128 119.578 31.2274V85.8523ZM29.1566 84.42H118.148V31.2274C118.147 30.5925 117.895 29.9839 117.447 29.535C116.999 29.0861 116.391 28.8336 115.757 28.833H31.5472C30.9135 28.8336 30.3057 29.0861 29.8575 29.535C29.4094 29.9839 29.1572 30.5925 29.1566 31.2274V84.42Z" fill="#4786D1" fill-opacity="0.4"/>
<path id="Vector_21" d="M17.0312 83.428H132.685V83.8088C132.685 85.0435 132.195 86.2274 131.324 87.1004C130.452 87.9735 129.27 88.4639 128.037 88.4639H21.679C20.4464 88.4639 19.2642 87.9735 18.3926 87.1004C17.5209 86.2274 17.0312 85.0435 17.0312 83.8088V83.428Z" fill="#EBF0F9" fill-opacity="0.4"/>
<path id="Vector_22" opacity="0.5" d="M132.098 85.8558C131.844 86.5181 131.395 87.0874 130.811 87.4889C130.227 87.8904 129.535 88.1051 128.827 88.1046H20.1791C19.4712 88.1046 18.7799 87.8896 18.1963 87.4882C17.6127 87.0868 17.1644 86.5177 16.9102 85.8558H132.098Z" fill="#A7BCD5" fill-opacity="0.4"/>
<path id="Vector_23" d="M127.497 88.9997H21.1401C19.7183 88.9981 18.3552 88.4317 17.3498 87.4247C16.3444 86.4177 15.7789 85.0524 15.7773 83.6284V82.5315H132.861V83.6284C132.86 85.0527 132.294 86.4182 131.288 87.4251C130.282 88.4322 128.919 88.9984 127.497 88.9997ZM17.2205 83.9638C17.3044 84.9468 17.7536 85.8625 18.4791 86.5298C19.2048 87.1971 20.1539 87.5673 21.1389 87.5674H127.497C128.483 87.5673 129.431 87.1971 130.157 86.5298C130.883 85.8625 131.332 84.9468 131.416 83.9638H17.2205Z" fill="#4786D1" fill-opacity="0.4"/>
<path id="Vector_24" d="M116.248 80.4557H31.0391V31.3572H116.248V80.4557ZM32.4691 79.0233H114.818V32.7896H32.4691V79.0233Z" fill="#4786D1" fill-opacity="0.4"/>
<path id="Vector_25" d="M102.914 16.6855V79.7398H45.8047V16.6855C45.8068 16.4013 45.9205 16.1293 46.1212 15.9283C46.3219 15.7273 46.5935 15.6134 46.8772 15.6113H101.836C101.901 15.6113 101.966 15.6174 102.029 15.6292C102.276 15.6749 102.5 15.8053 102.661 15.9981C102.822 16.1909 102.912 16.434 102.914 16.6855Z" fill="white" fill-opacity="0.4"/>
<path id="Vector_26" d="M46.6991 20.8227H103.089V17.0294L102.011 15.6066H52.6256H47.7764L45.9805 17.0294V20.8227H46.6991Z" fill="#4786D1" fill-opacity="0.4"/>
<path id="Vector_27" d="M103.808 80.4559H45.2695V16.6855C45.2714 16.2112 45.4603 15.7569 45.7952 15.4215C46.1301 15.0861 46.5837 14.8969 47.0571 14.895H102.014C102.487 14.8969 102.941 15.0861 103.276 15.4215C103.611 15.7569 103.799 16.2112 103.801 16.6855L103.808 80.4559ZM46.6996 79.0235H102.378V16.6855C102.376 16.5913 102.338 16.5015 102.271 16.4349C102.205 16.3683 102.115 16.3298 102.021 16.3274H47.0619C46.9679 16.3298 46.8782 16.3683 46.8117 16.4349C46.7452 16.5015 46.7068 16.5913 46.7044 16.6855L46.6996 79.0235Z" fill="#4786D1" fill-opacity="0.4"/>
<path id="Vector_28" d="M99.5798 17.8172H49.3436C48.9468 17.8172 48.625 18.1394 48.625 18.537C48.625 18.9344 48.9468 19.2567 49.3436 19.2567H99.5798C99.9766 19.2567 100.298 18.9344 100.298 18.537C100.298 18.1394 99.9766 17.8172 99.5798 17.8172Z" fill="#CADCE8" fill-opacity="0.4"/>
<path id="Vector_29" d="M64.6015 27.5773H52.8594V40.9781H64.6015V27.5773Z" fill="#E8837E" fill-opacity="0.4"/>
<path id="Vector_30" d="M93.5611 27.5773H65.7188V40.9781H93.5611V27.5773Z" fill="#E8837E" fill-opacity="0.4"/>
<path id="Vector_31" d="M93.5483 42.4616H80.4023V55.8624H93.5483V42.4616Z" fill="#DDE4ED" fill-opacity="0.4"/>
<path id="Vector_32" d="M79.3025 42.4616H53.0117V55.8624H79.3025V42.4616Z" fill="#DDE4ED" fill-opacity="0.4"/>
<path id="Vector_33" d="M93.6306 57.3461H53.0117V70.7469H93.6306V57.3461Z" fill="#DDE4ED" fill-opacity="0.4"/>
<path id="Vector_34" d="M93.986 72.5479H83.5703V73.9803H93.986V72.5479Z" fill="#DDE4ED" fill-opacity="0.4"/>
<path id="Vector_35" d="M37.0881 76.3248H20.0392C19.7584 76.3269 19.4818 76.2579 19.2348 76.1243C18.8772 75.9285 18.6484 75.6075 18.6484 75.2458L18.658 51.772C18.6582 51.6184 18.6993 51.4677 18.7771 51.3352C18.994 50.958 19.4838 50.693 20.0487 50.693H37.0976C37.6935 50.693 38.1952 50.9818 38.3954 51.3853C38.4561 51.5048 38.4879 51.6368 38.4884 51.7708L38.48 75.2458C38.48 75.7877 37.9568 76.2401 37.2811 76.3141C37.217 76.3214 37.1525 76.3249 37.0881 76.3248Z" fill="white" fill-opacity="0.4"/>
<path id="Vector_36" d="M37.5589 76.1447L20.504 76.1411C20.2234 76.1431 19.9467 76.0741 19.6996 75.9406C19.3421 75.7448 19.1133 75.4237 19.1133 75.0621L19.1228 51.5883C19.1231 51.4347 19.1642 51.2839 19.242 51.1514C19.4589 50.7743 19.9487 50.5093 20.5136 50.5093H20.746L20.7424 73.6226C20.7424 73.9806 20.9736 74.3053 21.3287 74.5011C21.5758 74.6346 21.8525 74.7036 22.1331 74.7016H38.9508V75.0597C38.9508 75.6016 38.4276 76.054 37.7519 76.128C37.6879 76.1372 37.6235 76.1428 37.5589 76.1447Z" fill="#D6DEE9" fill-opacity="0.4"/>
<path id="Vector_37" d="M37.3226 76.8608H20.2726C19.8706 76.8629 19.4745 76.7631 19.1214 76.5707C18.5255 76.2401 18.168 75.6767 18.168 75.0656L18.1775 51.5918C18.1789 51.3119 18.2541 51.0372 18.3956 50.7957C18.7531 50.1809 19.4681 49.7978 20.2845 49.7978H37.3334C38.1676 49.7978 38.9124 50.2096 39.2509 50.8494L39.3462 50.9962V51.063C39.4079 51.2334 39.4394 51.4131 39.4392 51.5942L39.4296 75.0679C39.4296 75.9679 38.6395 76.739 37.5932 76.8476C37.5033 76.8571 37.413 76.8615 37.3226 76.8608ZM20.2809 51.2242C19.9603 51.2242 19.7101 51.3662 19.6302 51.5071C19.6146 51.5309 19.6059 51.5586 19.6052 51.587L19.5957 75.0608C19.5957 75.1396 19.6827 75.2398 19.8126 75.3126C19.9543 75.3877 20.1123 75.4263 20.2726 75.4248H37.3214C37.3589 75.4251 37.3963 75.423 37.4335 75.4189C37.791 75.3807 37.9984 75.1801 37.9984 75.0608L38.0079 51.587C38.0079 51.5728 38.0055 51.5587 38.0007 51.5453L37.934 51.4426C37.7692 51.2938 37.5528 51.2153 37.331 51.2242H20.2821H20.2809Z" fill="#4786D1" fill-opacity="0.4"/>
<path id="Vector_38" d="M35.3512 60.8504H23.7891V62.2828H35.3512V60.8504Z" fill="#4786D1" fill-opacity="0.4"/>
<path id="Vector_39" d="M35.3512 57.8618H23.7891V59.2941H35.3512V57.8618Z" fill="#4786D1" fill-opacity="0.4"/>
<path id="Vector_40" d="M35.3512 64.2369H23.7891V65.6692H35.3512V64.2369Z" fill="#4786D1" fill-opacity="0.4"/>
<path id="Vector_41" opacity="0.2" d="M127.757 33.8989C128.59 32.333 129.101 30.6158 129.261 28.8488C129.421 27.0816 129.225 25.3005 128.687 23.6102C128.148 21.92 127.276 20.3551 126.123 19.0076C124.971 17.6602 123.561 16.5577 121.976 15.765C120.391 14.9723 118.664 14.5056 116.896 14.3925C115.128 14.2793 113.355 14.522 111.683 15.106C110.01 15.6902 108.471 16.604 107.157 17.7934C105.842 18.983 104.779 20.4241 104.03 22.0319C102.995 23.9781 102.46 26.1515 102.473 28.3564C102.486 30.5614 103.046 32.7284 104.104 34.6622C105.162 36.596 106.683 38.2358 108.531 39.4338C110.38 40.6318 112.496 41.3505 114.691 41.5249C114.308 41.6156 113.919 41.6892 113.524 41.7457C115.602 42.0457 117.72 41.8477 119.707 41.1679C121.692 40.4881 123.489 39.3461 124.949 37.8354C126.117 36.7059 127.069 35.3717 127.757 33.8989Z" fill="#4786D1" fill-opacity="0.4"/>
<path id="Vector_42" d="M114.264 38.4223C121.59 38.4223 127.528 32.4744 127.528 25.1373C127.528 17.8002 121.59 11.8523 114.264 11.8523C106.939 11.8523 101 17.8002 101 25.1373C101 32.4744 106.939 38.4223 114.264 38.4223Z" fill="#125EB9" fill-opacity="0.4"/>
<path id="Vector_43" d="M126.888 26.0866C126.888 27.9913 126.478 29.8737 125.688 31.6061C124.898 33.3385 123.744 34.8804 122.307 36.1274C120.87 37.3744 119.181 38.2972 117.356 38.8332C115.531 39.3693 113.613 39.5061 111.73 39.2343C114.887 38.7774 117.773 37.1967 119.86 34.782C121.948 32.3673 123.097 29.2801 123.097 26.086C123.097 22.8918 121.948 19.8047 119.86 17.39C117.773 14.9753 114.887 13.3947 111.73 12.9376C113.613 12.6657 115.532 12.8024 117.357 13.3384C119.182 13.8745 120.871 14.7973 122.308 16.0444C123.745 17.2915 124.899 18.8336 125.689 20.5663C126.481 22.299 126.889 24.1817 126.889 26.0866H126.888Z" fill="#4786D1" fill-opacity="0.4"/>
<path id="Vector_44" d="M113.944 39.7703C111.179 39.7703 108.476 38.9491 106.178 37.4106C103.879 35.8722 102.087 33.6855 101.029 31.1272C99.9709 28.5688 99.6941 25.7536 100.233 23.0377C100.773 20.3217 102.104 17.8269 104.059 15.8688C106.014 13.9107 108.505 12.5772 111.217 12.037C113.928 11.4967 116.739 11.774 119.293 12.8337C121.847 13.8934 124.031 15.688 125.567 17.9905C127.103 20.2929 127.923 22.9999 127.923 25.7691C127.919 29.4812 126.445 33.0401 123.824 35.665C121.204 38.2897 117.65 39.7661 113.944 39.7703ZM113.944 13.2015C111.462 13.2015 109.036 13.9387 106.972 15.3197C104.908 16.7008 103.3 18.6637 102.35 20.9604C101.4 23.257 101.152 25.7843 101.636 28.2224C102.12 30.6605 103.315 32.9001 105.07 34.6578C106.825 36.4156 109.061 37.6127 111.496 38.0977C113.93 38.5827 116.453 38.3337 118.746 37.3824C121.039 36.431 122.999 34.8201 124.377 32.7531C125.756 30.6863 126.493 28.2562 126.493 25.7703C126.489 22.438 125.166 19.243 122.814 16.8867C120.46 14.5302 117.271 13.205 113.944 13.2015Z" fill="#4786D1" fill-opacity="0.4"/>
<path id="Vector_45" d="M120.634 20.3369C120.348 20.1767 120.011 20.1338 119.694 20.2169C119.377 20.3001 119.105 20.5032 118.934 20.7832L116.637 24.5431L112.968 30.5446L112.865 30.7129L108.629 27.3183L107.857 26.7001C107.35 26.2943 106.586 26.1666 106.099 26.7001C105.684 27.1525 105.556 28.0261 106.099 28.4606L111.546 32.8245L112.318 33.4427C112.639 33.7006 112.944 33.8414 113.362 33.7853C113.549 33.7624 113.728 33.6965 113.886 33.593C114.043 33.4895 114.175 33.3512 114.27 33.1885L116.567 29.4286L120.237 23.4283L121.085 22.0414C121.42 21.4852 121.219 20.6496 120.634 20.3369Z" fill="white" fill-opacity="0.4"/>
</g>
</g>
</g>
</g>
</g>
</g>
<defs>
<linearGradient id="paint0_linear_1740_29344" x1="0.15927" y1="44.3058" x2="149.516" y2="44.3058" gradientUnits="userSpaceOnUse">
<stop stop-color="#4786D1"/>
<stop offset="0.0001" stop-color="#6A9DDB"/>
<stop offset="1" stop-color="#83BBFF"/>
</linearGradient>
</defs>
</svg>
