<svg width="31" height="28" viewBox="0 0 31 28" fill="none" xmlns="http://www.w3.org/2000/svg">
<path d="M30.625 12.75C30.625 12.0207 30.3353 11.3212 29.8195 10.8055C29.3038 10.2897 28.6043 10 27.875 10H19.185L20.505 3.71625C20.5325 3.57875 20.5462 3.4275 20.5462 3.27625C20.5462 2.7125 20.3125 2.19 19.9412 1.81875L18.4837 0.375L9.43625 9.4225C8.9275 9.93125 8.625 10.6187 8.625 11.375V25.125C8.625 25.8543 8.91473 26.5538 9.43046 27.0695C9.94618 27.5853 10.6457 27.875 11.375 27.875H23.75C24.8913 27.875 25.8675 27.1875 26.28 26.1975L30.4325 16.5037C30.5563 16.1875 30.625 15.8575 30.625 15.5V12.75ZM0.375 27.875H5.875V11.375H0.375V27.875Z" fill="#119DAD"/>
</svg>
