<svg width="123" height="91" viewBox="0 0 123 91" fill="none" xmlns="http://www.w3.org/2000/svg">
<g id="Illustration - Asset 35" clip-path="url(#clip0_1740_28742)">
<g id="Asset 35">
<g id="Clip path group">
<mask id="mask0_1740_28742" style="mask-type:luminance" maskUnits="userSpaceOnUse" x="0" y="0" width="123" height="91">
<g id="clip0_3_49759">
<path id="Vector" d="M122.83 0.37796H0V90.9372H122.83V0.37796Z" fill="white"/>
</g>
</mask>
<g mask="url(#mask0_1740_28742)">
<g id="Asset 35_2">
<g id="Layer 2">
<g id="Layer 1">
<path id="Vector_2" opacity="0.5" d="M30.5508 8.29877V46.6488C30.5508 48.2922 31.2023 49.8684 32.3621 51.0306C33.5218 52.1925 35.0948 52.8456 36.7349 52.8456L99.2241 53.1052C100.038 53.1075 100.844 52.9493 101.596 52.6387C102.349 52.3284 103.032 51.8723 103.609 51.2967C104.185 50.7212 104.642 50.0373 104.954 49.284C105.266 48.531 105.427 47.7235 105.427 46.9084V8.55852L30.5508 8.29877Z" fill="#9CE5E5" fill-opacity="0.4"/>
<path id="Vector_2_2" d="M9.25577 90.1195H5.29353C2.88653 90.1195 0.960938 87.5781 0.960938 84.2756V17.6873C0.960938 14.4404 2.81246 11.843 5.29353 11.843H9.25577C6.86731 11.843 4.92322 14.4404 4.92322 17.6873V84.2756C4.83065 87.5781 6.77474 90.1195 9.25577 90.1195Z" fill="#A0C1E8" fill-opacity="0.4"/>
<path id="Vector_3" d="M101.983 90.8975H91.9294C91.8133 90.9151 91.6949 90.9075 91.5819 90.8752C91.4692 90.8426 91.3646 90.7861 91.2757 90.7097C91.1868 90.6329 91.1156 90.5381 91.0665 90.431C91.0175 90.3242 90.9922 90.2079 90.9922 90.0904C90.9922 89.9729 91.0175 89.8565 91.0665 89.7498C91.1156 89.6431 91.1868 89.5478 91.2757 89.4714C91.3646 89.3946 91.4692 89.3382 91.5819 89.3059C91.6949 89.2733 91.8133 89.2656 91.9294 89.2833H101.983C103.314 89.2833 104.59 88.7538 105.531 87.8108C106.472 86.8677 107.001 85.5888 107.001 84.2552V17.6487C107.001 16.9884 106.871 16.3346 106.619 15.7246C106.366 15.1146 105.997 14.5603 105.531 14.0934C105.065 13.6265 104.512 13.2561 103.903 13.0035C103.294 12.7508 102.642 12.6207 101.983 12.6207C101.767 12.6207 101.56 12.5347 101.407 12.3816C101.254 12.2285 101.168 12.0209 101.168 11.8044C101.168 11.5879 101.254 11.3802 101.407 11.2271C101.56 11.074 101.767 10.988 101.983 10.988C102.856 10.988 103.72 11.1603 104.527 11.4951C105.333 11.8298 106.066 12.3204 106.683 12.9389C107.301 13.5574 107.79 14.2917 108.124 15.0998C108.458 15.9079 108.63 16.774 108.63 17.6487V84.2552C108.63 85.1292 108.458 85.9946 108.124 86.8013C107.79 87.6084 107.299 88.3418 106.682 88.9588C106.064 89.5755 105.332 90.0646 104.525 90.3972C103.719 90.7301 102.855 90.8998 101.983 90.8975Z" fill="#3E3126" fill-opacity="0.4"/>
<path id="Vector_4" d="M86.3547 8.89614H26.3097C26.0888 8.89614 25.8768 8.80821 25.7206 8.65163C25.5643 8.49505 25.4766 8.28268 25.4766 8.06125C25.4766 7.83981 25.5643 7.62748 25.7206 7.4709C25.8768 7.31432 26.0888 7.22635 26.3097 7.22635H86.3547C86.5758 7.22635 86.7877 7.31432 86.9441 7.4709C87.1004 7.62748 87.1881 7.83981 87.1881 8.06125C87.1881 8.28268 87.1004 8.49505 86.9441 8.65163C86.7877 8.80821 86.5758 8.89614 86.3547 8.89614Z" fill="#3E3126" fill-opacity="0.4"/>
<path id="Vector_5" d="M25.5491 12.6569H21.3461C21.1301 12.6569 20.9228 12.5709 20.7701 12.4178C20.6173 12.2648 20.5315 12.0571 20.5315 11.8406C20.5289 11.7327 20.5483 11.6254 20.5883 11.5252C20.6284 11.425 20.6883 11.334 20.7644 11.2577C20.8406 11.1814 20.9314 11.1213 21.0314 11.0812C21.1314 11.0411 21.2385 11.0217 21.3461 11.0242H25.5491C25.7652 11.0242 25.9724 11.1102 26.1252 11.2633C26.2779 11.4165 26.3638 11.6241 26.3638 11.8406C26.3638 12.0571 26.2779 12.2648 26.1252 12.4178C25.9724 12.5709 25.7652 12.6569 25.5491 12.6569Z" fill="#3E3126" fill-opacity="0.4"/>
<path id="Vector_6" d="M99.6676 15.8731H13.3495C11.2839 15.8731 9.60938 17.551 9.60938 19.6209V82.1645C9.60938 84.2341 11.2839 85.9121 13.3495 85.9121H99.6676C101.733 85.9121 103.408 84.2341 103.408 82.1645V19.6209C103.408 17.551 101.733 15.8731 99.6676 15.8731Z" fill="#4786D1" fill-opacity="0.4"/>
<path id="Vector_7" opacity="0.5" d="M115.889 51.8627C115.403 52.9631 114.609 53.8992 113.604 54.5577C112.598 55.2162 111.424 55.5691 110.223 55.5733L47.7154 55.295C46.0769 55.2903 44.5066 54.6357 43.3479 53.4746C42.1892 52.3135 41.5362 50.7404 41.5312 49.0981V12.1399H44.9569V48.0034C44.9615 49.029 45.3715 50.0104 46.0968 50.7334C46.8218 51.4568 47.8031 51.8627 48.8266 51.8627H115.889Z" fill="#3D3344" fill-opacity="0.4"/>
<path id="Vector_8" d="M9.81377 43.9046C9.742 43.9127 9.66935 43.905 9.6008 43.8823C9.53225 43.8597 9.46941 43.8224 9.41664 43.7729C9.36384 43.7238 9.32238 43.6635 9.29502 43.5963C9.2677 43.5295 9.25517 43.4573 9.25828 43.3851V19.5254C9.25337 18.9588 9.36108 18.3968 9.5752 17.8724C9.78932 17.3479 10.1056 16.8714 10.5054 16.4707C10.9053 16.07 11.3808 15.7531 11.9042 15.5386C12.4276 15.324 12.9884 15.2161 13.5539 15.221H29.3288C29.3976 15.2184 29.4662 15.2301 29.5303 15.2552C29.5944 15.2804 29.6526 15.3186 29.7012 15.3674C29.7499 15.4162 29.788 15.4744 29.8131 15.5386C29.8382 15.6029 29.8499 15.6716 29.8473 15.7405C29.8473 15.8783 29.7927 16.0104 29.6954 16.1078C29.5982 16.2053 29.4664 16.26 29.3288 16.26H13.5539C12.6994 16.26 11.88 16.6001 11.2758 17.2056C10.6716 17.811 10.3322 18.6321 10.3322 19.4883V43.3851C10.3322 43.523 10.2776 43.655 10.1803 43.7526C10.0831 43.8497 9.95125 43.9046 9.81377 43.9046Z" fill="#3E3126" fill-opacity="0.4"/>
<path id="Vector_9" d="M99.872 86.3191H13.5535C12.9881 86.3241 12.4272 86.2162 11.9039 86.0015C11.3805 85.7869 10.9049 85.4701 10.5051 85.0693C10.1052 84.6688 9.78902 84.1923 9.5749 83.6678C9.36078 83.1433 9.25303 82.5812 9.25798 82.0148V58.2849C9.25798 58.2166 9.27139 58.149 9.29744 58.086C9.3235 58.0231 9.36166 57.9658 9.40983 57.9175C9.45796 57.8695 9.51509 57.8311 9.578 57.805C9.64088 57.7789 9.70832 57.7654 9.77641 57.7654C9.91244 57.77 10.0416 57.8261 10.1379 57.9225C10.2341 58.0192 10.2902 58.1486 10.2948 58.2849V82.0148C10.2948 82.8707 10.6342 83.692 11.2384 84.2975C11.8426 84.903 12.662 85.2428 13.5165 85.2428H99.872C100.726 85.2428 101.546 84.903 102.15 84.2975C102.754 83.692 103.093 82.8707 103.093 82.0148V55.5576C103.091 55.4885 103.103 55.4198 103.127 55.3556C103.153 55.2915 103.191 55.2332 103.239 55.1844C103.288 55.1356 103.346 55.0976 103.411 55.0723C103.475 55.0469 103.543 55.0354 103.612 55.0381C103.748 55.0427 103.877 55.0988 103.973 55.1951C104.07 55.2919 104.126 55.4213 104.13 55.5576V82.0148C104.135 82.5781 104.029 83.1371 103.817 83.6589C103.605 84.1811 103.292 84.6557 102.896 85.0562C102.5 85.4563 102.029 85.7738 101.51 85.9908C100.991 86.2073 100.434 86.3191 99.872 86.3191Z" fill="#3E3126" fill-opacity="0.4"/>
<path id="Vector_10" d="M9.81377 55.4988C9.742 55.5069 9.66935 55.4992 9.6008 55.4766C9.53225 55.4539 9.46941 55.4163 9.41664 55.3671C9.36384 55.3176 9.32238 55.2573 9.29502 55.1905C9.2677 55.1237 9.25517 55.0515 9.25828 54.9793V49.5431C9.25571 49.474 9.26732 49.4053 9.29246 49.3412C9.31759 49.2771 9.35568 49.2187 9.40434 49.1699C9.45301 49.1212 9.51121 49.0828 9.57528 49.0578C9.63938 49.0325 9.70793 49.0209 9.77671 49.0236C9.9142 49.0236 10.0461 49.0782 10.1433 49.1757C10.2405 49.2732 10.2952 49.4053 10.2952 49.5431V54.9793C10.2955 55.1107 10.246 55.2377 10.1566 55.3341C10.0673 55.4305 9.94474 55.4892 9.81377 55.4988Z" fill="#3E3126" fill-opacity="0.4"/>
<path id="Vector_11" opacity="0.35" d="M67.8761 76.3152C68.3773 76.3152 68.7835 75.9082 68.7835 75.406C68.7835 74.9041 68.3773 74.4971 67.8761 74.4971C67.3749 74.4971 66.9688 74.9041 66.9688 75.406C66.9688 75.9082 67.3749 76.3152 67.8761 76.3152Z" fill="#3D3344" fill-opacity="0.4"/>
<path id="Vector_12" opacity="0.5" d="M99.6661 81.6585H71.2262C71.235 81.5905 71.235 81.5222 71.2262 81.4542C71.2262 81.0802 71.0783 80.7216 70.8143 80.4574C70.5503 80.1929 70.1924 80.0443 69.8192 80.0443C69.446 80.0443 69.0881 80.1929 68.8241 80.4574C68.5605 80.7216 68.4122 81.0802 68.4122 81.4542C68.4122 81.4542 68.4122 81.5844 68.4122 81.6585H66.2828C66.333 81.5149 66.3641 81.3651 66.3752 81.2131C66.3752 80.7754 66.2016 80.3553 65.8928 80.0454C65.5835 79.736 65.1647 79.562 64.7275 79.562C64.2903 79.562 63.8715 79.736 63.5623 80.0454C63.2534 80.3553 63.0795 80.7754 63.0795 81.2131C63.0603 81.3609 63.0603 81.5107 63.0795 81.6585H13.3476C12.3655 81.6585 11.4236 81.2676 10.7291 80.5715C10.0347 79.8757 9.64453 78.9319 9.64453 77.9478V82.178C9.64453 83.1621 10.0347 84.1059 10.7291 84.8016C11.4236 85.4978 12.3655 85.8886 13.3476 85.8886H99.6661C100.648 85.8886 101.59 85.4978 102.284 84.8016C102.979 84.1059 103.369 83.1621 103.369 82.178V77.9106C103.374 78.4009 103.282 78.8874 103.098 79.342C102.914 79.7966 102.642 80.2102 102.297 80.5584C101.953 80.9071 101.543 81.1835 101.091 81.3724C100.64 81.5613 100.155 81.6585 99.6661 81.6585Z" fill="#3D3344" fill-opacity="0.4"/>
<path id="Vector_13" opacity="0.35" d="M64.5458 75.0216C64.832 75.0216 65.0642 74.7889 65.0642 74.5021C65.0642 74.2149 64.832 73.9826 64.5458 73.9826C64.2596 73.9826 64.0273 74.2149 64.0273 74.5021C64.0273 74.7889 64.2596 75.0216 64.5458 75.0216Z" fill="#3D3344" fill-opacity="0.4"/>
<path id="Vector_14" opacity="0.35" d="M71.5979 76.0794C71.7921 76.0794 71.9496 75.9216 71.9496 75.727C71.9496 75.5323 71.7921 75.3745 71.5979 75.3745C71.4036 75.3745 71.2461 75.5323 71.2461 75.727C71.2461 75.9216 71.4036 76.0794 71.5979 76.0794Z" fill="#3D3344" fill-opacity="0.4"/>
<path id="Vector_15" opacity="0.35" d="M69.2661 72.8668C69.6957 72.8668 70.0436 72.5178 70.0436 72.0874C70.0436 71.6569 69.6957 71.3083 69.2661 71.3083C68.8366 71.3083 68.4883 71.6569 68.4883 72.0874C68.4883 72.5178 68.8366 72.8668 69.2661 72.8668Z" fill="#3D3344" fill-opacity="0.4"/>
<path id="Vector_16" opacity="0.35" d="M61.3794 75.1856C61.809 75.1856 62.1569 74.8365 62.1569 74.4061C62.1569 73.9761 61.809 73.627 61.3794 73.627C60.9499 73.627 60.6016 73.9761 60.6016 74.4061C60.6016 74.8365 60.9499 75.1856 61.3794 75.1856Z" fill="#3D3344" fill-opacity="0.4"/>
<path id="Vector_17" d="M29.6618 39.3373C29.6618 38.2818 28.808 37.4262 27.7547 37.4262C26.7015 37.4262 25.8477 38.2818 25.8477 39.3373V50.7845C25.8477 51.84 26.7015 52.6955 27.7547 52.6955C28.808 52.6955 29.6618 51.84 29.6618 50.7845V39.3373Z" fill="#3D3344" fill-opacity="0.4"/>
<path id="Vector_18" d="M117.295 0.675044H34.9767C34.5696 0.671999 34.1642 0.728246 33.7732 0.842023H34.8285C33.6572 0.826296 32.5266 1.27278 31.6809 2.0851C30.8675 2.9396 30.4162 4.07679 30.4219 5.25775V62.7731C30.4651 63.9546 30.9639 65.0731 31.8135 65.8932C32.663 66.7133 33.797 67.171 34.9767 67.1703H117.295C118.501 67.1703 119.656 66.6922 120.51 65.8402C121.364 64.9882 121.846 63.8321 121.85 62.6249V5.25775C121.85 4.04553 121.371 2.88271 120.518 2.02383C119.664 1.16494 118.506 0.679951 117.295 0.675044Z" fill="white" fill-opacity="0.4"/>
<path id="Vector_19" opacity="0.2" d="M121.885 5.94456V63.46C121.88 64.6672 121.398 65.8233 120.544 66.6753C119.69 67.5274 118.535 68.0058 117.33 68.0058H60.4141C148.714 67.8944 88.3534 16.7983 111.683 1.34332H117.237C117.847 1.33089 118.452 1.441 119.018 1.66714C119.583 1.89327 120.098 2.23083 120.532 2.65984C120.965 3.08885 121.308 3.6006 121.54 4.1648C121.773 4.729 121.89 5.33421 121.885 5.94456Z" fill="#C9D2DF" fill-opacity="0.4"/>
<path id="Vector_20" d="M50.4165 14.4594H43.4549C43.2928 14.4594 43.1373 14.3949 43.0227 14.2801C42.9081 14.1652 42.8438 14.0095 42.8438 13.8471C42.8438 13.6847 42.9081 13.529 43.0227 13.4142C43.1373 13.2993 43.2928 13.2349 43.4549 13.2349H50.4165C50.5786 13.2349 50.7338 13.2993 50.8487 13.4142C50.9633 13.529 51.0277 13.6847 51.0277 13.8471C51.0277 14.0095 50.9633 14.1652 50.8487 14.2801C50.7338 14.3949 50.5786 14.4594 50.4165 14.4594Z" fill="white" fill-opacity="0.4"/>
<path id="Vector_21" d="M50.4172 37.1701H43.4552C43.3675 37.1856 43.2774 37.1816 43.1912 37.1585C43.105 37.1353 43.0249 37.0936 42.9567 37.0361C42.8881 36.9786 42.8333 36.9068 42.7954 36.8258C42.7578 36.7448 42.7383 36.6565 42.7383 36.5671C42.7383 36.4777 42.7578 36.3894 42.7954 36.3084C42.8333 36.2274 42.8881 36.1556 42.9567 36.0981C43.0249 36.0406 43.105 35.9989 43.1912 35.9757C43.2774 35.9526 43.3675 35.9486 43.4552 35.9641H50.4172C50.5049 35.9486 50.595 35.9526 50.6812 35.9757C50.7674 35.9989 50.8475 36.0406 50.9157 36.0981C50.9843 36.1556 51.0391 36.2274 51.0766 36.3084C51.1145 36.3894 51.1341 36.4777 51.1341 36.5671C51.1341 36.6565 51.1145 36.7448 51.0766 36.8258C51.0391 36.9068 50.9843 36.9786 50.9157 37.0361C50.8475 37.0936 50.7674 37.1353 50.6812 37.1585C50.595 37.1816 50.5049 37.1856 50.4172 37.1701Z" fill="white" fill-opacity="0.4"/>
<path id="Vector_22" d="M50.4172 48.614H43.4552C43.3675 48.6297 43.2774 48.6255 43.1912 48.6025C43.105 48.5794 43.0249 48.5376 42.9567 48.48C42.8881 48.4228 42.8333 48.351 42.7954 48.2699C42.7578 48.1889 42.7383 48.1006 42.7383 48.0111C42.7383 47.9217 42.7578 47.8334 42.7954 47.7523C42.8333 47.6713 42.8881 47.5995 42.9567 47.5419C43.0249 47.4847 43.105 47.4429 43.1912 47.4198C43.2774 47.3964 43.3675 47.3926 43.4552 47.4079H50.4172C50.5049 47.3926 50.595 47.3964 50.6812 47.4198C50.7674 47.4429 50.8475 47.4847 50.9157 47.5419C50.9843 47.5995 51.0391 47.6713 51.0766 47.7523C51.1145 47.8334 51.1341 47.9217 51.1341 48.0111C51.1341 48.1006 51.1145 48.1889 51.0766 48.2699C51.0391 48.351 50.9843 48.4228 50.9157 48.48C50.8475 48.5376 50.7674 48.5794 50.6812 48.6025C50.595 48.6255 50.5049 48.6297 50.4172 48.614Z" fill="white" fill-opacity="0.4"/>
<path id="Vector_23" d="M35.1795 67.7121H30.4396C29.238 67.7021 28.089 67.2171 27.2428 66.362C26.3966 65.5073 25.9218 64.352 25.9219 63.1479V5.72504C25.9218 4.52092 26.3966 3.36562 27.2428 2.51074C28.089 1.65586 29.238 1.17068 30.4396 1.16089H35.1795C34.5814 1.16089 33.9891 1.27894 33.4365 1.50831C32.8839 1.73768 32.3818 2.07387 31.9588 2.49769C31.5359 2.92151 31.2004 3.42466 30.9715 3.97842C30.7426 4.53214 30.6248 5.12567 30.6248 5.72504V63.2404C30.649 64.4349 31.1396 65.5722 31.9911 66.4081C32.8427 67.244 33.9874 67.7121 35.1795 67.7121Z" fill="#A0C1E8" fill-opacity="0.4"/>
<path id="Vector_24" opacity="0.6" d="M29.9001 12.2331C29.9001 11.1777 29.0463 10.3221 27.993 10.3221C26.9398 10.3221 26.0859 11.1777 26.0859 12.2331V20.0255C26.0859 21.0809 26.9398 21.9365 27.993 21.9365C29.0463 21.9365 29.9001 21.0809 29.9001 20.0255V12.2331Z" fill="#144B8B" fill-opacity="0.4"/>
<path id="Vector_25" d="M113.944 8.71127H34.3282C34.2152 8.71127 34.1069 8.66631 34.0271 8.58629C33.9472 8.50623 33.9023 8.39772 33.9023 8.28453C33.9023 8.17137 33.9472 8.06283 34.0271 7.98281C34.1069 7.90275 34.2152 7.85779 34.3282 7.85779H113.944C114.057 7.85779 114.165 7.90275 114.245 7.98281C114.325 8.06283 114.37 8.17137 114.37 8.28453C114.37 8.39772 114.325 8.50623 114.245 8.58629C114.165 8.66631 114.057 8.71127 113.944 8.71127Z" fill="#3E3126" fill-opacity="0.4"/>
<path id="Vector_26" d="M96.1316 30.0663H75.0614C74.9254 30.0617 74.7959 30.0055 74.6997 29.909C74.6035 29.8126 74.5476 29.6831 74.543 29.5468C74.543 29.409 74.5974 29.2769 74.6947 29.1795C74.792 29.082 74.9238 29.0273 75.0614 29.0273H96.1316C96.2006 29.0247 96.2691 29.0364 96.3331 29.0616C96.3971 29.0867 96.4554 29.1249 96.504 29.1737C96.5527 29.2224 96.5906 29.2808 96.6159 29.345C96.6412 29.4092 96.6527 29.4779 96.65 29.5468C96.65 29.6846 96.5956 29.8167 96.4983 29.9142C96.401 30.0116 96.2691 30.0663 96.1316 30.0663Z" fill="#3E3126" fill-opacity="0.4"/>
<path id="Vector_27" d="M96.1316 24.9976H75.0615C74.9864 25.012 74.909 25.0096 74.835 24.9906C74.7611 24.9717 74.6925 24.9365 74.6335 24.8878C74.5748 24.839 74.5273 24.7779 74.4947 24.7086C74.4622 24.6394 74.4453 24.5639 74.4453 24.4874C74.4453 24.4109 74.4622 24.3353 74.4947 24.2661C74.5273 24.1969 74.5748 24.1357 74.6335 24.087C74.6925 24.0382 74.7611 24.0031 74.835 23.9841C74.909 23.9651 74.9864 23.9627 75.0615 23.9771H96.1316C96.2067 23.9627 96.2841 23.9651 96.3581 23.9841C96.432 24.0031 96.5006 24.0382 96.5596 24.087C96.6183 24.1357 96.6658 24.1969 96.6983 24.2661C96.7309 24.3353 96.7478 24.4109 96.7478 24.4874C96.7478 24.5639 96.7309 24.6394 96.6983 24.7086C96.6658 24.7779 96.6183 24.839 96.5596 24.8878C96.5006 24.9365 96.432 24.9717 96.3581 24.9906C96.2841 25.0096 96.2067 25.012 96.1316 24.9976Z" fill="#3E3126" fill-opacity="0.4"/>
<path id="Vector_28" d="M107.389 35.1292H75.0615C74.9864 35.1436 74.909 35.1412 74.835 35.1222C74.7611 35.1033 74.6925 35.0681 74.6335 35.0194C74.5748 34.9706 74.5273 34.9095 74.4947 34.8403C74.4622 34.7711 74.4453 34.6955 74.4453 34.619C74.4453 34.5425 74.4622 34.4669 74.4947 34.3977C74.5273 34.3285 74.5748 34.2673 74.6335 34.2186C74.6925 34.1698 74.7611 34.1347 74.835 34.1157C74.909 34.0968 74.9864 34.0944 75.0615 34.1088H107.389C107.464 34.0944 107.541 34.0968 107.615 34.1157C107.689 34.1347 107.758 34.1698 107.817 34.2186C107.876 34.2673 107.923 34.3285 107.956 34.3977C107.988 34.4669 108.005 34.5425 108.005 34.619C108.005 34.6955 107.988 34.7711 107.956 34.8403C107.923 34.9095 107.876 34.9706 107.817 35.0194C107.758 35.0681 107.689 35.1033 107.615 35.1222C107.541 35.1412 107.464 35.1436 107.389 35.1292Z" fill="#3E3126" fill-opacity="0.4"/>
<path id="Vector_29" d="M38.9913 6.24367C38.7349 6.24367 38.4843 6.16749 38.2713 6.02477C38.0582 5.88205 37.8921 5.67924 37.794 5.44191C37.6958 5.20462 37.6702 4.94349 37.7202 4.69153C37.7702 4.43961 37.8936 4.20819 38.0749 4.02658C38.2562 3.84492 38.487 3.72125 38.7384 3.67113C38.9901 3.62102 39.2507 3.64674 39.4875 3.74504C39.7243 3.84335 39.9266 4.0098 40.0691 4.22336C40.2113 4.43696 40.2875 4.68803 40.2875 4.94491C40.2875 5.28936 40.1508 5.61969 39.9078 5.86328C39.6649 6.10683 39.335 6.24367 38.9913 6.24367ZM38.9913 4.16569C38.8778 4.14818 38.7621 4.15547 38.6518 4.18707C38.5414 4.21867 38.4391 4.27381 38.3517 4.34869C38.2648 4.4236 38.1949 4.51648 38.1469 4.62099C38.099 4.72551 38.0742 4.83916 38.0742 4.9542C38.0742 5.06924 38.099 5.18289 38.1469 5.28741C38.1949 5.39192 38.2648 5.4848 38.3517 5.55968C38.4391 5.63459 38.5414 5.68973 38.6518 5.72133C38.7621 5.75289 38.8778 5.76022 38.9913 5.74271C39.1047 5.76022 39.2208 5.75289 39.3311 5.72133C39.4415 5.68973 39.5438 5.63459 39.6308 5.55968C39.7181 5.4848 39.7879 5.39192 39.8358 5.28741C39.8837 5.18289 39.9086 5.06924 39.9086 4.9542C39.9086 4.83916 39.8837 4.72551 39.8358 4.62099C39.7879 4.51648 39.7181 4.4236 39.6308 4.34869C39.5438 4.27381 39.4415 4.21867 39.3311 4.18707C39.2208 4.15547 39.1047 4.14818 38.9913 4.16569Z" fill="#3E3126" fill-opacity="0.4"/>
<path id="Vector_30" d="M43.4912 6.24364C43.3211 6.24364 43.1525 6.21008 42.9954 6.1448C42.8379 6.07953 42.695 5.98385 42.5747 5.86328C42.4543 5.74268 42.3589 5.5995 42.2938 5.44192C42.2286 5.28434 42.1953 5.11547 42.1953 4.94491C42.1953 4.77435 42.2286 4.60548 42.2938 4.4479C42.3589 4.29032 42.4543 4.14718 42.5747 4.02658C42.695 3.90597 42.8379 3.81031 42.9954 3.74504C43.1525 3.67977 43.3211 3.64618 43.4912 3.64618C43.6613 3.64618 43.8299 3.67977 43.9871 3.74504C44.1445 3.81031 44.2875 3.90597 44.4078 4.02658C44.5281 4.14718 44.6235 4.29032 44.6886 4.4479C44.7538 4.60548 44.7871 4.77435 44.7871 4.94491C44.7871 5.11547 44.7538 5.28434 44.6886 5.44192C44.6235 5.5995 44.5281 5.74268 44.4078 5.86328C44.2875 5.98385 44.1445 6.07953 43.9871 6.1448C43.8299 6.21008 43.6613 6.24364 43.4912 6.24364ZM43.4912 4.16569C43.3322 4.162 43.1759 4.20612 43.0421 4.29236C42.9084 4.3786 42.8034 4.503 42.741 4.64949C42.6785 4.79601 42.6609 4.95793 42.6911 5.11439C42.7214 5.27086 42.7977 5.41469 42.9099 5.52739C43.0222 5.64008 43.1659 5.71641 43.3222 5.74659C43.4782 5.77681 43.6399 5.75946 43.7859 5.69675C43.9323 5.63409 44.0564 5.529 44.1422 5.395C44.2285 5.26099 44.2725 5.10422 44.2687 4.94491C44.279 4.83652 44.2668 4.72716 44.2323 4.62388C44.1978 4.52059 44.1422 4.42567 44.0691 4.34527C43.9959 4.26487 43.9066 4.20075 43.807 4.15701C43.7073 4.11332 43.6 4.09097 43.4912 4.09147V4.16569Z" fill="#3E3126" fill-opacity="0.4"/>
<path id="Vector_31" d="M47.9719 6.24367C47.7156 6.24367 47.465 6.16749 47.2519 6.02477C47.0385 5.88205 46.8726 5.67924 46.7745 5.44191C46.6764 5.20462 46.6507 4.94349 46.7005 4.69153C46.7507 4.43961 46.8741 4.20819 47.0554 4.02658C47.2366 3.84492 47.4677 3.72125 47.719 3.67113C47.9704 3.62102 48.231 3.64674 48.4678 3.74504C48.7046 3.84335 48.9073 4.0098 49.0494 4.22336C49.192 4.43696 49.2678 4.68803 49.2678 4.94491C49.2678 5.28936 49.1314 5.61969 48.8885 5.86328C48.6452 6.10683 48.3156 6.24367 47.9719 6.24367ZM47.9719 4.16569C47.7838 4.19464 47.6125 4.29009 47.4887 4.43473C47.365 4.57937 47.2968 4.76364 47.2968 4.9542C47.2968 5.14476 47.365 5.32903 47.4887 5.47367C47.6125 5.61831 47.7838 5.71372 47.9719 5.74271C48.0854 5.76022 48.2011 5.75289 48.3114 5.72133C48.4218 5.68973 48.5241 5.63459 48.6115 5.55968C48.6984 5.4848 48.7686 5.39192 48.8165 5.28741C48.8644 5.18289 48.8893 5.06924 48.8893 4.9542C48.8893 4.83916 48.8644 4.72551 48.8165 4.62099C48.7686 4.51648 48.6984 4.4236 48.6115 4.34869C48.5241 4.27381 48.4218 4.21867 48.3114 4.18707C48.2011 4.15547 48.0854 4.14818 47.9719 4.16569Z" fill="#3E3126" fill-opacity="0.4"/>
<path id="Vector_32" d="M17.8874 12.9726C18.4703 12.9726 18.9428 12.4991 18.9428 11.9151C18.9428 11.331 18.4703 10.8575 17.8874 10.8575C17.3045 10.8575 16.832 11.331 16.832 11.9151C16.832 12.4991 17.3045 12.9726 17.8874 12.9726Z" fill="#3E3126" fill-opacity="0.4"/>
<path id="Vector_33" d="M9.88742 47.6302C10.4703 47.6302 10.9428 47.1564 10.9428 46.5724C10.9428 45.9884 10.4703 45.515 9.88742 45.515C9.30457 45.515 8.83203 45.9884 8.83203 46.5724C8.83203 47.1564 9.30457 47.6302 9.88742 47.6302Z" fill="#3E3126" fill-opacity="0.4"/>
<path id="Vector_34" d="M16.3118 28.8415H16.1266C16.0683 28.8175 16.0154 28.7817 15.9713 28.7364C15.9273 28.6911 15.8929 28.6373 15.8703 28.5782C15.8478 28.5191 15.8376 28.456 15.8403 28.3928C15.8429 28.3296 15.8585 28.2677 15.8859 28.2107L18.367 22.3293C18.4158 22.2204 18.5046 22.1346 18.615 22.0896C18.7254 22.0447 18.8487 22.0442 18.9595 22.0881C19.0166 22.108 19.0689 22.14 19.1127 22.1818C19.1565 22.2235 19.191 22.2742 19.2138 22.3304C19.2366 22.3866 19.2471 22.447 19.2448 22.5075C19.2425 22.5681 19.2272 22.6275 19.2002 22.6818L16.6636 28.5446C16.6375 28.6216 16.591 28.6899 16.529 28.7422C16.467 28.7946 16.3919 28.8289 16.3118 28.8415Z" fill="#3E3126" fill-opacity="0.4"/>
<path id="Vector_35" d="M19.6067 25.9961H19.4216C19.313 25.9471 19.2273 25.8581 19.1825 25.7476C19.1377 25.637 19.1371 25.5133 19.1809 25.4023L20.514 22.2483C20.5628 22.1394 20.6516 22.0536 20.762 22.0087C20.8723 21.9637 20.9957 21.9632 21.1065 22.0071C21.2151 22.056 21.3008 22.145 21.3456 22.2556C21.3904 22.3662 21.391 22.4898 21.3472 22.6008L20.0141 25.7549C19.9741 25.828 19.9152 25.8891 19.8435 25.9316C19.7718 25.974 19.69 25.9963 19.6067 25.9961Z" fill="#3E3126" fill-opacity="0.4"/>
<path id="Vector_36" opacity="0.6" d="M28.292 27.2268C29.2839 27.2268 30.088 26.421 30.088 25.4271C30.088 24.4332 29.2839 23.6274 28.292 23.6274C27.3002 23.6274 26.4961 24.4332 26.4961 25.4271C26.4961 26.421 27.3002 27.2268 28.292 27.2268Z" fill="#144B8B" fill-opacity="0.4"/>
<path id="Vector_37" d="M47.8067 68.1536H34.6423C33.2723 68.1536 31.9583 67.608 30.9896 66.6373C30.0208 65.6667 29.4766 64.35 29.4766 62.977V5.55437C29.4766 4.1815 30.0208 2.86485 30.9896 1.89409C31.9583 0.923329 33.2723 0.37796 34.6423 0.37796H47.8067C47.9688 0.37796 48.124 0.442465 48.2385 0.557286C48.3535 0.672107 48.4179 0.82784 48.4179 0.990223C48.4179 1.1526 48.3535 1.30834 48.2385 1.42316C48.124 1.53798 47.9688 1.60248 47.8067 1.60248H34.6423C33.5964 1.60248 32.5933 2.01884 31.8537 2.75996C31.1141 3.50108 30.6986 4.50626 30.6986 5.55437V63.0699C30.6986 64.1181 31.1141 65.1234 31.8537 65.8644C32.5933 66.6055 33.5964 67.0217 34.6423 67.0217H47.8067C47.9688 67.0217 48.124 67.0862 48.2385 67.201C48.3535 67.3158 48.4179 67.4717 48.4179 67.6341C48.4179 67.7965 48.3535 67.952 48.2385 68.0668C48.124 68.1816 47.9688 68.2462 47.8067 68.2462V68.1536Z" fill="#3E3126" fill-opacity="0.4"/>
<path id="Vector_38" d="M117.664 68.1536H30.6423C29.2723 68.1536 27.9584 67.608 26.9896 66.6373C26.0208 65.6667 25.4766 64.3501 25.4766 62.977V5.55437C25.4765 4.1911 26.0131 2.88281 26.9699 1.91363C27.9267 0.944451 29.2264 0.392618 30.5868 0.37796H117.609C118.979 0.37796 120.293 0.923329 121.261 1.89409C122.23 2.86485 122.774 4.1815 122.774 5.55437V63.0699C122.75 64.4169 122.203 65.7016 121.249 66.6508C120.295 67.6003 119.009 68.1394 117.664 68.1536ZM30.5868 1.60248C29.5408 1.60248 28.5377 2.01884 27.7981 2.75996C27.0585 3.50108 26.643 4.50626 26.643 5.55437V63.0699C26.643 64.1181 27.0585 65.1234 27.7981 65.8644C28.5377 66.6055 29.5408 67.0217 30.5868 67.0217H117.609C118.655 67.0217 119.658 66.6055 120.397 65.8644C121.137 65.1234 121.552 64.1181 121.552 63.0699V5.55437C121.553 4.51582 121.145 3.519 120.417 2.77946C119.689 2.03992 118.7 1.61711 117.664 1.60248H30.5868Z" fill="#3E3126" fill-opacity="0.4"/>
<path id="Vector_39" opacity="0.6" d="M2.72262 54.6461H2.70411C1.69176 54.6461 0.871094 55.4685 0.871094 56.483V67.9117C0.871094 68.9261 1.69176 69.7486 2.70411 69.7486H2.72262C3.73497 69.7486 4.55563 68.9261 4.55563 67.9117V56.483C4.55563 55.4685 3.73497 54.6461 2.72262 54.6461Z" fill="#144B8B" fill-opacity="0.4"/>
<path id="Vector_40" d="M82.671 90.9336H6.64698C4.8841 90.9336 3.19341 90.2317 1.94686 88.9827C0.700307 87.7336 0 86.0396 0 84.2729V17.6847C0 15.9182 0.700307 14.224 1.94686 12.9749C3.19341 11.7258 4.8841 11.024 6.64698 11.024H14.6271C14.7341 11.024 14.84 11.0451 14.9388 11.0862C15.0377 11.1272 15.1275 11.1873 15.2031 11.2632C15.2788 11.3389 15.3388 11.4289 15.3798 11.528C15.4207 11.627 15.4417 11.7332 15.4417 11.8404C15.4417 12.0569 15.3559 12.2645 15.2031 12.4176C15.0504 12.5707 14.8432 12.6567 14.6271 12.6567H6.64698C5.31624 12.6567 4.03996 13.1865 3.09898 14.1294C2.15799 15.0723 1.62934 16.3512 1.62934 17.6847V84.2729C1.62934 85.6064 2.15799 86.8854 3.09898 87.8281C4.03996 88.7711 5.31624 89.301 6.64698 89.301H82.671C82.8867 89.301 83.094 89.387 83.2469 89.5398C83.3997 89.693 83.4856 89.9007 83.4856 90.1173C83.4856 90.3338 83.3997 90.5412 83.2469 90.6944C83.094 90.8476 82.8867 90.9336 82.671 90.9336Z" fill="#3E3126" fill-opacity="0.4"/>
<path id="Vector_41" d="M10.4797 90.6368C8.79535 90.6368 7.17999 89.9664 5.98899 88.773C4.798 87.5796 4.12893 85.9608 4.12893 84.2729V17.6848C4.12648 16.8484 4.28906 16.0198 4.60737 15.2466C4.92564 14.4734 5.39334 13.7709 5.98355 13.1795C6.57376 12.5881 7.27482 12.1194 8.04646 11.8005C8.81807 11.4815 9.645 11.3186 10.4797 11.321C10.5477 11.321 10.6152 11.3344 10.6781 11.3606C10.741 11.3867 10.7981 11.4249 10.8462 11.4732C10.8944 11.5214 10.9326 11.5787 10.9586 11.6417C10.9847 11.7047 10.9981 11.7723 10.9981 11.8405C10.9935 11.9768 10.9374 12.1063 10.8411 12.2028C10.7449 12.2992 10.6157 12.3554 10.4797 12.36C9.78115 12.3576 9.08905 12.4936 8.44324 12.7603C7.79744 13.0271 7.21064 13.4192 6.71672 13.9142C6.22281 14.4091 5.83147 14.9971 5.56527 15.6442C5.29912 16.2914 5.16332 16.9849 5.16577 17.6848V84.2729C5.16577 85.6851 5.72563 87.0398 6.72216 88.0381C7.71873 89.0368 9.07031 89.5978 10.4797 89.5978C10.5477 89.5978 10.6152 89.6112 10.6781 89.6373C10.741 89.6634 10.7981 89.7018 10.8462 89.7498C10.8944 89.7982 10.9326 89.8554 10.9586 89.9184C10.9847 89.9813 10.9981 90.0489 10.9981 90.1173C10.9935 90.2536 10.9374 90.383 10.8411 90.4793C10.7449 90.5761 10.6157 90.6322 10.4797 90.6368Z" fill="#3E3126" fill-opacity="0.4"/>
<path id="Vector_42" d="M66.7084 16.3726H39.7132C38.7928 16.3726 38.0469 17.1202 38.0469 18.0424V40.6774C38.0469 41.5997 38.7928 42.3473 39.7132 42.3473H66.7084C67.6288 42.3473 68.3748 41.5997 68.3748 40.6774V18.0424C68.3748 17.1202 67.6288 16.3726 66.7084 16.3726Z" fill="#82AEE3" fill-opacity="0.4"/>
<path id="Vector_43" d="M67.9867 17.9445V40.561C67.9867 41.0087 67.8093 41.4384 67.4932 41.7552C67.1775 42.0716 66.7487 42.2493 66.3019 42.2493H49.8789C58.6866 36.2601 64.9872 27.2323 67.5794 16.887C67.8415 17.1768 67.9863 17.5536 67.9867 17.9445Z" fill="#4786D1" fill-opacity="0.4"/>
<path id="Vector_44" d="M66.6557 43.0472H39.716C39.1367 43.0472 38.581 42.8165 38.1712 42.406C37.7614 41.9955 37.5312 41.4384 37.5312 40.8578V18.1857C37.5312 17.6051 37.7614 17.0482 38.1712 16.6376C38.581 16.2271 39.1367 15.9964 39.716 15.9964H66.6557C66.9465 15.9915 67.2358 16.0444 67.506 16.152C67.7765 16.2595 68.0229 16.4197 68.2313 16.6233C68.4394 16.8268 68.6057 17.0697 68.7195 17.3378C68.8337 17.606 68.8938 17.8942 68.8961 18.1857V40.8022C68.9011 41.0986 68.8467 41.3927 68.736 41.6672C68.6248 41.9418 68.4601 42.1914 68.2513 42.401C68.042 42.6103 67.793 42.7754 67.519 42.8867C67.245 42.9977 66.9515 43.0522 66.6557 43.0472ZM39.716 17.0725C39.5654 17.0725 39.416 17.1022 39.2769 17.1601C39.1374 17.2179 39.011 17.3026 38.9044 17.4094C38.7979 17.5162 38.7132 17.643 38.6554 17.7826C38.5979 17.9222 38.568 18.0717 38.568 18.2228V40.8022C38.568 40.9534 38.5979 41.1028 38.6554 41.2426C38.7132 41.382 38.7979 41.509 38.9044 41.6158C39.011 41.7225 39.1374 41.8074 39.2769 41.865C39.416 41.923 39.5654 41.9525 39.716 41.9525H66.6557C66.9619 41.9525 67.2558 41.832 67.4742 41.6169C67.6922 41.4015 67.8175 41.109 67.8221 40.8022V18.1857C67.8079 17.8854 67.6788 17.6022 67.4615 17.3949C67.2443 17.1876 66.9557 17.0722 66.6557 17.0725H39.716Z" fill="#3E3126" fill-opacity="0.4"/>
</g>
</g>
</g>
</g>
</g>
</g>
</g>
<defs>
<clipPath id="clip0_1740_28742">
<rect width="123" height="91" fill="white"/>
</clipPath>
</defs>
</svg>
