<svg width="100" height="100" viewBox="0 0 100 100" fill="none" xmlns="http://www.w3.org/2000/svg">
<rect width="100" height="100" rx="24" fill="#EDF1FA"/>
<g filter="url(#filter0_d_1203:28398)">
<path fill-rule="evenodd" clip-rule="evenodd" d="M56.6992 34.8247C56.6992 32.1447 55.6346 29.5744 53.7395 27.6794C51.8444 25.7843 49.2742 24.7197 46.5941 24.7197C43.9141 24.7197 41.3439 25.7843 39.4488 27.6794L39.4475 27.6807L29.9807 18.211C29.1998 17.4298 27.9335 17.4296 27.1523 18.2106L18.5454 26.8148C17.7642 27.5957 17.764 28.8621 18.5449 29.6432L28.0126 39.1139C26.1193 41.0087 25.0557 43.5778 25.0557 46.2565C25.0557 48.9366 26.1203 51.5068 28.0154 53.4019C29.9105 55.297 32.4807 56.3616 35.1608 56.3616C37.8408 56.3616 40.411 55.297 42.3061 53.4019C44.2012 51.5068 45.2658 48.9366 45.2658 46.2565C45.2658 45.7758 45.2316 45.2986 45.1644 44.8282C45.6353 44.8955 46.1129 44.9298 46.5941 44.9298C49.2742 44.9298 51.8444 43.8651 53.7395 41.9701C55.6346 40.075 56.6992 37.5047 56.6992 34.8247Z" fill="#4B7FFB" fill-opacity="0.01"/>
<path fill-rule="evenodd" clip-rule="evenodd" d="M41.6445 63.5179C41.6445 66.1979 42.7092 68.7682 44.6042 70.6632C46.4993 72.5583 49.0696 73.623 51.7496 73.623C54.4296 73.623 56.9999 72.5583 58.895 70.6632L58.8961 70.6621L68.3631 80.1322C69.1441 80.9134 70.4104 80.9136 71.1916 80.1326L79.7985 71.5284C80.5797 70.7475 80.5799 69.4811 79.7989 68.7L70.3308 59.2288C72.2243 57.334 73.288 54.7648 73.288 52.0859C73.288 49.4059 72.2233 46.8356 70.3283 44.9406C68.4332 43.0455 65.8629 41.9809 63.1829 41.9809C60.5029 41.9809 57.9326 43.0455 56.0376 44.9406C54.1425 46.8356 53.0778 49.4059 53.0778 52.0859C53.0778 52.5667 53.1121 53.044 53.1793 53.5144C52.7084 53.4471 52.2308 53.4128 51.7496 53.4128C49.0696 53.4128 46.4993 54.4775 44.6042 56.3725C42.7092 58.2676 41.6445 60.8379 41.6445 63.5179Z" fill="#4B7FFB" fill-opacity="0.01"/>
</g>
<path fill-rule="evenodd" clip-rule="evenodd" d="M56.6992 34.8247C56.6992 32.1447 55.6346 29.5744 53.7395 27.6794C51.8444 25.7843 49.2742 24.7197 46.5941 24.7197C43.9141 24.7197 41.3439 25.7843 39.4488 27.6794L39.4475 27.6807L29.9807 18.211C29.1998 17.4298 27.9335 17.4296 27.1523 18.2106L18.5454 26.8148C17.7642 27.5957 17.764 28.8621 18.5449 29.6432L28.0126 39.1139C26.1193 41.0087 25.0557 43.5778 25.0557 46.2565C25.0557 48.9366 26.1203 51.5068 28.0154 53.4019C29.9105 55.297 32.4807 56.3616 35.1608 56.3616C37.8408 56.3616 40.411 55.297 42.3061 53.4019C44.2012 51.5068 45.2658 48.9366 45.2658 46.2565C45.2658 45.7758 45.2316 45.2986 45.1644 44.8282C45.6353 44.8955 46.1129 44.9298 46.5941 44.9298C49.2742 44.9298 51.8444 43.8651 53.7395 41.9701C55.6346 40.075 56.6992 37.5047 56.6992 34.8247Z" fill="#4B7FFB"/>
<path fill-rule="evenodd" clip-rule="evenodd" d="M41.6445 63.5179C41.6445 66.1979 42.7092 68.7682 44.6042 70.6632C46.4993 72.5583 49.0696 73.623 51.7496 73.623C54.4296 73.623 56.9999 72.5583 58.895 70.6632L58.8961 70.6621L68.3631 80.1322C69.1441 80.9134 70.4104 80.9136 71.1916 80.1326L79.7985 71.5284C80.5797 70.7475 80.5799 69.4811 79.7989 68.7L70.3308 59.2288C72.2243 57.334 73.288 54.7648 73.288 52.0859C73.288 49.4059 72.2233 46.8356 70.3283 44.9406C68.4332 43.0455 65.8629 41.9809 63.1829 41.9809C60.5029 41.9809 57.9326 43.0455 56.0376 44.9406C54.1425 46.8356 53.0778 49.4059 53.0778 52.0859C53.0778 52.5667 53.1121 53.044 53.1793 53.5144C52.7084 53.4471 52.2308 53.4128 51.7496 53.4128C49.0696 53.4128 46.4993 54.4775 44.6042 56.3725C42.7092 58.2676 41.6445 60.8379 41.6445 63.5179Z" fill="#4B7FFB"/>
<defs>
<filter id="filter0_d_1203:28398" x="7.95898" y="12.625" width="82.4258" height="83.0932" filterUnits="userSpaceOnUse" color-interpolation-filters="sRGB">
<feFlood flood-opacity="0" result="BackgroundImageFix"/>
<feColorMatrix in="SourceAlpha" type="matrix" values="0 0 0 0 0 0 0 0 0 0 0 0 0 0 0 0 0 0 127 0" result="hardAlpha"/>
<feOffset dy="5"/>
<feGaussianBlur stdDeviation="5"/>
<feColorMatrix type="matrix" values="0 0 0 0 0.294118 0 0 0 0 0.501961 0 0 0 0 0.984314 0 0 0 0.25 0"/>
<feBlend mode="normal" in2="BackgroundImageFix" result="effect1_dropShadow_1203:28398"/>
<feBlend mode="normal" in="SourceGraphic" in2="effect1_dropShadow_1203:28398" result="shape"/>
</filter>
</defs>
</svg>
