<svg width="107" height="108" viewBox="0 0 107 108" fill="none" xmlns="http://www.w3.org/2000/svg">
<path id="Vector" d="M58.2828 106.408C62.0608 107.168 65.927 107.288 69.736 106.763C73.8229 106.089 77.7638 104.664 81.3802 102.552C88.9639 97.8973 95.2197 91.1742 99.4957 83.083C101.725 79.0107 103.491 74.6734 104.759 70.1608C106.038 65.5965 106.735 60.87 106.83 56.1063C107.047 46.7303 105.053 37.4356 101.026 29.0603C97.0477 20.916 90.9466 13.812 83.0176 9.99093C79.035 8.06153 74.7083 7.06225 70.3334 7.06148C65.7781 6.94279 61.2849 8.15495 57.349 10.5644C53.3838 13.1102 50.1387 16.7323 47.95 21.0558C45.8737 25.1257 44.4006 29.5098 43.5819 34.056C42.78 38.3782 42.4457 42.7845 42.5856 47.1903C42.652 49.3452 42.9088 51.4896 43.3524 53.5956C43.8223 55.6554 44.3929 57.5286 44.9609 59.5284C46.1268 63.2942 47.7876 66.87 49.8945 70.1508C51.9062 73.3311 54.6462 75.9236 57.8585 77.6859C60.9796 79.3618 64.481 80.0766 67.9615 79.7483C71.405 79.3969 74.666 77.9633 77.324 75.6322C79.8068 73.4319 81.8113 70.6919 83.2018 67.5976C84.4839 64.8185 85.3388 61.84 85.7346 58.7737C86.0491 56.058 85.9797 53.3065 85.5287 50.6093C85.1248 48.2719 84.4278 46.0008 83.4561 43.8561C82.6259 42.0398 81.5887 40.3371 80.3677 38.7857C79.3465 37.5029 78.193 36.3445 76.9286 35.3322C75.2013 33.9304 73.2562 32.8581 71.1813 32.1641C70.4619 31.8824 69.7038 31.7285 68.9378 31.7086C69.5918 32.0925 70.2825 32.4014 70.9981 32.6301C72.9353 33.5048 74.7391 34.6798 76.3499 36.1162C77.5125 37.1553 78.5685 38.3209 79.5003 39.5934C80.5932 41.1321 81.5202 42.7945 82.2638 44.5498C83.107 46.6106 83.6996 48.7752 84.0276 50.9917C84.785 56.4147 83.8943 61.9453 81.4839 66.7863C80.1737 69.5324 78.3307 71.9546 76.0747 73.8959C73.7238 75.8592 70.8716 77.0386 67.8795 77.2849C64.8149 77.5028 61.7506 76.8083 59.0344 75.2803C56.1944 73.638 53.789 71.2679 52.0403 68.3885C50.1277 65.2846 48.6368 61.9135 47.6115 58.3743C47.0518 56.5568 46.5229 54.6164 46.1109 52.7574C45.7447 50.8394 45.5449 48.8907 45.5141 46.9356C45.4282 42.8011 45.7894 38.6715 46.5906 34.6271C47.3823 30.4691 48.7766 26.4674 50.7243 22.7631C52.6201 19.0744 55.4185 15.9934 58.8284 13.8404C62.2353 11.8208 66.1075 10.8367 70.0179 10.9967C73.9133 11.0347 77.7572 11.9705 81.2813 13.7388C88.3271 17.2175 93.892 23.7397 97.5099 31.3123C101.165 39.0603 102.961 47.6331 102.738 56.273C102.452 64.9829 100.084 73.4663 95.8552 80.9329C91.9858 88.2065 86.3397 94.2452 79.5034 98.4216C76.3674 100.243 72.952 101.469 69.4116 102.046C66.0493 102.492 62.6395 102.375 59.3075 101.699C56.1045 101.053 52.9749 100.046 49.9723 98.6955C47.1138 97.4341 44.3734 95.891 41.7873 94.0866C37.0982 90.814 32.9301 86.7743 29.4401 82.1195C26.4043 77.9975 23.895 73.4723 21.9773 68.6611C18.9779 60.9832 17.363 52.7853 17.2164 44.4911C17.1242 38.6865 17.6105 32.8901 18.6675 27.1977C19.3357 23.6476 20.19 20.1401 21.2263 16.6915C21.9656 14.3027 22.5096 12.6442 22.895 11.4367C23.8999 13.4026 25.0854 15.2598 26.4343 16.9814C29.0015 20.1969 31.1746 21.5979 31.4922 21.2094C31.8098 20.821 30.452 18.7205 28.5273 15.2305C27.4068 13.1998 26.4053 11.0987 25.5283 8.93911C25.0225 7.72061 24.5548 6.41636 24.1113 5.04873C23.8878 4.18556 23.5669 3.35352 23.1557 2.57054C22.9845 2.26939 22.779 1.99155 22.5436 1.74329C22.2829 1.48984 21.9851 1.28249 21.662 1.12933C21.0004 0.779312 20.2402 0.701704 19.5295 0.911623C19.1606 1.01953 18.8066 1.17744 18.4764 1.38142L17.9086 1.75606L16.9342 2.39299L15.0207 3.65926L11.4324 6.10142C9.13755 7.71174 7.13024 9.15335 5.43867 10.4298C2.08739 13.0049 0.152935 14.77 0.354012 15.279C0.555089 15.7879 2.95654 14.7652 6.62244 12.8102C8.45356 11.8235 10.5964 10.6046 12.9598 9.20236L16.6411 6.9533L20.0586 4.76123C20.0586 4.76123 20.0586 4.76122 20.133 4.813C20.4174 5.37119 20.6495 5.95729 20.8259 6.56288C21.0922 7.30977 21.3687 8.01567 21.6489 8.74017C20.2902 10.8939 19.1808 13.2127 18.3444 15.6471C17.0228 19.1903 15.945 22.8306 15.1192 26.5396C13.804 32.5466 13.1425 38.6952 13.1476 44.8661C13.1557 53.789 14.795 62.6328 17.9756 70.9115C20.0116 76.0614 22.6883 80.9034 25.9349 85.3094C29.6741 90.3425 34.1579 94.7055 39.2122 98.2289C42.0016 100.176 44.9618 101.835 48.0514 103.181C51.3172 104.651 54.7247 105.739 58.2125 106.423" fill="#979797"/>
</svg>
