<svg width="196" height="171" viewBox="0 0 196 171" fill="none" xmlns="http://www.w3.org/2000/svg">
<path id="Vector" d="M182.734 118.853C179.104 121.796 174.786 123.779 170.184 124.616L168.446 124.87C167.861 124.92 167.266 124.938 166.653 124.961C165.479 125.023 164.302 124.986 163.135 124.851C160.89 124.612 158.678 124.137 156.537 123.432C148.171 120.65 141.727 115.705 134.173 114.48C130.624 113.666 126.904 113.977 123.533 115.369C120.394 116.985 117.991 119.729 116.814 123.041C115.509 126.654 114.517 130.369 113.849 134.148C113.164 138.296 111.837 142.317 109.914 146.066C108.732 148.206 107.047 150.03 105.003 151.384C102.959 152.737 100.618 153.579 98.1798 153.837C95.8744 154.059 93.5494 153.853 91.3236 153.229C89.3209 152.681 87.3771 151.942 85.5194 151.021C81.8889 149.319 78.8109 147.305 75.5022 145.911C72.2663 144.459 68.8572 143.42 65.3557 142.818C62.036 142.203 58.6218 142.27 55.3234 143.016C52.1961 143.795 49.308 145.331 46.917 147.486C42.1008 151.736 38.7305 157.15 34.8097 161.788C32.8962 164.155 30.6616 166.247 28.1704 168.004C25.734 169.717 22.866 170.717 19.8926 170.892C17.2656 171.079 14.6399 170.554 12.2949 169.374C10.3757 168.346 8.67526 166.959 7.28642 165.289C5.18683 162.726 3.51189 159.846 2.32435 156.756C1.57205 154.847 0.954892 152.888 0.47735 150.893C0.168402 149.53 0.0823692 148.78 0.186216 148.764C0.290063 148.747 1.24663 151.505 3.50549 156.253C4.86078 159.114 6.62845 161.761 8.75293 164.112C10.0874 165.539 11.6813 166.702 13.4512 167.54C15.4593 168.46 17.6835 168.819 19.8859 168.578C22.3528 168.355 24.7089 167.443 26.6825 165.948C28.888 164.29 30.8487 162.332 32.5069 160.132C34.3033 157.867 36.0291 155.337 37.9517 152.795C39.9162 150.032 42.1502 147.467 44.6209 145.14C45.3214 144.562 46.0438 143.941 46.7497 143.38C47.4556 142.818 48.3143 142.333 49.1294 141.825C50.8442 140.866 52.6719 140.122 54.5701 139.612C58.4075 138.642 62.4011 138.468 66.3024 139.099C70.1552 139.7 73.9147 140.781 77.4923 142.315C79.2668 143.045 81.0355 143.92 82.7114 144.791C84.3872 145.661 86.0412 146.521 87.7173 147.283C90.83 148.928 94.3383 149.697 97.8654 149.508C99.4983 149.308 101.059 148.713 102.409 147.774C103.768 146.825 104.88 145.566 105.651 144.104C107.261 140.754 108.349 137.18 108.877 133.508C109.555 129.464 110.588 125.486 111.965 121.619C112.782 119.443 113.952 117.414 115.429 115.612C116.999 113.679 118.963 112.098 121.191 110.975C123.457 109.878 125.913 109.224 128.424 109.05C130.775 108.874 133.138 108.998 135.455 109.418C139.755 110.245 143.914 111.672 147.807 113.658C151.321 115.45 154.948 117.015 158.666 118.342C160.413 118.915 162.216 119.302 164.046 119.497C164.93 119.593 165.82 119.611 166.707 119.55C167.155 119.527 167.592 119.526 168.035 119.487L169.347 119.267C172.875 118.593 176.177 117.037 178.939 114.745C184.401 110.378 188.031 104.144 189.112 97.2693C189.851 90.8333 188.867 84.325 186.262 78.4024C183.853 72.8098 180.813 67.5098 177.199 62.604C171.212 54.28 164.468 46.5221 157.052 39.4278C151.636 34.2413 145.899 29.398 139.872 24.9261C133.14 20.0301 126.15 15.4935 118.932 11.3355C116.912 10.3561 115.044 9.09675 113.382 7.59497C112.314 8.85166 111.782 10.4713 111.898 12.1079C111.856 14.2214 111.896 16.4162 111.957 18.4045C112.087 22.4517 112.386 26.0801 112.697 29.1435C113.314 35.254 113.859 39.072 113.148 39.291C112.438 39.5101 110.679 35.9884 109.095 29.8749C108.206 26.2706 107.592 22.6035 107.257 18.905C107.043 16.7867 106.916 14.6573 106.865 12.2669C106.836 10.9132 106.998 9.5612 107.348 8.25084C107.829 6.57233 108.811 5.07678 110.164 3.96283C111.512 2.93428 113.075 2.22097 114.736 1.87625C116.039 1.59406 117.357 1.38405 118.682 1.24722C121.158 0.964069 123.557 0.7789 125.787 0.686507C129.795 0.507379 133.809 0.631942 137.796 1.0591C144.57 1.80309 148.507 3.16795 148.364 3.77679C148.221 4.38562 144.041 4.31438 137.429 4.43925C134.118 4.51257 130.216 4.67426 125.871 5.09238C123.696 5.2933 121.434 5.55962 119.089 5.90765C118.51 5.97426 117.958 6.06797 117.356 6.1781C118.312 6.5289 119.469 7.04761 121.107 7.69554C128.918 11.3035 136.371 15.6266 143.372 20.6093C158.442 31.2001 171.609 44.2358 182.325 59.1742C186.183 64.42 189.416 70.0946 191.96 76.0849C194.909 82.8737 195.987 90.3279 195.084 97.6838C193.74 106.068 189.256 113.65 182.532 118.903" fill="#FA531E"/>
</svg>
