<svg width="69" height="61" viewBox="0 0 69 61" fill="none" xmlns="http://www.w3.org/2000/svg">
<g id="Upload icon">
<path id="Vector" d="M36.0286 14.8904L36.1217 14.9184L36.1257 14.9137C36.5642 14.9936 36.9977 14.7281 37.1258 14.2913C38.2978 10.3144 41.9894 7.53754 46.1008 7.53754C46.5891 7.53754 46.9826 7.13802 46.9826 6.64856C46.9826 6.15908 46.5891 5.75958 46.1008 5.75958C41.0457 5.75958 36.799 9.15855 35.4356 13.7854C35.2971 14.2547 35.5614 14.7496 36.0286 14.8904Z" fill="#483EA8" stroke="#F9FFF9" stroke-width="0.3"/>
<path id="Vector_2" d="M56.3438 42.8586H51.9534C51.5494 42.8586 51.2217 42.5277 51.2217 42.1196C51.2217 41.7116 51.5494 41.3806 51.9534 41.3806H56.3438C62.3956 41.3806 67.3197 36.4078 67.3197 30.296C67.3197 24.1842 62.3956 19.2114 56.3438 19.2114H56.2382C56.026 19.2114 55.8242 19.1185 55.6852 18.9564C55.5462 18.7944 55.4834 18.5796 55.5138 18.3674C55.5791 17.9071 55.612 17.4447 55.612 16.9945C55.612 11.6976 51.3444 7.38774 46.0995 7.38774C44.059 7.38774 42.1131 8.0317 40.4719 9.25047C40.1112 9.51809 39.599 9.39933 39.3905 8.99869C34.7425 0.0602904 22.6023 -1.14005 16.3082 6.63558C13.6568 9.91134 12.615 14.1726 13.4498 18.3257C13.5418 18.7844 13.1942 19.212 12.7327 19.212H12.4395C6.3876 19.212 1.46353 24.1848 1.46353 30.2966C1.46353 36.4084 6.3876 41.3812 12.4395 41.3812H16.8298C17.2338 41.3812 17.5615 41.7122 17.5615 42.1202C17.5615 42.5282 17.2338 42.8592 16.8298 42.8592H12.4395C5.5805 42.8592 0 37.2234 0 30.2965C0 23.5639 5.27155 18.0512 11.8651 17.7471C11.2457 13.4383 12.4301 9.09209 15.1751 5.70026C21.9138 -2.62534 34.828 -1.69215 40.2871 7.5915C42.0287 6.48883 44.0215 5.91038 46.0992 5.91038C52.4538 5.91038 57.4892 11.3725 57.0486 17.754C63.5813 18.124 68.7829 23.6077 68.7829 30.296C68.7829 37.2234 63.2024 42.8586 56.3434 42.8586L56.3438 42.8586Z" fill="#483EA8"/>
<path id="Vector_3" d="M15.85 41.7023C15.85 51.9707 24.1223 60.3269 34.2935 60.3269C44.4648 60.3269 52.737 51.9706 52.737 41.7023C52.737 31.4339 44.4648 23.0777 34.2935 23.0777C24.1221 23.0777 15.85 31.434 15.85 41.7023ZM17.6138 41.7023C17.6138 32.4122 25.0978 24.856 34.2935 24.856C43.489 24.856 50.9732 32.412 50.9732 41.7023C50.9732 50.9925 43.489 58.5486 34.2935 58.5486C25.098 58.5486 17.6138 50.9926 17.6138 41.7023Z" fill="#483EA8" stroke="#F9FFF9" stroke-width="0.3"/>
<g id="arrow">
<path id="Vector_4" d="M33.9418 49.1395C33.9418 49.5197 34.2475 49.8305 34.6275 49.8305C35.0075 49.8305 35.3132 49.5201 35.3132 49.1395V35.073C35.3132 34.6928 35.0075 34.382 34.6275 34.382C34.2475 34.382 33.9418 34.6929 33.9418 35.073V49.1395Z" fill="#483EA8" stroke="#483EA8" stroke-width="0.3"/>
<path id="Vector_5" d="M34.6281 36.0527L38.4284 39.8906C38.562 40.0255 38.7381 40.0934 38.9137 40.0935L34.6281 36.0527ZM34.6281 36.0527L30.8279 39.8905C30.5603 40.1613 30.125 40.1612 29.857 39.8906C29.5898 39.6207 29.5898 39.1842 29.857 38.9143L34.1426 34.5864C34.1426 34.5863 34.1426 34.5863 34.1427 34.5863C34.4104 34.3155 34.8456 34.3157 35.1135 34.5863L39.3991 38.9143C39.6663 39.1842 39.6663 39.6207 39.3991 39.8906C39.2653 40.0261 39.089 40.0934 38.9138 40.0935L34.6281 36.0527Z" fill="#483EA8" stroke="#483EA8" stroke-width="0.3"/>
</g>
</g>
</svg>
